  0
SECTION
  2
HEADER
  9
$ACADVER
  1
AC1014
  9
$HANDSEED
  5
FFFF
  9
$MEASUREMENT
 70
     1
  0
ENDSEC
  0
SECTION
  2
TABLES
  0
TABLE
  2
VPORT
  5
8
330
0
100
AcDbSymbolTable
 70
     4
  0
VPORT
  5
2E
330
8
100
AcDbSymbolTableRecord
100
AcDbViewportTableRecord
  2
*ACTIVE
 70
     0
 10
0.0
 20
0.0
 11
1.0
 21
1.0
 12
210.0
 22
148.5
 13
0.0
 23
0.0
 14
10.0
 24
10.0
 15
10.0
 25
10.0
 16
0.0
 26
0.0
 36
1.0
 17
0.0
 27
0.0
 37
0.0
 40
341.0
 41
1.24
 42
50.0
 43
0.0
 44
0.0
 50
0.0
 51
0.0
 71
     0
 72
   100
 73
     1
 74
     3
 75
     0
 76
     0
 77
     0
 78
     0
  0
ENDTAB
  0
TABLE
  2
LTYPE
  5
5
330
0
100
AcDbSymbolTable
 70
     1
  0
LTYPE
  5
14
330
5
100
AcDbSymbolTableRecord
100
AcDbLinetypeTableRecord
  2
BYBLOCK
 70
     0
  3

 72
    65
 73
     0
 40
0.0
  0
LTYPE
  5
15
330
5
100
AcDbSymbolTableRecord
100
AcDbLinetypeTableRecord
  2
BYLAYER
 70
     0
  3

 72
    65
 73
     0
 40
0.0
  0
LTYPE
  5
16
330
5
100
AcDbSymbolTableRecord
100
AcDbLinetypeTableRecord
  2
CONTINUOUS
 70
     0
  3
Solid line
 72
    65
 73
     0
 40
0.0
  0
ENDTAB
  0
TABLE
  2
LAYER
  5
2
100
AcDbSymbolTable
 70
5
  0
LAYER
  5
50
100
AcDbSymbolTableRecord
100
AcDbLayerTableRecord
  2
0
 70
0
  6
CONTINUOUS
  0
LAYER
  5
51
100
AcDbSymbolTableRecord
100
AcDbLayerTableRecord
  2
Layer_1
 70
0
  6
CONTINUOUS
  0
LAYER
  5
52
100
AcDbSymbolTableRecord
100
AcDbLayerTableRecord
  2
jpg
 70
0
  6
CONTINUOUS
  0
LAYER
  5
53
100
AcDbSymbolTableRecord
100
AcDbLayerTableRecord
  2
path
 70
0
  6
CONTINUOUS
  0
LAYER
  5
54
100
AcDbSymbolTableRecord
100
AcDbLayerTableRecord
  2
router_bit
 70
0
  6
CONTINUOUS
  0
ENDTAB
  0
TABLE
  2
STYLE
  5
3
330
0
100
AcDbSymbolTable
 70
     1
  0
STYLE
  5
11
330
3
100
AcDbSymbolTableRecord
100
AcDbTextStyleTableRecord
  2
STANDARD
 70
     0
 40
0.0
 41
1.0
 50
0.0
 71
     0
 42
2.5
  3
txt
  4

  0
ENDTAB
  0
TABLE
  2
VIEW
  5
6
330
0
100
AcDbSymbolTable
 70
     0
  0
ENDTAB
  0
TABLE
  2
UCS
  5
7
330
0
100
AcDbSymbolTable
 70
     0
  0
ENDTAB
  0
TABLE
  2
APPID
  5
9
330
0
100
AcDbSymbolTable
 70
     2
  0
APPID
  5
12
330
9
100
AcDbSymbolTableRecord
100
AcDbRegAppTableRecord
  2
ACAD
 70
     0
  0
ENDTAB
  0
TABLE
  2
DIMSTYLE
  5
A
330
0
100
AcDbSymbolTable
 70
     1
  0
DIMSTYLE
105
27
330
A
100
AcDbSymbolTableRecord
100
AcDbDimStyleTableRecord
  2
ISO-25
 70
     0
  3

  4

  5

  6

  7

 40
1.0
 41
2.5
 42
0.625
 43
3.75
 44
1.25
 45
0.0
 46
0.0
 47
0.0
 48
0.0
140
2.5
141
2.5
142
0.0
143
0.03937007874016
144
1.0
145
0.0
146
1.0
147
0.625
 71
     0
 72
     0
 73
     0
 74
     0
 75
     0
 76
     0
 77
     1
 78
     8
170
     0
171
     3
172
     1
173
     0
174
     0
175
     0
176
     0
177
     0
178
     0
270
     2
271
     2
272
     2
273
     2
274
     3
340
11
275
     0
280
     0
281
     0
282
     0
283
     0
284
     8
285
     0
286
     0
287
     3
288
     0
  0
ENDTAB
  0
TABLE
  2
BLOCK_RECORD
  5
1
330
0
100
AcDbSymbolTable
 70
     1
  0
BLOCK_RECORD
  5
1F
330
1
100
AcDbSymbolTableRecord
100
AcDbBlockTableRecord
  2
*MODEL_SPACE
  0
BLOCK_RECORD
  5
1B
330
1
100
AcDbSymbolTableRecord
100
AcDbBlockTableRecord
  2
*PAPER_SPACE
  0
ENDTAB
  0
ENDSEC
  0
SECTION
  2
BLOCKS
  0
BLOCK
  5
20
330
1F
100
AcDbEntity
  8
0
100
AcDbBlockBegin
  2
*MODEL_SPACE
 70
     0
 10
0.0
 20
0.0
 30
0.0
  3
*MODEL_SPACE
  1

  0
ENDBLK
  5
21
330
1F
100
AcDbEntity
  8
0
100
AcDbBlockEnd
  0
BLOCK
  5
1C
330
1B
100
AcDbEntity
 67
     1
  8
0
100
AcDbBlockBegin
  2
*PAPER_SPACE
  1

  0
ENDBLK
  5
1D
330
1B
100
AcDbEntity
 67
     1
  8
0
100
AcDbBlockEnd
  0
ENDSEC
  0
SECTION
  2
ENTITIES
  0
LWPOLYLINE
  5
100
100
AcDbEntity
  8
path
 62
7
100
AcDbPolyline
 90
77
 70
1
 10
113.003020
 20
158.605340
 30
0.0
 10
111.050087
 20
158.441843
 30
0.0
 10
109.198934
 20
157.980058
 30
0.0
 10
107.457601
 20
157.256293
 30
0.0
 10
105.834130
 20
156.306860
 30
0.0
 10
105.175454
 20
155.745535
 30
0.0
 10
104.614909
 20
155.073823
 30
0.0
 10
103.593680
 20
153.631550
 30
0.0
 10
102.982421
 20
152.635750
 30
0.0
 10
102.290140
 20
151.714230
 30
0.0
 10
101.620443
 20
151.261336
 30
0.0
 10
100.918240
 20
150.975790
 30
0.0
 10
99.798427
 20
150.895390
 30
0.0
 10
98.787510
 20
151.008450
 30
0.0
 10
97.429916
 20
151.737410
 30
0.0
 10
96.603087
 20
152.635231
 30
0.0
 10
95.852774
 20
153.611690
 30
0.0
 10
94.648766
 20
155.063393
 30
0.0
 10
93.636778
 20
156.142330
 30
0.0
 10
92.076390
 20
157.137691
 30
0.0
 10
90.376645
 20
157.886559
 30
0.0
 10
88.551064
 20
158.358629
 30
0.0
 10
86.613172
 20
158.523600
 30
0.0
 10
85.053020
 20
158.443129
 30
0.0
 10
83.519295
 20
158.204688
 30
0.0
 10
82.022346
 20
157.812743
 30
0.0
 10
80.572525
 20
157.271761
 30
0.0
 10
79.180180
 20
156.586210
 30
0.0
 10
77.855663
 20
155.760556
 30
0.0
 10
76.609324
 20
154.799267
 30
0.0
 10
75.451512
 20
153.706810
 30
0.0
 10
74.402935
 20
152.500546
 30
0.0
 10
73.480259
 20
151.202047
 30
0.0
 10
72.687770
 20
149.822098
 30
0.0
 10
72.029756
 20
148.371483
 30
0.0
 10
71.510504
 20
146.860984
 30
0.0
 10
71.134303
 20
145.301387
 30
0.0
 10
70.905440
 20
143.703474
 30
0.0
 10
70.828202
 20
142.078030
 30
0.0
 10
70.968423
 20
138.752083
 30
0.0
 10
71.499793
 20
135.336730
 30
0.0
 10
71.964045
 20
133.604922
 30
0.0
 10
72.588347
 20
131.862037
 30
0.0
 10
73.393455
 20
130.111834
 30
0.0
 10
74.400122
 20
128.358070
 30
0.0
 10
78.405482
 20
122.886938
 30
0.0
 10
84.965661
 20
114.968026
 30
0.0
 10
88.735779
 20
110.783139
 30
0.0
 10
92.582970
 20
106.817291
 30
0.0
 10
96.320021
 20
103.347477
 30
0.0
 10
99.759722
 20
100.650690
 30
0.0
 10
102.855661
 20
103.393148
 30
0.0
 10
106.400484
 20
106.849841
 30
0.0
 10
113.960902
 20
114.888173
 30
0.0
 10
120.689219
 20
122.730165
 30
0.0
 10
123.193916
 20
125.941435
 30
0.0
 10
124.833680
 20
128.340300
 30
0.0
 10
126.727625
 20
132.032584
 30
0.0
 10
127.945104
 20
135.522299
 30
0.0
 10
128.595431
 20
138.875887
 30
0.0
 10
128.787920
 20
142.159790
 30
0.0
 10
128.710680
 20
143.785230
 30
0.0
 10
128.481816
 20
145.383139
 30
0.0
 10
128.105617
 20
146.942733
 30
0.0
 10
127.586370
 20
148.453229
 30
0.0
 10
126.928361
 20
149.903842
 30
0.0
 10
126.135879
 20
151.283789
 30
0.0
 10
125.213209
 20
152.582286
 30
0.0
 10
124.164640
 20
153.788550
 30
0.0
 10
123.006832
 20
154.881004
 30
0.0
 10
121.760497
 20
155.842291
 30
0.0
 10
120.435984
 20
156.667944
 30
0.0
 10
119.043644
 20
157.353496
 30
0.0
 10
117.593827
 20
157.894481
 30
0.0
 10
116.096884
 20
158.286431
 30
0.0
 10
114.563165
 20
158.524879
 30
0.0
 10
113.003020
 20
158.605360
 30
0.0
  0
ENDSEC
  0
SECTION
  2
OBJECTS
  0
DICTIONARY
  5
C
330
0
100
AcDbDictionary
  3
ACAD_GROUP
350
D
  3
ACAD_MLINESTYLE
350
17
  0
DICTIONARY
  5
D
330
C
100
AcDbDictionary
  0
DICTIONARY
  5
1A
330
C
100
AcDbDictionary
  0
DICTIONARY
  5
17
330
C
100
AcDbDictionary
  3
STANDARD
350
18
  0
DICTIONARY
  5
19
330
C
100
AcDbDictionary
  0
ENDSEC
  0
EOF
