  0
SECTION
  2
HEADER
  9
$ACADVER
  1
AC1014
  9
$HANDSEED
  5
FFFF
  9
$MEASUREMENT
 70
     1
  0
ENDSEC
  0
SECTION
  2
TABLES
  0
TABLE
  2
VPORT
  5
8
330
0
100
AcDbSymbolTable
 70
     4
  0
VPORT
  5
2E
330
8
100
AcDbSymbolTableRecord
100
AcDbViewportTableRecord
  2
*ACTIVE
 70
     0
 10
0.0
 20
0.0
 11
1.0
 21
1.0
 12
210.0
 22
148.5
 13
0.0
 23
0.0
 14
10.0
 24
10.0
 15
10.0
 25
10.0
 16
0.0
 26
0.0
 36
1.0
 17
0.0
 27
0.0
 37
0.0
 40
341.0
 41
1.24
 42
50.0
 43
0.0
 44
0.0
 50
0.0
 51
0.0
 71
     0
 72
   100
 73
     1
 74
     3
 75
     0
 76
     0
 77
     0
 78
     0
  0
ENDTAB
  0
TABLE
  2
LTYPE
  5
5
330
0
100
AcDbSymbolTable
 70
     1
  0
LTYPE
  5
14
330
5
100
AcDbSymbolTableRecord
100
AcDbLinetypeTableRecord
  2
BYBLOCK
 70
     0
  3

 72
    65
 73
     0
 40
0.0
  0
LTYPE
  5
15
330
5
100
AcDbSymbolTableRecord
100
AcDbLinetypeTableRecord
  2
BYLAYER
 70
     0
  3

 72
    65
 73
     0
 40
0.0
  0
LTYPE
  5
16
330
5
100
AcDbSymbolTableRecord
100
AcDbLinetypeTableRecord
  2
CONTINUOUS
 70
     0
  3
Solid line
 72
    65
 73
     0
 40
0.0
  0
ENDTAB
  0
TABLE
  2
LAYER
  5
2
100
AcDbSymbolTable
 70
3
  0
LAYER
  5
50
100
AcDbSymbolTableRecord
100
AcDbLayerTableRecord
  2
0
 70
0
  6
CONTINUOUS
  0
LAYER
  5
51
100
AcDbSymbolTableRecord
100
AcDbLayerTableRecord
  2
Layer_1
 70
0
  6
CONTINUOUS
  0
LAYER
  5
52
100
AcDbSymbolTableRecord
100
AcDbLayerTableRecord
  2
Layer_2
 70
0
  6
CONTINUOUS
  0
ENDTAB
  0
TABLE
  2
STYLE
  5
3
330
0
100
AcDbSymbolTable
 70
     1
  0
STYLE
  5
11
330
3
100
AcDbSymbolTableRecord
100
AcDbTextStyleTableRecord
  2
STANDARD
 70
     0
 40
0.0
 41
1.0
 50
0.0
 71
     0
 42
2.5
  3
txt
  4

  0
ENDTAB
  0
TABLE
  2
VIEW
  5
6
330
0
100
AcDbSymbolTable
 70
     0
  0
ENDTAB
  0
TABLE
  2
UCS
  5
7
330
0
100
AcDbSymbolTable
 70
     0
  0
ENDTAB
  0
TABLE
  2
APPID
  5
9
330
0
100
AcDbSymbolTable
 70
     2
  0
APPID
  5
12
330
9
100
AcDbSymbolTableRecord
100
AcDbRegAppTableRecord
  2
ACAD
 70
     0
  0
ENDTAB
  0
TABLE
  2
DIMSTYLE
  5
A
330
0
100
AcDbSymbolTable
 70
     1
  0
DIMSTYLE
105
27
330
A
100
AcDbSymbolTableRecord
100
AcDbDimStyleTableRecord
  2
ISO-25
 70
     0
  3

  4

  5

  6

  7

 40
1.0
 41
2.5
 42
0.625
 43
3.75
 44
1.25
 45
0.0
 46
0.0
 47
0.0
 48
0.0
140
2.5
141
2.5
142
0.0
143
0.03937007874016
144
1.0
145
0.0
146
1.0
147
0.625
 71
     0
 72
     0
 73
     0
 74
     0
 75
     0
 76
     0
 77
     1
 78
     8
170
     0
171
     3
172
     1
173
     0
174
     0
175
     0
176
     0
177
     0
178
     0
270
     2
271
     2
272
     2
273
     2
274
     3
340
11
275
     0
280
     0
281
     0
282
     0
283
     0
284
     8
285
     0
286
     0
287
     3
288
     0
  0
ENDTAB
  0
TABLE
  2
BLOCK_RECORD
  5
1
330
0
100
AcDbSymbolTable
 70
     1
  0
BLOCK_RECORD
  5
1F
330
1
100
AcDbSymbolTableRecord
100
AcDbBlockTableRecord
  2
*MODEL_SPACE
  0
BLOCK_RECORD
  5
1B
330
1
100
AcDbSymbolTableRecord
100
AcDbBlockTableRecord
  2
*PAPER_SPACE
  0
ENDTAB
  0
ENDSEC
  0
SECTION
  2
BLOCKS
  0
BLOCK
  5
20
330
1F
100
AcDbEntity
  8
0
100
AcDbBlockBegin
  2
*MODEL_SPACE
 70
     0
 10
0.0
 20
0.0
 30
0.0
  3
*MODEL_SPACE
  1

  0
ENDBLK
  5
21
330
1F
100
AcDbEntity
  8
0
100
AcDbBlockEnd
  0
BLOCK
  5
1C
330
1B
100
AcDbEntity
 67
     1
  8
0
100
AcDbBlockBegin
  2
*PAPER_SPACE
  1

  0
ENDBLK
  5
1D
330
1B
100
AcDbEntity
 67
     1
  8
0
100
AcDbBlockEnd
  0
ENDSEC
  0
SECTION
  2
ENTITIES
  0
LWPOLYLINE
  5
100
100
AcDbEntity
  8
Layer_2
 62
7
100
AcDbPolyline
 90
96
 70
1
 10
104.183400
 20
171.732840
 30
0.0
 10
103.366570
 20
172.924300
 30
0.0
 10
102.513910
 20
173.996960
 30
0.0
 10
101.631370
 20
174.956600
 30
0.0
 10
100.724910
 20
175.809020
 30
0.0
 10
99.800489
 20
176.560000
 30
0.0
 10
98.864052
 20
177.215340
 30
0.0
 10
97.921554
 20
177.780800
 30
0.0
 10
96.978949
 20
178.262190
 30
0.0
 10
96.042190
 20
178.665300
 30
0.0
 10
95.117232
 20
178.995900
 30
0.0
 10
94.210027
 20
179.259790
 30
0.0
 10
93.326530
 20
179.462750
 30
0.0
 10
92.472693
 20
179.610580
 30
0.0
 10
91.654470
 20
179.709080
 30
0.0
 10
90.877814
 20
179.763980
 30
0.0
 10
90.148680
 20
179.781080
 30
0.0
 10
88.628704
 20
179.668960
 30
0.0
 10
87.137554
 20
179.345070
 30
0.0
 10
85.684551
 20
178.829300
 30
0.0
 10
84.279013
 20
178.141530
 30
0.0
 10
82.930262
 20
177.301630
 30
0.0
 10
81.647617
 20
176.329480
 30
0.0
 10
80.440398
 20
175.244950
 30
0.0
 10
79.317925
 20
174.067940
 30
0.0
 10
78.289518
 20
172.818300
 30
0.0
 10
77.364497
 20
171.515930
 30
0.0
 10
76.552181
 20
170.180700
 30
0.0
 10
75.861892
 20
168.832490
 30
0.0
 10
75.302948
 20
167.491170
 30
0.0
 10
74.884669
 20
166.176630
 30
0.0
 10
74.616377
 20
164.908730
 30
0.0
 10
74.507390
 20
163.707370
 30
0.0
 10
74.764677
 20
160.359340
 30
0.0
 10
75.628327
 20
156.873520
 30
0.0
 10
77.014986
 20
153.298510
 30
0.0
 10
78.841295
 20
149.682890
 30
0.0
 10
81.023897
 20
146.075270
 30
0.0
 10
83.479435
 20
142.524220
 30
0.0
 10
86.124553
 20
139.078340
 30
0.0
 10
88.875894
 20
135.786230
 30
0.0
 10
91.650099
 20
132.696460
 30
0.0
 10
94.363813
 20
129.857640
 30
0.0
 10
96.933679
 20
127.318340
 30
0.0
 10
99.276338
 20
125.127170
 30
0.0
 10
101.308440
 20
123.332710
 30
0.0
 10
102.946610
 20
121.983560
 30
0.0
 10
104.107510
 20
121.128300
 30
0.0
 10
104.707780
 20
120.815530
 30
0.0
 10
105.286130
 20
121.095430
 30
0.0
 10
106.385650
 20
121.949360
 30
0.0
 10
107.929470
 20
123.322670
 30
0.0
 10
109.840770
 20
125.160730
 30
0.0
 10
112.042700
 20
127.408870
 30
0.0
 10
114.458420
 20
130.012470
 30
0.0
 10
117.011090
 20
132.916860
 30
0.0
 10
119.623870
 20
136.067410
 30
0.0
 10
122.219910
 20
139.409460
 30
0.0
 10
124.722380
 20
142.888380
 30
0.0
 10
127.054420
 20
146.449520
 30
0.0
 10
129.139210
 20
150.038220
 30
0.0
 10
130.899900
 20
153.599840
 30
0.0
 10
132.259640
 20
157.079750
 30
0.0
 10
133.141600
 20
160.423280
 30
0.0
 10
133.468930
 20
163.575800
 30
0.0
 10
133.371330
 20
165.164440
 30
0.0
 10
133.065120
 20
166.716950
 30
0.0
 10
132.568680
 20
168.223990
 30
0.0
 10
131.900440
 20
169.676200
 30
0.0
 10
131.078810
 20
171.064230
 30
0.0
 10
130.122200
 20
172.378740
 30
0.0
 10
129.049040
 20
173.610380
 30
0.0
 10
127.877730
 20
174.749790
 30
0.0
 10
126.626690
 20
175.787620
 30
0.0
 10
125.314340
 20
176.714530
 30
0.0
 10
123.959090
 20
177.521160
 30
0.0
 10
122.579370
 20
178.198160
 30
0.0
 10
121.193570
 20
178.736190
 30
0.0
 10
119.820130
 20
179.125900
 30
0.0
 10
118.477450
 20
179.357930
 30
0.0
 10
117.183950
 20
179.422930
 30
0.0
 10
115.606340
 20
179.312050
 30
0.0
 10
114.131150
 20
179.049780
 30
0.0
 10
112.758290
 20
178.658000
 30
0.0
 10
111.487690
 20
178.158580
 30
0.0
 10
110.319240
 20
177.573410
 30
0.0
 10
109.252860
 20
176.924350
 30
0.0
 10
108.288460
 20
176.233280
 30
0.0
 10
107.425950
 20
175.522080
 30
0.0
 10
106.665250
 20
174.812630
 30
0.0
 10
106.006260
 20
174.126790
 30
0.0
 10
105.448900
 20
173.486450
 30
0.0
 10
104.993080
 20
172.913480
 30
0.0
 10
104.638700
 20
172.429750
 30
0.0
 10
104.385690
 20
172.057150
 30
0.0
 10
104.233940
 20
171.817550
 30
0.0
  0
ENDSEC
  0
SECTION
  2
OBJECTS
  0
DICTIONARY
  5
C
330
0
100
AcDbDictionary
  3
ACAD_GROUP
350
D
  3
ACAD_MLINESTYLE
350
17
  0
DICTIONARY
  5
D
330
C
100
AcDbDictionary
  0
DICTIONARY
  5
1A
330
C
100
AcDbDictionary
  0
DICTIONARY
  5
17
330
C
100
AcDbDictionary
  3
STANDARD
350
18
  0
DICTIONARY
  5
19
330
C
100
AcDbDictionary
  0
ENDSEC
  0
EOF
