  0
SECTION
  2
HEADER
  9
$ACADVER
  1
AC1014
  9
$HANDSEED
  5
FFFF
  9
$MEASUREMENT
 70
     1
  0
ENDSEC
  0
SECTION
  2
TABLES
  0
TABLE
  2
VPORT
  5
8
330
0
100
AcDbSymbolTable
 70
     4
  0
VPORT
  5
2E
330
8
100
AcDbSymbolTableRecord
100
AcDbViewportTableRecord
  2
*ACTIVE
 70
     0
 10
0.0
 20
0.0
 11
1.0
 21
1.0
 12
210.0
 22
148.5
 13
0.0
 23
0.0
 14
10.0
 24
10.0
 15
10.0
 25
10.0
 16
0.0
 26
0.0
 36
1.0
 17
0.0
 27
0.0
 37
0.0
 40
341.0
 41
1.24
 42
50.0
 43
0.0
 44
0.0
 50
0.0
 51
0.0
 71
     0
 72
   100
 73
     1
 74
     3
 75
     0
 76
     0
 77
     0
 78
     0
  0
ENDTAB
  0
TABLE
  2
LTYPE
  5
5
330
0
100
AcDbSymbolTable
 70
     1
  0
LTYPE
  5
14
330
5
100
AcDbSymbolTableRecord
100
AcDbLinetypeTableRecord
  2
BYBLOCK
 70
     0
  3

 72
    65
 73
     0
 40
0.0
  0
LTYPE
  5
15
330
5
100
AcDbSymbolTableRecord
100
AcDbLinetypeTableRecord
  2
BYLAYER
 70
     0
  3

 72
    65
 73
     0
 40
0.0
  0
LTYPE
  5
16
330
5
100
AcDbSymbolTableRecord
100
AcDbLinetypeTableRecord
  2
CONTINUOUS
 70
     0
  3
Solid line
 72
    65
 73
     0
 40
0.0
  0
ENDTAB
  0
TABLE
  2
LAYER
  5
2
100
AcDbSymbolTable
 70
4
  0
LAYER
  5
50
100
AcDbSymbolTableRecord
100
AcDbLayerTableRecord
  2
0
 70
0
  6
CONTINUOUS
  0
LAYER
  5
51
100
AcDbSymbolTableRecord
100
AcDbLayerTableRecord
  2
Layer_1
 70
0
  6
CONTINUOUS
  0
LAYER
  5
52
100
AcDbSymbolTableRecord
100
AcDbLayerTableRecord
  2
Layer_2
 70
0
  6
CONTINUOUS
  0
LAYER
  5
53
100
AcDbSymbolTableRecord
100
AcDbLayerTableRecord
  2
Layer_3
 70
0
  6
CONTINUOUS
  0
ENDTAB
  0
TABLE
  2
STYLE
  5
3
330
0
100
AcDbSymbolTable
 70
     1
  0
STYLE
  5
11
330
3
100
AcDbSymbolTableRecord
100
AcDbTextStyleTableRecord
  2
STANDARD
 70
     0
 40
0.0
 41
1.0
 50
0.0
 71
     0
 42
2.5
  3
txt
  4

  0
ENDTAB
  0
TABLE
  2
VIEW
  5
6
330
0
100
AcDbSymbolTable
 70
     0
  0
ENDTAB
  0
TABLE
  2
UCS
  5
7
330
0
100
AcDbSymbolTable
 70
     0
  0
ENDTAB
  0
TABLE
  2
APPID
  5
9
330
0
100
AcDbSymbolTable
 70
     2
  0
APPID
  5
12
330
9
100
AcDbSymbolTableRecord
100
AcDbRegAppTableRecord
  2
ACAD
 70
     0
  0
ENDTAB
  0
TABLE
  2
DIMSTYLE
  5
A
330
0
100
AcDbSymbolTable
 70
     1
  0
DIMSTYLE
105
27
330
A
100
AcDbSymbolTableRecord
100
AcDbDimStyleTableRecord
  2
ISO-25
 70
     0
  3

  4

  5

  6

  7

 40
1.0
 41
2.5
 42
0.625
 43
3.75
 44
1.25
 45
0.0
 46
0.0
 47
0.0
 48
0.0
140
2.5
141
2.5
142
0.0
143
0.03937007874016
144
1.0
145
0.0
146
1.0
147
0.625
 71
     0
 72
     0
 73
     0
 74
     0
 75
     0
 76
     0
 77
     1
 78
     8
170
     0
171
     3
172
     1
173
     0
174
     0
175
     0
176
     0
177
     0
178
     0
270
     2
271
     2
272
     2
273
     2
274
     3
340
11
275
     0
280
     0
281
     0
282
     0
283
     0
284
     8
285
     0
286
     0
287
     3
288
     0
  0
ENDTAB
  0
TABLE
  2
BLOCK_RECORD
  5
1
330
0
100
AcDbSymbolTable
 70
     1
  0
BLOCK_RECORD
  5
1F
330
1
100
AcDbSymbolTableRecord
100
AcDbBlockTableRecord
  2
*MODEL_SPACE
  0
BLOCK_RECORD
  5
1B
330
1
100
AcDbSymbolTableRecord
100
AcDbBlockTableRecord
  2
*PAPER_SPACE
  0
ENDTAB
  0
ENDSEC
  0
SECTION
  2
BLOCKS
  0
BLOCK
  5
20
330
1F
100
AcDbEntity
  8
0
100
AcDbBlockBegin
  2
*MODEL_SPACE
 70
     0
 10
0.0
 20
0.0
 30
0.0
  3
*MODEL_SPACE
  1

  0
ENDBLK
  5
21
330
1F
100
AcDbEntity
  8
0
100
AcDbBlockEnd
  0
BLOCK
  5
1C
330
1B
100
AcDbEntity
 67
     1
  8
0
100
AcDbBlockBegin
  2
*PAPER_SPACE
  1

  0
ENDBLK
  5
1D
330
1B
100
AcDbEntity
 67
     1
  8
0
100
AcDbBlockEnd
  0
ENDSEC
  0
SECTION
  2
ENTITIES
  0
LWPOLYLINE
  5
100
100
AcDbEntity
  8
Layer_2
 62
7
100
AcDbPolyline
 90
88
 70
1
 10
90.148680
 20
179.781100
 30
0.0
 10
89.086588
 20
179.726200
 30
0.0
 10
88.037129
 20
179.565500
 30
0.0
 10
87.003460
 20
179.305730
 30
0.0
 10
85.988737
 20
178.953600
 30
0.0
 10
84.996117
 20
178.515860
 30
0.0
 10
84.028755
 20
177.999230
 30
0.0
 10
83.089809
 20
177.410460
 30
0.0
 10
82.182434
 20
176.756260
 30
0.0
 10
80.581865
 20
175.381210
 30
0.0
 10
79.123260
 20
173.845060
 30
0.0
 10
77.827235
 20
172.191780
 30
0.0
 10
76.714408
 20
170.465340
 30
0.0
 10
75.805393
 20
168.709710
 30
0.0
 10
75.120807
 20
166.968860
 30
0.0
 10
74.681268
 20
165.286760
 30
0.0
 10
74.507390
 20
163.707380
 30
0.0
 10
74.764674
 20
160.359350
 30
0.0
 10
75.628324
 20
156.873530
 30
0.0
 10
77.014981
 20
153.298520
 30
0.0
 10
78.841289
 20
149.682900
 30
0.0
 10
81.023891
 20
146.075280
 30
0.0
 10
83.479430
 20
142.524230
 30
0.0
 10
86.124548
 20
139.078360
 30
0.0
 10
88.875889
 20
135.786240
 30
0.0
 10
91.650095
 20
132.696470
 30
0.0
 10
94.363810
 20
129.857650
 30
0.0
 10
96.933676
 20
127.318350
 30
0.0
 10
99.276336
 20
125.127180
 30
0.0
 10
101.308430
 20
123.332720
 30
0.0
 10
102.946610
 20
121.983570
 30
0.0
 10
104.107510
 20
121.128310
 30
0.0
 10
104.707780
 20
120.815540
 30
0.0
 10
105.286130
 20
121.095440
 30
0.0
 10
106.385650
 20
121.949370
 30
0.0
 10
107.929470
 20
123.322680
 30
0.0
 10
109.840770
 20
125.160740
 30
0.0
 10
112.042700
 20
127.408880
 30
0.0
 10
114.458420
 20
130.012480
 30
0.0
 10
117.011090
 20
132.916870
 30
0.0
 10
119.623870
 20
136.067420
 30
0.0
 10
122.219910
 20
139.409470
 30
0.0
 10
124.722380
 20
142.888390
 30
0.0
 10
127.054420
 20
146.449530
 30
0.0
 10
129.139210
 20
150.038230
 30
0.0
 10
130.899900
 20
153.599850
 30
0.0
 10
132.259640
 20
157.079760
 30
0.0
 10
133.141600
 20
160.423290
 30
0.0
 10
133.468930
 20
163.575810
 30
0.0
 10
133.065140
 20
166.731030
 30
0.0
 10
131.900460
 20
169.727370
 30
0.0
 10
130.122220
 20
172.482350
 30
0.0
 10
127.877750
 20
174.913500
 30
0.0
 10
125.314360
 20
176.938350
 30
0.0
 10
122.579390
 20
178.474430
 30
0.0
 10
119.820150
 20
179.439250
 30
0.0
 10
117.183970
 20
179.750350
 30
0.0
 10
114.246020
 20
179.446850
 30
0.0
 10
111.899700
 20
178.726470
 30
0.0
 10
110.073120
 20
177.707020
 30
0.0
 10
108.694430
 20
176.506290
 30
0.0
 10
107.691760
 20
175.242080
 30
0.0
 10
106.993240
 20
174.032200
 30
0.0
 10
106.527010
 20
172.994450
 30
0.0
 10
106.221190
 20
172.246630
 30
0.0
 10
105.851210
 20
171.564770
 30
0.0
 10
105.439610
 20
171.081680
 30
0.0
 10
104.995320
 20
170.795640
 30
0.0
 10
104.527260
 20
170.704940
 30
0.0
 10
104.044360
 20
170.807940
 30
0.0
 10
103.555550
 20
171.102910
 30
0.0
 10
103.069750
 20
171.588160
 30
0.0
 10
102.595900
 20
172.262000
 30
0.0
 10
101.037050
 20
174.529720
 30
0.0
 10
99.447809
 20
176.294210
 30
0.0
 10
97.843793
 20
177.617380
 30
0.0
 10
96.240620
 20
178.561180
 30
0.0
 10
94.653905
 20
179.187520
 30
0.0
 10
93.099266
 20
179.558330
 30
0.0
 10
91.592319
 20
179.735540
 30
0.0
 10
90.148680
 20
179.781140
 30
0.0
 10
90.148677
 20
179.781140
 30
0.0
 10
90.148676
 20
179.781140
 30
0.0
 10
90.148676
 20
179.781130
 30
0.0
 10
90.148676
 20
179.781130
 30
0.0
 10
90.148677
 20
179.781120
 30
0.0
 10
90.148679
 20
179.781110
 30
0.0
 10
90.148680
 20
179.781110
 30
0.0
  0
ENDSEC
  0
SECTION
  2
OBJECTS
  0
DICTIONARY
  5
C
330
0
100
AcDbDictionary
  3
ACAD_GROUP
350
D
  3
ACAD_MLINESTYLE
350
17
  0
DICTIONARY
  5
D
330
C
100
AcDbDictionary
  0
DICTIONARY
  5
1A
330
C
100
AcDbDictionary
  0
DICTIONARY
  5
17
330
C
100
AcDbDictionary
  3
STANDARD
350
18
  0
DICTIONARY
  5
19
330
C
100
AcDbDictionary
  0
ENDSEC
  0
EOF
