  0
SECTION
  2
HEADER
  9
$ACADVER
  1
AC1014
  9
$HANDSEED
  5
FFFF
  9
$MEASUREMENT
 70
     1
  0
ENDSEC
  0
SECTION
  2
TABLES
  0
TABLE
  2
VPORT
  5
8
330
0
100
AcDbSymbolTable
 70
     4
  0
VPORT
  5
2E
330
8
100
AcDbSymbolTableRecord
100
AcDbViewportTableRecord
  2
*ACTIVE
 70
     0
 10
0.0
 20
0.0
 11
1.0
 21
1.0
 12
210.0
 22
148.5
 13
0.0
 23
0.0
 14
10.0
 24
10.0
 15
10.0
 25
10.0
 16
0.0
 26
0.0
 36
1.0
 17
0.0
 27
0.0
 37
0.0
 40
341.0
 41
1.24
 42
50.0
 43
0.0
 44
0.0
 50
0.0
 51
0.0
 71
     0
 72
   100
 73
     1
 74
     3
 75
     0
 76
     0
 77
     0
 78
     0
  0
ENDTAB
  0
TABLE
  2
LTYPE
  5
5
330
0
100
AcDbSymbolTable
 70
     1
  0
LTYPE
  5
14
330
5
100
AcDbSymbolTableRecord
100
AcDbLinetypeTableRecord
  2
BYBLOCK
 70
     0
  3

 72
    65
 73
     0
 40
0.0
  0
LTYPE
  5
15
330
5
100
AcDbSymbolTableRecord
100
AcDbLinetypeTableRecord
  2
BYLAYER
 70
     0
  3

 72
    65
 73
     0
 40
0.0
  0
LTYPE
  5
16
330
5
100
AcDbSymbolTableRecord
100
AcDbLinetypeTableRecord
  2
CONTINUOUS
 70
     0
  3
Solid line
 72
    65
 73
     0
 40
0.0
  0
ENDTAB
  0
TABLE
  2
LAYER
  5
2
100
AcDbSymbolTable
 70
4
  0
LAYER
  5
50
100
AcDbSymbolTableRecord
100
AcDbLayerTableRecord
  2
0
 70
0
  6
CONTINUOUS
  0
LAYER
  5
51
100
AcDbSymbolTableRecord
100
AcDbLayerTableRecord
  2
Layer_1
 70
0
  6
CONTINUOUS
  0
LAYER
  5
52
100
AcDbSymbolTableRecord
100
AcDbLayerTableRecord
  2
jpg
 70
0
  6
CONTINUOUS
  0
LAYER
  5
53
100
AcDbSymbolTableRecord
100
AcDbLayerTableRecord
  2
path
 70
0
  6
CONTINUOUS
  0
ENDTAB
  0
TABLE
  2
STYLE
  5
3
330
0
100
AcDbSymbolTable
 70
     1
  0
STYLE
  5
11
330
3
100
AcDbSymbolTableRecord
100
AcDbTextStyleTableRecord
  2
STANDARD
 70
     0
 40
0.0
 41
1.0
 50
0.0
 71
     0
 42
2.5
  3
txt
  4

  0
ENDTAB
  0
TABLE
  2
VIEW
  5
6
330
0
100
AcDbSymbolTable
 70
     0
  0
ENDTAB
  0
TABLE
  2
UCS
  5
7
330
0
100
AcDbSymbolTable
 70
     0
  0
ENDTAB
  0
TABLE
  2
APPID
  5
9
330
0
100
AcDbSymbolTable
 70
     2
  0
APPID
  5
12
330
9
100
AcDbSymbolTableRecord
100
AcDbRegAppTableRecord
  2
ACAD
 70
     0
  0
ENDTAB
  0
TABLE
  2
DIMSTYLE
  5
A
330
0
100
AcDbSymbolTable
 70
     1
  0
DIMSTYLE
105
27
330
A
100
AcDbSymbolTableRecord
100
AcDbDimStyleTableRecord
  2
ISO-25
 70
     0
  3

  4

  5

  6

  7

 40
1.0
 41
2.5
 42
0.625
 43
3.75
 44
1.25
 45
0.0
 46
0.0
 47
0.0
 48
0.0
140
2.5
141
2.5
142
0.0
143
0.03937007874016
144
1.0
145
0.0
146
1.0
147
0.625
 71
     0
 72
     0
 73
     0
 74
     0
 75
     0
 76
     0
 77
     1
 78
     8
170
     0
171
     3
172
     1
173
     0
174
     0
175
     0
176
     0
177
     0
178
     0
270
     2
271
     2
272
     2
273
     2
274
     3
340
11
275
     0
280
     0
281
     0
282
     0
283
     0
284
     8
285
     0
286
     0
287
     3
288
     0
  0
ENDTAB
  0
TABLE
  2
BLOCK_RECORD
  5
1
330
0
100
AcDbSymbolTable
 70
     1
  0
BLOCK_RECORD
  5
1F
330
1
100
AcDbSymbolTableRecord
100
AcDbBlockTableRecord
  2
*MODEL_SPACE
  0
BLOCK_RECORD
  5
1B
330
1
100
AcDbSymbolTableRecord
100
AcDbBlockTableRecord
  2
*PAPER_SPACE
  0
ENDTAB
  0
ENDSEC
  0
SECTION
  2
BLOCKS
  0
BLOCK
  5
20
330
1F
100
AcDbEntity
  8
0
100
AcDbBlockBegin
  2
*MODEL_SPACE
 70
     0
 10
0.0
 20
0.0
 30
0.0
  3
*MODEL_SPACE
  1

  0
ENDBLK
  5
21
330
1F
100
AcDbEntity
  8
0
100
AcDbBlockEnd
  0
BLOCK
  5
1C
330
1B
100
AcDbEntity
 67
     1
  8
0
100
AcDbBlockBegin
  2
*PAPER_SPACE
  1

  0
ENDBLK
  5
1D
330
1B
100
AcDbEntity
 67
     1
  8
0
100
AcDbBlockEnd
  0
ENDSEC
  0
SECTION
  2
ENTITIES
  0
LWPOLYLINE
  5
100
100
AcDbEntity
  8
path
 62
7
100
AcDbPolyline
 90
81
 70
1
 10
117.918890
 20
133.979580
 30
0.0
 10
115.904158
 20
133.846421
 30
0.0
 10
113.944400
 20
133.458270
 30
0.0
 10
112.059885
 20
132.827033
 30
0.0
 10
110.270860
 20
131.963940
 30
0.0
 10
108.597579
 20
130.880371
 30
0.0
 10
107.060310
 20
129.587710
 30
0.0
 10
105.747350
 20
128.097360
 30
0.0
 10
105.111976
 20
126.889650
 30
0.0
 10
104.867120
 20
126.544733
 30
0.0
 10
104.474810
 20
126.420720
 30
0.0
 10
104.083784
 20
126.546226
 30
0.0
 10
103.838095
 20
126.895249
 30
0.0
 10
103.200150
 20
128.080860
 30
0.0
 10
101.887900
 20
129.555960
 30
0.0
 10
100.353879
 20
130.834885
 30
0.0
 10
98.686081
 20
131.906480
 30
0.0
 10
96.904466
 20
132.759625
 30
0.0
 10
95.028981
 20
133.383180
 30
0.0
 10
93.079584
 20
133.766005
 30
0.0
 10
91.076240
 20
133.896980
 30
0.0
 10
89.489316
 20
133.815675
 30
0.0
 10
87.929271
 20
133.574769
 30
0.0
 10
86.406634
 20
133.178773
 30
0.0
 10
84.931934
 20
132.632201
 30
0.0
 10
83.515698
 20
131.939565
 30
0.0
 10
82.168455
 20
131.105378
 30
0.0
 10
80.900732
 20
130.134152
 30
0.0
 10
79.723058
 20
129.030400
 30
0.0
 10
78.656490
 20
127.811670
 30
0.0
 10
77.717983
 20
126.499752
 30
0.0
 10
76.911897
 20
125.105540
 30
0.0
 10
76.242593
 20
123.639931
 30
0.0
 10
75.714433
 20
122.113820
 30
0.0
 10
75.331776
 20
120.538103
 30
0.0
 10
75.098983
 20
118.923674
 30
0.0
 10
75.020417
 20
117.281430
 30
0.0
 10
75.101525
 20
113.977698
 30
0.0
 10
75.539473
 20
110.621361
 30
0.0
 10
75.983492
 20
108.897589
 30
0.0
 10
76.626196
 20
107.129614
 30
0.0
 10
77.504077
 20
105.307085
 30
0.0
 10
78.653627
 20
103.419650
 30
0.0
 10
82.894651
 20
97.517826
 30
0.0
 10
86.013581
 20
93.491327
 30
0.0
 10
89.588309
 20
89.161786
 30
0.0
 10
93.461478
 20
84.839716
 30
0.0
 10
97.475727
 20
80.835628
 30
0.0
 10
101.473697
 20
77.460035
 30
0.0
 10
103.417403
 20
76.104960
 30
0.0
 10
105.298030
 20
75.023450
 30
0.0
 10
108.582050
 20
77.456664
 30
0.0
 10
112.070368
 20
80.642147
 30
0.0
 10
115.631951
 20
84.362918
 30
0.0
 10
119.135760
 20
88.401995
 30
0.0
 10
122.450761
 20
92.542395
 30
0.0
 10
125.445917
 20
96.567135
 30
0.0
 10
127.990192
 20
100.259234
 30
0.0
 10
129.952550
 20
103.401710
 30
0.0
 10
132.412191
 20
108.108384
 30
0.0
 10
133.132652
 20
109.933338
 30
0.0
 10
133.591316
 20
111.525695
 30
0.0
 10
133.846515
 20
112.975200
 30
0.0
 10
133.956581
 20
114.371596
 30
0.0
 10
133.974640
 20
117.364040
 30
0.0
 10
133.896077
 20
119.006277
 30
0.0
 10
133.663289
 20
120.620698
 30
0.0
 10
133.280636
 20
122.196409
 30
0.0
 10
132.752479
 20
123.722515
 30
0.0
 10
132.083179
 20
125.188120
 30
0.0
 10
131.277097
 20
126.582329
 30
0.0
 10
130.338593
 20
127.894248
 30
0.0
 10
129.272030
 20
129.112980
 30
0.0
 10
128.094357
 20
130.216727
 30
0.0
 10
126.826637
 20
131.187952
 30
0.0
 10
125.479398
 20
132.022140
 30
0.0
 10
124.063168
 20
132.714780
 30
0.0
 10
122.588474
 20
133.261357
 30
0.0
 10
121.065844
 20
133.657358
 30
0.0
 10
119.505807
 20
133.898271
 30
0.0
 10
117.918890
 20
133.979580
 30
0.0
  0
ENDSEC
  0
SECTION
  2
OBJECTS
  0
DICTIONARY
  5
C
330
0
100
AcDbDictionary
  3
ACAD_GROUP
350
D
  3
ACAD_MLINESTYLE
350
17
  0
DICTIONARY
  5
D
330
C
100
AcDbDictionary
  0
DICTIONARY
  5
1A
330
C
100
AcDbDictionary
  0
DICTIONARY
  5
17
330
C
100
AcDbDictionary
  3
STANDARD
350
18
  0
DICTIONARY
  5
19
330
C
100
AcDbDictionary
  0
ENDSEC
  0
EOF
