999
dxfrw 0.6.3
  0
SECTION
  2
HEADER
  9
$ACADVER
  1
AC1021
  9
$DWGCODEPAGE
  3
ANSI_1252
  9
$INSBASE
 10
0
 20
0
 30
0
  9
$EXTMIN
 10
323.2362839680903
 20
403.3713193097651
 30
0
  9
$EXTMAX
 10
417.3513108585619
 20
524.3536284194653
 30
0
  9
$LIMMIN
 10
0
 20
0
  9
$LIMMAX
 10
420
 20
297
  9
$ORTHOMODE
 70
    0
  9
$REGENMODE
 70
    1
  9
$FILLMODE
 70
    1
  9
$QTEXTMODE
 70
    0
  9
$MIRRTEXT
 70
    0
  9
$LTSCALE
 40
1
  9
$ATTMODE
 70
    0
  9
$TEXTSIZE
 40
2.5
  9
$TRACEWID
 40
15.68
  9
$TEXTSTYLE
  7
STANDARD
  9
$CLAYER
  8
LAYER_2
  9
$CELTYPE
  6
BYLAYER
  9
$CECOLOR
 62
  256
  9
$CELTSCALE
 40
1
  9
$DISPSILH
 70
    0
  9
$DIMSCALE
 40
2.5
  9
$DIMASZ
 40
2.5
  9
$DIMEXO
 40
0.625
  9
$DIMDLI
 40
3.75
  9
$DIMRND
 40
0
  9
$DIMDLE
 40
0
  9
$DIMEXE
 40
1.25
  9
$DIMTP
 40
0
  9
$DIMTM
 40
0
  9
$DIMTXT
 40
2.5
  9
$DIMCEN
 40
2.5
  9
$DIMTSZ
 40
0
  9
$DIMTOL
 70
    0
  9
$DIMLIM
 70
    0
  9
$DIMTIH
 70
    0
  9
$DIMTOH
 70
    0
  9
$DIMSE1
 70
    0
  9
$DIMSE2
 70
    0
  9
$DIMTAD
 70
    1
  9
$DIMZIN
 70
    8
  9
$DIMBLK
  1

  9
$DIMASO
 70
    1
  9
$DIMSHO
 70
    1
  9
$DIMPOST
  1

  9
$DIMAPOST
  1

  9
$DIMALT
 70
    0
  9
$DIMALTD
 70
    3
  9
$DIMALTF
 40
0.03937
  9
$DIMLFAC
 40
1
  9
$DIMTOFL
 70
    1
  9
$DIMTVP
 40
0
  9
$DIMTIX
 70
    0
  9
$DIMSOXD
 70
    0
  9
$DIMSAH
 70
    0
  9
$DIMBLK1
  1

  9
$DIMBLK2
  1

  9
$DIMSTYLE
  2
STANDARD
  9
$DIMCLRD
 70
    0
  9
$DIMCLRE
 70
    0
  9
$DIMCLRT
 70
    0
  9
$DIMTFAC
 40
1
  9
$DIMGAP
 40
0.625
  9
$DIMJUST
 70
    0
  9
$DIMSD1
 70
    0
  9
$DIMSD2
 70
    0
  9
$DIMTOLJ
 70
    0
  9
$DIMTZIN
 70
    8
  9
$DIMALTZ
 70
    0
  9
$DIMALTTZ
 70
    0
  9
$DIMUPT
 70
    0
  9
$DIMDEC
 70
    4
  9
$DIMTDEC
 70
    2
  9
$DIMALTU
 70
    2
  9
$DIMALTTD
 70
    3
  9
$DIMTXSTY
  7
STANDARD
  9
$DIMAUNIT
 70
    0
  9
$DIMADEC
 70
    0
  9
$DIMALTRND
 40
0
  9
$DIMAZIN
 70
    0
  9
$DIMDSEP
 70
   44
  9
$DIMATFIT
 70
    3
  9
$DIMFRAC
 70
    0
  9
$DIMLDRBLK
  1
STANDARD
  9
$DIMLUNIT
 70
    2
  9
$DIMLWD
 70
   -2
  9
$DIMLWE
 70
   -2
  9
$DIMTMOVE
 70
    0
  9
$DIMFXL
 40
1
  9
$DIMFXLON
 70
    0
  9
$DIMJOGANG
 40
0.7854
  9
$DIMTFILL
 70
    0
  9
$DIMTFILLCLR
 70
    0
  9
$DIMARCSYM
 70
    0
  9
$DIMLTYPE
  6

  9
$DIMLTEX1
  6

  9
$DIMLTEX2
  6

  9
$LUNITS
 70
    2
  9
$LUPREC
 70
    4
  9
$SKETCHINC
 40
1
  9
$FILLETRAD
 40
0
  9
$AUNITS
 70
    0
  9
$AUPREC
 70
    2
  9
$MENU
  1
.
  9
$ELEVATION
 40
0
  9
$PELEVATION
 40
0
  9
$THICKNESS
 40
0
  9
$LIMCHECK
 70
    0
  9
$CHAMFERA
 40
0
  9
$CHAMFERB
 40
0
  9
$CHAMFERC
 40
0
  9
$CHAMFERD
 40
0
  9
$SKPOLY
 70
    0
  9
$USRTIMER
 70
    1
  9
$ANGBASE
 50
0
  9
$ANGDIR
 70
    0
  9
$PDMODE
 70
   34
  9
$PDSIZE
 40
0
  9
$PLINEWID
 40
0
  9
$SPLFRAME
 70
    0
  9
$SPLINETYPE
 70
    2
  9
$SPLINESEGS
 70
    8
  9
$HANDSEED
  5
20000
  9
$SURFTAB1
 70
    6
  9
$SURFTAB2
 70
    6
  9
$SURFTYPE
 70
    6
  9
$SURFU
 70
    6
  9
$SURFV
 70
    6
  9
$UCSBASE
  2

  9
$UCSNAME
  2

  9
$UCSORG
 10
0
 20
0
 30
0
  9
$UCSXDIR
 10
1
 20
0
 30
0
  9
$UCSYDIR
 10
0
 20
1
 30
0
  9
$UCSORTHOREF
  2

  9
$UCSORTHOVIEW
 70
    0
  9
$UCSORGTOP
 10
0
 20
0
 30
0
  9
$UCSORGBOTTOM
 10
0
 20
0
 30
0
  9
$UCSORGLEFT
 10
0
 20
0
 30
0
  9
$UCSORGRIGHT
 10
0
 20
0
 30
0
  9
$UCSORGFRONT
 10
0
 20
0
 30
0
  9
$UCSORGBACK
 10
0
 20
0
 30
0
  9
$PUCSBASE
  2

  9
$PUCSNAME
  2

  9
$PUCSORG
 10
0
 20
0
 30
0
  9
$PUCSXDIR
 10
1
 20
0
 30
0
  9
$PUCSYDIR
 10
0
 20
1
 30
0
  9
$PUCSORTHOREF
  2

  9
$PUCSORTHOVIEW
 70
    0
  9
$PUCSORGTOP
 10
0
 20
0
 30
0
  9
$PUCSORGBOTTOM
 10
0
 20
0
 30
0
  9
$PUCSORGLEFT
 10
0
 20
0
 30
0
  9
$PUCSORGRIGHT
 10
0
 20
0
 30
0
  9
$PUCSORGFRONT
 10
0
 20
0
 30
0
  9
$PUCSORGBACK
 10
0
 20
0
 30
0
  9
$USERI1
 70
    0
  9
$USERI2
 70
    0
  9
$USERI3
 70
    0
  9
$USERI4
 70
    0
  9
$USERI5
 70
    0
  9
$USERR1
 40
0
  9
$USERR2
 40
0
  9
$USERR3
 40
0
  9
$USERR4
 40
0
  9
$USERR5
 40
0
  9
$WORLDVIEW
 70
    1
  9
$SHADEDGE
 70
    3
  9
$SHADEDIF
 70
   70
  9
$TILEMODE
 70
    1
  9
$MAXACTVP
 70
   64
  9
$PINSBASE
 10
0
 20
0
 30
0
  9
$PLIMCHECK
 70
    0
  9
$PEXTMIN
 10
0
 20
0
 30
0
  9
$PEXTMAX
 10
0
 20
0
 30
0
  9
$GRIDMODE
 70
    0
  9
$SNAPSTYLE
 70
    0
  9
$PLIMMIN
 10
0
 20
0
  9
$PLIMMAX
 10
210
 20
297
  9
$UNITMODE
 70
    0
  9
$VISRETAIN
 70
    1
  9
$PLINEGEN
 70
    0
  9
$PSLTSCALE
 70
    1
  9
$TREEDEPTH
 70
 3020
  9
$CMLSTYLE
  2
Standard
  9
$CMLJUST
 70
    0
  9
$CMLSCALE
 40
20
  9
$PROXYGRAPHICS
 70
    1
  9
$MEASUREMENT
 70
    1
  9
$CELWEIGHT
370
   -1
  9
$ENDCAPS
280
    0
  9
$JOINSTYLE
280
    0
  9
$LWDISPLAY
290
    0
  9
$INSUNITS
 70
    4
  9
$HYPERLINKBASE
  1

  9
$STYLESHEET
  1

  9
$XEDIT
290
    1
  9
$CEPSNTYPE
380
    0
  9
$PSTYLEMODE
290
    1
  9
$EXTNAMES
290
    1
  9
$PSVPSCALE
 40
1
  9
$OLESTARTUP
290
    0
  9
$SORTENTS
280
  127
  9
$INDEXCTL
280
    0
  9
$HIDETEXT
280
    1
  9
$XCLIPFRAME
290
    0
  9
$HALOGAP
280
    0
  9
$OBSCOLOR
 70
  257
  9
$OBSLTYPE
280
    0
  9
$INTERSECTIONDISPLAY
280
    0
  9
$INTERSECTIONCOLOR
 70
  257
  9
$DIMASSOC
280
    1
  9
$PROJECTNAME
  1

  9
$CAMERADISPLAY
290
    0
  9
$LENSLENGTH
 40
50
  9
$CAMERAHEIGHT
 40
0
  9
$STEPSPERSEC
 40
2
  9
$STEPSIZE
 40
50
  9
$3DDWFPREC
 40
2
  9
$PSOLWIDTH
 40
5
  9
$PSOLHEIGHT
 40
80
  9
$LOFTANG1
 40
1.570796326794897
  9
$LOFTANG2
 40
1.570796326794897
  9
$LOFTMAG1
 40
0
  9
$LOFTMAG2
 40
0
  9
$LOFTPARAM
 70
    7
  9
$LOFTNORMALS
280
    1
  9
$LATITUDE
 40
1
  9
$LONGITUDE
 40
1
  9
$NORTHDIRECTION
 40
0
  9
$TIMEZONE
 70
-8000
  9
$LIGHTGLYPHDISPLAY
280
    1
  9
$TILEMODELIGHTSYNCH
280
    1
  9
$SOLIDHIST
280
    1
  9
$SHOWHIST
280
    1
  9
$DWFFRAME
280
    2
  9
$DGNFRAME
280
    0
  9
$REALWORLDSCALE
290
    1
  9
$INTERFERECOLOR
 62
    1
  9
$CSHADOW
280
    0
  9
$SHADOWPLANELOCATION
 40
0
  0
ENDSEC
  0
SECTION
  2
CLASSES
  0
ENDSEC
  0
SECTION
  2
TABLES
  0
TABLE
  2
VPORT
  5
8
330
0
100
AcDbSymbolTable
 70
    1
  0
VPORT
  5
31
330
2
100
AcDbSymbolTableRecord
100
AcDbViewportTableRecord
  2
*ACTIVE
 70
    0
 10
0
 20
0
 11
1
 21
1
 12
266.4845629291163
 22
263.9428906487946
 13
0
 23
0
 14
10
 24
10
 15
10
 25
10
 16
0
 26
0
 36
1
 17
0
 27
0
 37
0
 40
128.6477200347458
 41
2.592705167173252
 42
50
 43
0
 44
0
 50
0
 51
0
 71
    0
 72
  100
 73
    1
 74
    3
 75
    0
 76
    0
 77
    0
 78
    0
281
    0
 65
    1
110
0
120
0
130
0
111
1
121
0
131
0
112
0
122
1
132
0
 79
    0
146
0
348
10020
 60
    7
 61
    5
292
1
282
    1
141
0
142
0
 63
  250
421
3358443
  0
ENDTAB
  0
TABLE
  2
LTYPE
  5
5
330
0
100
AcDbSymbolTable
 70
    4
  0
LTYPE
  5
14
330
5
100
AcDbSymbolTableRecord
100
AcDbLinetypeTableRecord
  2
ByBlock
 70
    0
  3

 72
   65
 73
    0
 40
0
  0
LTYPE
  5
15
330
5
100
AcDbSymbolTableRecord
100
AcDbLinetypeTableRecord
  2
ByLayer
 70
    0
  3

 72
   65
 73
    0
 40
0
  0
LTYPE
  5
16
330
5
100
AcDbSymbolTableRecord
100
AcDbLinetypeTableRecord
  2
Continuous
 70
    0
  3
Solid line
 72
   65
 73
    0
 40
0
  0
LTYPE
  5
32
330
5
100
AcDbSymbolTableRecord
100
AcDbLinetypeTableRecord
  2
DOT
 70
    0
  3
Dot . . . . . . . . . . . . . . . . . . . . . .
 72
   65
 73
    2
 40
6.35
 49
0
 74
    0
 49
-6.35
 74
    0
  0
LTYPE
  5
33
330
5
100
AcDbSymbolTableRecord
100
AcDbLinetypeTableRecord
  2
DOTTINY
 70
    0
  3
Dot (.15x) .....................................
 72
   65
 73
    2
 40
0.9525
 49
0
 74
    0
 49
-0.9525
 74
    0
  0
LTYPE
  5
34
330
5
100
AcDbSymbolTableRecord
100
AcDbLinetypeTableRecord
  2
DOT2
 70
    0
  3
Dot (.5x) .....................................
 72
   65
 73
    2
 40
3.175
 49
0
 74
    0
 49
-3.175
 74
    0
  0
LTYPE
  5
35
330
5
100
AcDbSymbolTableRecord
100
AcDbLinetypeTableRecord
  2
DOTX2
 70
    0
  3
Dot (2x) .  .  .  .  .  .  .  .  .  .  .  .  .
 72
   65
 73
    2
 40
12.7
 49
0
 74
    0
 49
-12.7
 74
    0
  0
LTYPE
  5
36
330
5
100
AcDbSymbolTableRecord
100
AcDbLinetypeTableRecord
  2
DASHED
 70
    0
  3
Dashed _ _ _ _ _ _ _ _ _ _ _ _ _ _ _ _ _
 72
   65
 73
    2
 40
19.05
 49
12.7
 74
    0
 49
-6.35
 74
    0
  0
LTYPE
  5
37
330
5
100
AcDbSymbolTableRecord
100
AcDbLinetypeTableRecord
  2
DASHEDTINY
 70
    0
  3
Dashed (.15x) _ _ _ _ _ _ _ _ _ _ _ _ _ _ _ _ _
 72
   65
 73
    2
 40
2.8575
 49
1.905
 74
    0
 49
-0.9525
 74
    0
  0
LTYPE
  5
38
330
5
100
AcDbSymbolTableRecord
100
AcDbLinetypeTableRecord
  2
DASHED2
 70
    0
  3
Dashed (.5x) _ _ _ _ _ _ _ _ _ _ _ _ _ _ _ _ _
 72
   65
 73
    2
 40
9.524999999999999
 49
6.35
 74
    0
 49
-3.175
 74
    0
  0
LTYPE
  5
39
330
5
100
AcDbSymbolTableRecord
100
AcDbLinetypeTableRecord
  2
DASHEDX2
 70
    0
  3
Dashed (2x) ____  ____  ____  ____  ____  ___
 72
   65
 73
    2
 40
38.09999999999999
 49
25.4
 74
    0
 49
-12.7
 74
    0
  0
LTYPE
  5
3A
330
5
100
AcDbSymbolTableRecord
100
AcDbLinetypeTableRecord
  2
DASHDOT
 70
    0
  3
Dash dot __ . __ . __ . __ . __ . __ . __ . __
 72
   65
 73
    4
 40
25.4
 49
12.7
 74
    0
 49
-6.35
 74
    0
 49
0
 74
    0
 49
-6.35
 74
    0
  0
LTYPE
  5
3B
330
5
100
AcDbSymbolTableRecord
100
AcDbLinetypeTableRecord
  2
DASHDOTTINY
 70
    0
  3
Dash dot (.15x) _._._._._._._._._._._._._._._.
 72
   65
 73
    4
 40
3.81
 49
1.905
 74
    0
 49
-0.9525
 74
    0
 49
0
 74
    0
 49
-0.9525
 74
    0
  0
LTYPE
  5
3C
330
5
100
AcDbSymbolTableRecord
100
AcDbLinetypeTableRecord
  2
DASHDOT2
 70
    0
  3
Dash dot (.5x) _._._._._._._._._._._._._._._.
 72
   65
 73
    4
 40
12.7
 49
6.35
 74
    0
 49
-3.175
 74
    0
 49
0
 74
    0
 49
-3.175
 74
    0
  0
LTYPE
  5
3D
330
5
100
AcDbSymbolTableRecord
100
AcDbLinetypeTableRecord
  2
DASHDOTX2
 70
    0
  3
Dash dot (2x) ____  .  ____  .  ____  .  ___
 72
   65
 73
    4
 40
50.8
 49
25.4
 74
    0
 49
-12.7
 74
    0
 49
0
 74
    0
 49
-12.7
 74
    0
  0
LTYPE
  5
3E
330
5
100
AcDbSymbolTableRecord
100
AcDbLinetypeTableRecord
  2
DIVIDE
 70
    0
  3
Divide ____ . . ____ . . ____ . . ____ . . ____
 72
   65
 73
    6
 40
31.75
 49
12.7
 74
    0
 49
-6.35
 74
    0
 49
0
 74
    0
 49
-6.35
 74
    0
 49
0
 74
    0
 49
-6.35
 74
    0
  0
LTYPE
  5
3F
330
5
100
AcDbSymbolTableRecord
100
AcDbLinetypeTableRecord
  2
DIVIDETINY
 70
    0
  3
Divide (.15x) __..__..__..__..__..__..__..__.._
 72
   65
 73
    6
 40
4.7625
 49
1.905
 74
    0
 49
-0.9525
 74
    0
 49
0
 74
    0
 49
-0.9525
 74
    0
 49
0
 74
    0
 49
-0.9525
 74
    0
  0
LTYPE
  5
40
330
5
100
AcDbSymbolTableRecord
100
AcDbLinetypeTableRecord
  2
DIVIDE2
 70
    0
  3
Divide (.5x) __..__..__..__..__..__..__..__.._
 72
   65
 73
    6
 40
15.875
 49
6.35
 74
    0
 49
-3.175
 74
    0
 49
0
 74
    0
 49
-3.175
 74
    0
 49
0
 74
    0
 49
-3.175
 74
    0
  0
LTYPE
  5
41
330
5
100
AcDbSymbolTableRecord
100
AcDbLinetypeTableRecord
  2
DIVIDEX2
 70
    0
  3
Divide (2x) ________  .  .  ________  .  .  _
 72
   65
 73
    6
 40
63.5
 49
25.4
 74
    0
 49
-12.7
 74
    0
 49
0
 74
    0
 49
-12.7
 74
    0
 49
0
 74
    0
 49
-12.7
 74
    0
  0
LTYPE
  5
42
330
5
100
AcDbSymbolTableRecord
100
AcDbLinetypeTableRecord
  2
BORDER
 70
    0
  3
Border __ __ . __ __ . __ __ . __ __ . __ __ .
 72
   65
 73
    6
 40
44.45
 49
12.7
 74
    0
 49
-6.35
 74
    0
 49
12.7
 74
    0
 49
-6.35
 74
    0
 49
0
 74
    0
 49
-6.35
 74
    0
  0
LTYPE
  5
43
330
5
100
AcDbSymbolTableRecord
100
AcDbLinetypeTableRecord
  2
BORDERTINY
 70
    0
  3
Border (.15x) __.__.__.__.__.__.__.__.__.__.__.
 72
   65
 73
    6
 40
6.6675
 49
1.905
 74
    0
 49
-0.9525
 74
    0
 49
1.905
 74
    0
 49
-0.9525
 74
    0
 49
0
 74
    0
 49
-0.9525
 74
    0
  0
LTYPE
  5
44
330
5
100
AcDbSymbolTableRecord
100
AcDbLinetypeTableRecord
  2
BORDER2
 70
    0
  3
Border (.5x) __.__.__.__.__.__.__.__.__.__.__.
 72
   65
 73
    6
 40
22.225
 49
6.35
 74
    0
 49
-3.175
 74
    0
 49
6.35
 74
    0
 49
-3.175
 74
    0
 49
0
 74
    0
 49
-3.175
 74
    0
  0
LTYPE
  5
45
330
5
100
AcDbSymbolTableRecord
100
AcDbLinetypeTableRecord
  2
BORDERX2
 70
    0
  3
Border (2x) ____  ____  .  ____  ____  .  ___
 72
   65
 73
    6
 40
88.89999999999999
 49
25.4
 74
    0
 49
-12.7
 74
    0
 49
25.4
 74
    0
 49
-12.7
 74
    0
 49
0
 74
    0
 49
-12.7
 74
    0
  0
LTYPE
  5
46
330
5
100
AcDbSymbolTableRecord
100
AcDbLinetypeTableRecord
  2
CENTER
 70
    0
  3
Center ____ _ ____ _ ____ _ ____ _ ____ _ ____
 72
   65
 73
    4
 40
50.8
 49
31.75
 74
    0
 49
-6.35
 74
    0
 49
6.35
 74
    0
 49
-6.35
 74
    0
  0
LTYPE
  5
47
330
5
100
AcDbSymbolTableRecord
100
AcDbLinetypeTableRecord
  2
CENTERTINY
 70
    0
  3
Center (.15x) ___ _ ___ _ ___ _ ___ _ ___ _ ___
 72
   65
 73
    4
 40
7.619999999999999
 49
4.7625
 74
    0
 49
-0.9525
 74
    0
 49
0.9525
 74
    0
 49
-0.9525
 74
    0
  0
LTYPE
  5
48
330
5
100
AcDbSymbolTableRecord
100
AcDbLinetypeTableRecord
  2
CENTER2
 70
    0
  3
Center (.5x) ___ _ ___ _ ___ _ ___ _ ___ _ ___
 72
   65
 73
    4
 40
28.575
 49
19.05
 74
    0
 49
-3.175
 74
    0
 49
3.175
 74
    0
 49
-3.175
 74
    0
  0
LTYPE
  5
49
330
5
100
AcDbSymbolTableRecord
100
AcDbLinetypeTableRecord
  2
CENTERX2
 70
    0
  3
Center (2x) ________  __  ________  __  _____
 72
   65
 73
    4
 40
101.6
 49
63.5
 74
    0
 49
-12.7
 74
    0
 49
12.7
 74
    0
 49
-12.7
 74
    0
  0
ENDTAB
  0
TABLE
  2
LAYER
  5
2
330
0
100
AcDbSymbolTable
 70
    1
  0
LAYER
  5
10
330
2
100
AcDbSymbolTableRecord
100
AcDbLayerTableRecord
  2
0
 70
    1
 62
    7
  6
CONTINUOUS
370
   -3
390
F
  0
LAYER
  5
4A
330
2
100
AcDbSymbolTableRecord
100
AcDbLayerTableRecord
  2
LAYER_2
 70
    0
 62
    7
  6
CONTINUOUS
370
   -3
390
F
  0
ENDTAB
  0
TABLE
  2
STYLE
  5
3
330
0
100
AcDbSymbolTable
 70
    3
  0
STYLE
  5
4B
330
2
100
AcDbSymbolTableRecord
100
AcDbTextStyleTableRecord
  2
Standard
 70
    0
 40
0
 41
1
 50
0
 71
    0
 42
1
  3
txt
  4

  0
ENDTAB
  0
TABLE
  2
VIEW
  5
6
330
0
100
AcDbSymbolTable
 70
    0
  0
ENDTAB
  0
TABLE
  2
UCS
  5
7
330
0
100
AcDbSymbolTable
 70
    0
  0
ENDTAB
  0
TABLE
  2
APPID
  5
9
330
0
100
AcDbSymbolTable
 70
    1
  0
APPID
  5
12
330
9
100
AcDbSymbolTableRecord
100
AcDbRegAppTableRecord
  2
ACAD
 70
    0
  0
APPID
  5
4C
330
9
100
AcDbSymbolTableRecord
100
AcDbRegAppTableRecord
  2
LibreCad
 70
    0
  0
ENDTAB
  0
TABLE
  2
DIMSTYLE
  5
A
330
0
100
AcDbSymbolTable
 70
    1
100
AcDbDimStyleTable
 71
    1
  0
DIMSTYLE
105
4D
330
A
100
AcDbSymbolTableRecord
100
AcDbDimStyleTableRecord
  2
Standard
 70
    0
 40
2.5
 41
2.5
 42
0.625
 43
0.38
 44
1.25
 45
0
 46
0
 47
0
 48
0
 49
1
140
2.5
141
0.09
142
0
143
25.4
144
1
145
0
146
1
147
0.625
148
0
 71
    0
 72
    0
 73
    0
 74
    1
 75
    0
 76
    0
 77
    0
 78
    8
 79
    0
170
    0
171
    2
172
    0
173
    0
174
    0
175
    0
176
    0
177
    0
178
    0
179
    0
271
    4
272
    4
273
    2
274
    2
275
    0
276
    0
277
    2
278
    0
279
    0
280
    0
281
    0
282
    0
283
    1
284
    0
285
    0
286
    0
288
    0
289
    3
340
standard
341

371
   -2
372
   -2
  0
ENDTAB
  0
TABLE
  2
BLOCK_RECORD
  5
1
330
0
100
AcDbSymbolTable
 70
    2
  0
BLOCK_RECORD
  5
1F
330
1
100
AcDbSymbolTableRecord
100
AcDbBlockTableRecord
  2
*Model_Space
 70
    0
280
    1
281
    0
  0
BLOCK_RECORD
  5
1E
330
1
100
AcDbSymbolTableRecord
100
AcDbBlockTableRecord
  2
*Paper_Space
 70
    0
280
    1
281
    0
  0
ENDTAB
  0
ENDSEC
  0
SECTION
  2
BLOCKS
  0
BLOCK
  5
20
330
1F
100
AcDbEntity
  8
0
100
AcDbBlockBegin
  2
*Model_Space
 70
    0
 10
0
 20
0
 30
0
  3
*Model_Space
  1

  0
ENDBLK
  5
21
330
1F
100
AcDbEntity
  8
0
100
AcDbBlockEnd
  0
BLOCK
  5
1C
330
1B
100
AcDbEntity
  8
0
100
AcDbBlockBegin
  2
*Paper_Space
 70
    0
 10
0
 20
0
 30
0
  3
*Paper_Space
  1

  0
ENDBLK
  5
1D
330
1F
100
AcDbEntity
  8
0
100
AcDbBlockEnd
  0
ENDSEC
  0
SECTION
  2
ENTITIES
  0
LWPOLYLINE
  5
4E
100
AcDbEntity
  8
LAYER_2
  6
ByLayer
 62
    1
370
   -1
100
AcDbPolyline
 90
   32
 70
    0
 43
0
 10
373.3038802069319
 20
463.3048771768343
 10
372.9094403386757
 20
463.2973180193535
 10
372.5164764964854
 20
463.2746785701636
 10
372.1251482373395
 20
463.2373008708081
 10
371.7356151182163
 20
463.185526962831
 10
371.348036696094
 20
463.1196988877757
 10
370.962572527951
 20
463.0401586871862
 10
370.5793821707654
 20
462.9472484026063
 10
370.1986251815159
 20
462.8413100755795
 10
369.8204611171805
 20
462.7226857476497
 10
369.4450495347374
 20
462.5917174603607
 10
369.0725499911654
 20
462.448747255256
 10
368.7031220434422
 20
462.2941171738796
 10
368.3369252485466
 20
462.1281692577751
 10
367.9741191634566
 20
461.9512455484863
 10
367.6148633451508
 20
461.7636880875568
 10
367.2593173506073
 20
461.5658389165306
 10
366.9076407368042
 20
461.3580400769512
 10
366.5599930607202
 20
461.1406336103624
 10
366.2165338793334
 20
460.9139615583081
 10
365.8774227496223
 20
460.678365962332
 10
365.542819228565
 20
460.4341888639775
 10
365.2128828731398
 20
460.1817723047888
 10
364.8877732403252
 20
459.9214583263093
 10
364.5676498870994
 20
459.653588970083
 10
364.2526723704405
 20
459.3785062776535
 10
363.9430002473271
 20
459.0965522905645
 10
363.6387930747374
 20
458.80806905036
 10
363.3402104096498
 20
458.5133985985833
 10
363.0474118090424
 20
458.2128829767785
 10
362.7605568298937
 20
457.9068642264892
 10
362.479805029182
 20
457.5956843892594
  0
LWPOLYLINE
  5
4F
100
AcDbEntity
  8
LAYER_2
  6
ByLayer
 62
    1
370
   -1
100
AcDbPolyline
 90
   32
 70
    0
 43
0
 10
362.479805029182
 20
457.5956843892594
 10
362.2053120183891
 20
457.2796844319374
 10
361.9372337833896
 20
456.9592028364818
 10
361.6757305432814
 20
456.6345794250732
 10
361.4209625171626
 20
456.3061540198916
 10
361.173089924131
 20
455.9742664431177
 10
360.9322729832851
 20
455.6392565169314
 10
360.6986719137225
 20
455.3014640635132
 10
360.4724469345414
 20
454.9612289050434
 10
360.25375826484
 20
454.6188908637023
 10
360.0427661237161
 20
454.2747897616701
 10
359.839630730268
 20
453.9292654211274
 10
359.6445123035935
 20
453.5826576642543
 10
359.4575710627907
 20
453.2353063132311
 10
359.2789672269578
 20
452.8875511902382
 10
359.1088610151928
 20
452.5397321174558
 10
358.9474126465936
 20
452.1921889170644
 10
358.7947823402583
 20
451.8452614112441
 10
358.6511303152849
 20
451.4992894221753
 10
358.5166167907716
 20
451.1546127720383
 10
358.3914019858164
 20
450.8115712830134
 10
358.2756461195174
 20
450.4705047772811
 10
358.1695094109724
 20
450.1317530770214
 10
358.0731520792796
 20
449.7956560044148
 10
357.9867343435371
 20
449.4625533816416
 10
357.9104164228428
 20
449.132785030882
 10
357.844358536295
 20
448.8066907743163
 10
357.7887209029914
 20
448.4846104341252
 10
357.7436637420302
 20
448.1668838324885
 10
357.7093472725096
 20
447.8538507915867
 10
357.6859317135275
 20
447.5458511336003
 10
357.673577284182
 20
447.2432246807093
  0
LWPOLYLINE
  5
50
100
AcDbEntity
  8
LAYER_2
  6
ByLayer
 62
    1
370
   -1
100
AcDbPolyline
 90
   32
 70
    0
 43
0
 10
357.673577284182
 20
447.2432246807093
 10
357.6772760579348
 20
446.3957241527446
 10
357.7254221065151
 20
445.5367210025038
 10
357.8165838623306
 20
444.6670469541986
 10
357.9493297577893
 20
443.7875337320411
 10
358.1222282252995
 20
442.8990130602432
 10
358.3338476972688
 20
442.0023166630172
 10
358.5827566061055
 20
441.0982762645746
 10
358.8675233842174
 20
440.1877235891274
 10
359.1867164640125
 20
439.2714903608879
 10
359.538904277899
 20
438.3504083040679
 10
359.9226552582847
 20
437.4253091428794
 10
360.3365378375777
 20
436.4970246015341
 10
360.7791204481859
 20
435.5663864042443
 10
361.2489715225174
 20
434.6342262752219
 10
361.7446594929801
 20
433.7013759386787
 10
362.264752791982
 20
432.7686671188268
 10
362.8078198519312
 20
431.8369315398781
 10
363.3724291052356
 20
430.9070009260446
 10
363.9571489843033
 20
429.9797070015382
 10
364.5605479215421
 20
429.0558814905709
 10
365.1811943493602
 20
428.1363561173548
 10
365.8176567001655
 20
427.2219626061017
 10
366.468503406366
 20
426.3135326810236
 10
367.1323029003697
 20
425.4118980663324
 10
367.8076236145845
 20
424.5178904862402
 10
368.4930339814186
 20
423.6323416649588
 10
369.1871024332798
 20
422.7560833267003
 10
369.8883974025764
 20
421.8899471956767
 10
370.5954873217161
 20
421.0347649960998
 10
371.3069406231069
 20
420.1913684521817
 10
372.0213257391569
 20
419.3605892881343
  0
LWPOLYLINE
  5
51
100
AcDbEntity
  8
LAYER_2
  6
ByLayer
 62
    1
370
   -1
100
AcDbPolyline
 90
   32
 70
    0
 43
0
 10
372.0213257391569
 20
419.3605892881343
 10
372.3791723812204
 20
418.9501902652021
 10
372.7372193400298
 20
418.543256093655
 10
373.0952879157862
 20
418.1398911697739
 10
373.453199408691
 20
417.7401998898398
 10
373.8107751189458
 20
417.3442866501337
 10
374.1678363467519
 20
416.9522558469364
 10
374.5242043923104
 20
416.5642118765288
 10
374.879700555823
 20
416.180259135192
 10
375.2341461374909
 20
415.8005020192068
 10
375.5873624375155
 20
415.425044924854
 10
375.9391707560982
 20
415.0539922484149
 10
376.2893923934403
 20
414.6874483861702
 10
376.6378486497432
 20
414.3255177344006
 10
376.9843608252083
 20
413.9683046893874
 10
377.3287502200371
 20
413.6159136474112
 10
377.6708381344307
 20
413.2684490047533
 10
378.0104458685906
 20
412.9260151576943
 10
378.3473947227181
 20
412.5887165025153
 10
378.6815059970147
 20
412.2566574354971
 10
379.0126009916817
 20
411.9299423529208
 10
379.3405010069205
 20
411.6086756510672
 10
379.6650273429324
 20
411.2929617262172
 10
379.9860012999188
 20
410.9829049746518
 10
380.3032441780811
 20
410.678609792652
 10
380.6165772776206
 20
410.3801805764984
 10
380.9258218987388
 20
410.0877217224723
 10
381.230799341637
 20
409.8013376268544
 10
381.5313309065165
 20
409.5211326859257
 10
381.8272378935787
 20
409.2472112959672
 10
382.1183416030251
 20
408.9796778532598
 10
382.4044633350569
 20
408.7186367540843
  0
LWPOLYLINE
  5
52
100
AcDbEntity
  8
LAYER_2
  6
ByLayer
 62
    1
370
   -1
100
AcDbPolyline
 90
   32
 70
    0
 43
0
 10
382.4044633350569
 20
408.7186367540843
 10
382.5455971214064
 20
408.5905843097976
 10
382.6854124050945
 20
408.4641956215617
 10
382.8238872905592
 20
408.3394835136052
 10
382.9609998822387
 20
408.2164608101567
 10
383.0967282845711
 20
408.0951403354446
 10
383.2310506019946
 20
407.9755349136976
 10
383.3639449389472
 20
407.8576573691442
 10
383.4953893998672
 20
407.741520526013
 10
383.6253620891927
 20
407.6271372085324
 10
383.7538411113617
 20
407.514520240931
 10
383.8808045708125
 20
407.4036824474375
 10
384.0062305719833
 20
407.2946366522803
 10
384.1300972193121
 20
407.1873956796879
 10
384.2523826172369
 20
407.0819723538889
 10
384.3730648701963
 20
406.9783794991119
 10
384.4921220826279
 20
406.8766299395854
 10
384.6095323589702
 20
406.7767364995379
 10
384.7252738036613
 20
406.6787120031981
 10
384.8393245211391
 20
406.5825692747944
 10
384.951662615842
 20
406.4883211385554
 10
385.0622661922081
 20
406.3959804187095
 10
385.1711133546753
 20
406.3055599394856
 10
385.2781822076821
 20
406.2170725251119
 10
385.3834508556664
 20
406.130530999817
 10
385.4868974030664
 20
406.0459481878296
 10
385.5884999543202
 20
405.9633369133782
 10
385.6882366138661
 20
405.8827100006912
 10
385.7860854861419
 20
405.8040802739973
 10
385.8820246755862
 20
405.727460557525
 10
385.9760322866368
 20
405.6528636755028
 10
386.0680864237319
 20
405.5803024521593
  0
LWPOLYLINE
  5
53
100
AcDbEntity
  8
LAYER_2
  6
ByLayer
 62
    1
370
   -1
100
AcDbPolyline
 90
   32
 70
    0
 43
0
 10
386.0680864237319
 20
405.5803024521593
 10
386.1133734178055
 20
405.5447880097138
 10
386.1581615690973
 20
405.5097850652265
 10
386.2024481910499
 20
405.4752954135485
 10
386.2462305971061
 20
405.4413208495304
 10
386.2895061007082
 20
405.4078631680231
 10
386.3322720152989
 20
405.3749241638774
 10
386.3745256543205
 20
405.3425056319441
 10
386.4162643312157
 20
405.310609367074
 10
386.457485359427
 20
405.2792371641178
 10
386.4981860523972
 20
405.2483908179265
 10
386.5383637235684
 20
405.2180721233507
 10
386.5780156863833
 20
405.1882828752414
 10
386.6171392542846
 20
405.1590248684494
 10
386.6557317407147
 20
405.1302998978254
 10
386.6937904591161
 20
405.1021097582202
 10
386.7313127229315
 20
405.0744562444847
 10
386.7682958456033
 20
405.0473411514697
 10
386.804737140574
 20
405.0207662740258
 10
386.8406339212863
 20
404.9947334070041
 10
386.8759835011826
 20
404.9692443452553
 10
386.9107831937056
 20
404.9443008836301
 10
386.9450303122978
 20
404.9199048169796
 10
386.9787221704015
 20
404.8960579401543
 10
387.0118560814595
 20
404.872762048005
 10
387.0444293589143
 20
404.8500189353826
 10
387.0764393162083
 20
404.827830397138
 10
387.1078832667841
 20
404.8061982281221
 10
387.1387585240844
 20
404.7851242231853
 10
387.1690624015516
 20
404.7646101771788
 10
387.1987922126283
 20
404.7446578849531
 10
387.2279452707569
 20
404.7252691413593
  0
LWPOLYLINE
  5
54
100
AcDbEntity
  8
LAYER_2
  6
ByLayer
 62
    1
370
   -1
100
AcDbPolyline
 90
   32
 70
    0
 43
0
 10
387.2279452707569
 20
404.7252691413593
 10
387.2423029059175
 20
404.7157908813811
 10
387.2565120500217
 20
404.706462152993
 10
387.2705726396751
 20
404.6972825272885
 10
387.2844846114833
 20
404.6882515753615
 10
387.2982479020517
 20
404.6793688683056
 10
387.3118624479861
 20
404.6706339772145
 10
387.3253281858918
 20
404.6620464731819
 10
387.3386450523746
 20
404.6536059273016
 10
387.3518129840398
 20
404.6453119106671
 10
387.3648319174933
 20
404.6371639943724
 10
387.3777017893403
 20
404.629161749511
 10
387.3904225361866
 20
404.6213047471766
 10
387.4029940946376
 20
404.6135925584628
 10
387.415416401299
 20
404.6060247544636
 10
387.4276893927762
 20
404.5986009062725
 10
387.4398130056749
 20
404.5913205849833
 10
387.4517871766006
 20
404.5841833616896
 10
387.4636118421588
 20
404.5771888074852
 10
387.4752869389552
 20
404.5703364934636
 10
387.4868124035952
 20
404.5636259907189
 10
387.4981881726844
 20
404.5570568703444
 10
387.5094141828286
 20
404.550628703434
 10
387.5204903706328
 20
404.5443410610814
 10
387.5314166727031
 20
404.5381935143802
 10
387.5421930256448
 20
404.5321856344243
 10
387.5528193660636
 20
404.5263169923072
 10
387.5632956305649
 20
404.5205871591226
 10
387.5736217557543
 20
404.5149957059643
 10
387.5837976782374
 20
404.5095422039261
 10
387.5938233346197
 20
404.5042262241014
 10
387.6036986615069
 20
404.4990473375843
  0
LWPOLYLINE
  5
55
100
AcDbEntity
  8
LAYER_2
  6
ByLayer
 62
    1
370
   -1
100
AcDbPolyline
 90
   32
 70
    0
 43
0
 10
387.6036986615069
 20
404.4990473375843
 10
387.6134229720211
 20
404.4940059349466
 10
387.6229957034931
 20
404.4891032330037
 10
387.6324170793727
 20
404.4843400422139
 10
387.6416873231094
 20
404.4797171730361
 10
387.650806658153
 20
404.4752354359288
 10
387.6597753079533
 20
404.4708956413504
 10
387.66859349596
 20
404.4666985997595
 10
387.6772614456228
 20
404.4626451216146
 10
387.6857793803914
 20
404.4587360173743
 10
387.6941475237156
 20
404.4549720974973
 10
387.702366099045
 20
404.4513541724419
 10
387.7104353298294
 20
404.4478830526668
 10
387.7183554395186
 20
404.4445595486305
 10
387.726126651562
 20
404.4413844707915
 10
387.7337491894097
 20
404.4383586296084
 10
387.7412232765113
 20
404.4354828355399
 10
387.7485491363163
 20
404.4327578990442
 10
387.7557269922748
 20
404.4301846305802
 10
387.7627570678362
 20
404.4277638406063
 10
387.7696395864504
 20
404.4254963395811
 10
387.776374771567
 20
404.423382937963
 10
387.7829628466358
 20
404.4214244462106
 10
387.7894040351065
 20
404.4196216747826
 10
387.7956985604289
 20
404.4179754341374
 10
387.8018466460525
 20
404.4164865347337
 10
387.8078485154272
 20
404.4151557870299
 10
387.8137043920028
 20
404.4139840014846
 10
387.8194144992287
 20
404.4129719885564
 10
387.824979060555
 20
404.4121205587036
 10
387.8303982994311
 20
404.4114305223852
 10
387.835672439307
 20
404.4109026900593
  0
LWPOLYLINE
  5
56
100
AcDbEntity
  8
LAYER_2
  6
ByLayer
 62
    1
370
   -1
100
AcDbPolyline
 90
   32
 70
    0
 43
0
 10
387.835672439307
 20
404.4109026900593
 10
387.8410730749943
 20
404.4105191582127
 10
387.8465984733863
 20
404.4103176205136
 10
387.85224923544
 20
404.4102968314602
 10
387.8580259621123
 20
404.4104555455505
 10
387.8639292543604
 20
404.4107925172823
 10
387.869959713141
 20
404.4113065011537
 10
387.8761179394114
 20
404.4119962516625
 10
387.8824045341284
 20
404.4128605233068
 10
387.8888200982491
 20
404.4138980705845
 10
387.8953652327306
 20
404.4151076479935
 10
387.9020405385296
 20
404.4164880100319
 10
387.9088466166033
 20
404.4180379111975
 10
387.9157840679088
 20
404.4197561059884
 10
387.9228534934029
 20
404.4216413489024
 10
387.9300554940427
 20
404.4236923944376
 10
387.9373906707852
 20
404.4259079970919
 10
387.9448596245874
 20
404.4282869113631
 10
387.9524629564063
 20
404.4308278917495
 10
387.9602012671988
 20
404.4335296927488
 10
387.9680751579221
 20
404.4363910688592
 10
387.9760852295331
 20
404.4394107745783
 10
387.9842320829888
 20
404.4425875644042
 10
387.9925163192462
 20
404.4459201928351
 10
388.0009385392623
 20
404.4494074143687
 10
388.009499343994
 20
404.453047983503
 10
388.0181993343986
 20
404.4568406547359
 10
388.0270391114328
 20
404.4607841825655
 10
388.0360192760538
 20
404.4648773214897
 10
388.0451404292184
 20
404.4691188260064
 10
388.0544031718838
 20
404.4735074506136
 10
388.063808105007
 20
404.4780419498093
  0
LWPOLYLINE
  5
57
100
AcDbEntity
  8
LAYER_2
  6
ByLayer
 62
    1
370
   -1
100
AcDbPolyline
 90
   32
 70
    0
 43
0
 10
388.063808105007
 20
404.4780419498093
 10
388.0733579977184
 20
404.482713168048
 10
388.0830474976861
 20
404.4875319395378
 10
388.0928764842583
 20
404.4924985530058
 10
388.1028448367834
 20
404.497613297179
 10
388.1129524346095
 20
404.5028764607848
 10
388.1231991570852
 20
404.5082883325501
 10
388.1335848835586
 20
404.5138492012023
 10
388.1441094933781
 20
404.5195593554686
 10
388.154772865892
 20
404.5254190840758
 10
388.1655748804486
 20
404.5314286757516
 10
388.1765154163962
 20
404.5375884192227
 10
388.1875943530831
 20
404.5438986032166
 10
388.1988115698576
 20
404.5503595164602
 10
388.2101669460681
 20
404.5569714476808
 10
388.2216603610628
 20
404.5637346856057
 10
388.2332916941901
 20
404.5706495189618
 10
388.2450608247983
 20
404.5777162364764
 10
388.2569676322357
 20
404.5849351268766
 10
388.2690119958504
 20
404.5923064788896
 10
388.2811937949911
 20
404.5998305812427
 10
388.2935129090058
 20
404.6075077226628
 10
388.3059692172429
 20
404.6153381918774
 10
388.3185625990508
 20
404.6233222776133
 10
388.3312929337776
 20
404.6314602685979
 10
388.3441601007719
 20
404.6397524535584
 10
388.3571639793818
 20
404.6481991212218
 10
388.3703044489556
 20
404.6568005603153
 10
388.3835813888417
 20
404.6655570595663
 10
388.3969946783885
 20
404.6744689077015
 10
388.4105441969441
 20
404.6835363934485
 10
388.4242298238569
 20
404.6927598055343
  0
LWPOLYLINE
  5
58
100
AcDbEntity
  8
LAYER_2
  6
ByLayer
 62
    1
370
   -1
100
AcDbPolyline
 90
   32
 70
    0
 43
0
 10
388.4242298238569
 20
404.6927598055343
 10
388.4520043535973
 20
404.7116585368414
 10
388.480311784836
 20
404.7311478218365
 10
388.5091498263765
 20
404.7512260255848
 10
388.5385161870225
 20
404.771891513151
 10
388.5684085755774
 20
404.7931426496004
 10
388.5988247008447
 20
404.8149777999978
 10
388.6297622716278
 20
404.8373953294081
 10
388.6612189967302
 20
404.8603936028966
 10
388.6931925849556
 20
404.883970985528
 10
388.7256807451071
 20
404.9081258423674
 10
388.7586811859884
 20
404.9328565384798
 10
388.792191616403
 20
404.9581614389302
 10
388.8262097451543
 20
404.9840389087835
 10
388.8607332810459
 20
405.0104873131048
 10
388.8957599328812
 20
405.0375050169589
 10
388.9312874094636
 20
405.0650903854111
 10
388.9673134195967
 20
405.0932417835261
 10
389.0038356720841
 20
405.1219575763689
 10
389.0408518757291
 20
405.1512361290047
 10
389.0783597393351
 20
405.1810758064984
 10
389.1163569717058
 20
405.2114749739149
 10
389.1548412816445
 20
405.2424319963192
 10
389.1938103779549
 20
405.2739452387764
 10
389.2332619694403
 20
405.3060130663514
 10
389.2731937649041
 20
405.3386338441092
 10
389.3136034731501
 20
405.3718059371148
 10
389.3544888029815
 20
405.4055277104333
 10
389.3958474632019
 20
405.4397975291294
 10
389.4376771626148
 20
405.4746137582683
 10
389.4799756100236
 20
405.5099747629149
 10
389.5227405142319
 20
405.5458789081343
  0
LWPOLYLINE
  5
59
100
AcDbEntity
  8
LAYER_2
  6
ByLayer
 62
    1
370
   -1
100
AcDbPolyline
 90
   32
 70
    0
 43
0
 10
389.5227405142319
 20
405.5458789081343
 10
389.6096565207997
 20
405.6193065980298
 10
389.6984010779353
 20
405.6948809118462
 10
389.7889533055736
 20
405.7725869240631
 10
389.8812923236493
 20
405.8524097091595
 10
389.9753972520975
 20
405.9343343416151
 10
390.0712472108527
 20
406.018345895909
 10
390.1688213198499
 20
406.1044294465204
 10
390.2680986990241
 20
406.1925700679287
 10
390.3690584683096
 20
406.2827528346132
 10
390.4716797476416
 20
406.3749628210533
 10
390.5759416569549
 20
406.4691851017281
 10
390.6818233161842
 20
406.565404751117
 10
390.7893038452646
 20
406.6636068436994
 10
390.8983623641305
 20
406.7637764539544
 10
391.0089779927169
 20
406.8658986563615
 10
391.1211298509588
 20
406.9699585253999
 10
391.2347970587908
 20
407.0759411355489
 10
391.3499587361479
 20
407.1838315612878
 10
391.4665940029646
 20
407.293614877096
 10
391.5846819791761
 20
407.4052761574526
 10
391.704201784717
 20
407.5188004768372
 10
391.8251325395222
 20
407.6341729097288
 10
391.9474533635265
 20
407.7513785306069
 10
392.0711433766647
 20
407.8704024139506
 10
392.1961816988717
 20
407.9912296342394
 10
392.3225474500822
 20
408.1138452659527
 10
392.4502197502311
 20
408.2382343835695
 10
392.5791777192532
 20
408.3643820615693
 10
392.7094004770832
 20
408.4922733744313
 10
392.8408671436563
 20
408.6218933966348
 10
392.9735568389069
 20
408.7532272026593
  0
LWPOLYLINE
  5
5A
100
AcDbEntity
  8
LAYER_2
  6
ByLayer
 62
    1
370
   -1
100
AcDbPolyline
 90
   32
 70
    0
 43
0
 10
392.9735568389069
 20
408.7532272026593
 10
393.2425304797542
 20
409.0209879835231
 10
393.5161629029637
 20
409.2954510209374
 10
393.7942897723553
 20
409.5764988788237
 10
394.0767467517491
 20
409.8640141211036
 10
394.3633695049648
 20
410.1578793116985
 10
394.6539936958226
 20
410.4579770145301
 10
394.9484549881423
 20
410.7641897935198
 10
395.2465890457439
 20
411.0764002125892
 10
395.5482315324471
 20
411.3944908356598
 10
395.8532181120723
 20
411.7183442266531
 10
396.1613844484392
 20
412.0478429494906
 10
396.4725662053678
 20
412.382869568094
 10
396.7865990466779
 20
412.7233066463846
 10
397.1033186361897
 20
413.069036748284
 10
397.4225606377229
 20
413.4199424377138
 10
397.7441607150976
 20
413.7759062785955
 10
398.0679545321336
 20
414.1368108348505
 10
398.3937777526511
 20
414.5025386704006
 10
398.7214660404699
 20
414.8729723491671
 10
399.0508550594098
 20
415.2479944350715
 10
399.381780473291
 20
415.6274874920355
 10
399.7140779459334
 20
416.0113340839805
 10
400.0475831411567
 20
416.3994167748281
 10
400.3821317227812
 20
416.7916181284997
 10
400.7175593546266
 20
417.1878207089171
 10
401.053701700513
 20
417.5879070800015
 10
401.3903944242603
 20
417.9917598056746
 10
401.7274731896883
 20
418.3992614498579
 10
402.0647736606172
 20
418.810294576473
 10
402.4021315008666
 20
419.2247417494413
 10
402.7393823742569
 20
419.6424855326843
  0
LWPOLYLINE
  5
5B
100
AcDbEntity
  8
LAYER_2
  6
ByLayer
 62
    1
370
   -1
100
AcDbPolyline
 90
   32
 70
    0
 43
0
 10
402.7393823742569
 20
419.6424855326843
 10
403.4128985955255
 20
420.4873936091823
 10
404.0839973137187
 20
421.3440846929298
 10
404.7513591772889
 20
422.2116238080209
 10
405.4136648346891
 20
423.0890759785499
 10
406.0695949343721
 20
423.9755062286108
 10
406.7178301247906
 20
424.8699795822978
 10
407.3570510543972
 20
425.7715610637048
 10
407.9859383716446
 20
426.6793156969263
 10
408.6031727249858
 20
427.592308506056
 10
409.2074347628733
 20
428.5096045151884
 10
409.7974051337602
 20
429.4302687484176
 10
410.3717644860987
 20
430.3533662298374
 10
410.929193468342
 20
431.2779619835422
 10
411.4683727289425
 20
432.2031210336262
 10
411.9879829163532
 20
433.1279084041833
 10
412.4867046790266
 20
434.0513891193077
 10
412.9632186654158
 20
434.9726282030936
 10
413.4162055239732
 20
435.890690679635
 10
413.8443459031516
 20
436.8046415730261
 10
414.2463204514038
 20
437.7135459073612
 10
414.6208098171826
 20
438.6164687067341
 10
414.9664946489406
 20
439.5124749952391
 10
415.2820555951307
 20
440.4006297969703
 10
415.5661733042054
 20
441.279998136022
 10
415.8175284246177
 20
442.149645036488
 10
416.0348016048202
 20
443.0086355224627
 10
416.2166734932657
 20
443.85603461804
 10
416.3618247384068
 20
444.6909073473142
 10
416.4689359886964
 20
445.5123187343795
 10
416.5366878925872
 20
446.3193338033298
 10
416.5637610985319
 20
447.1110175782594
  0
LWPOLYLINE
  5
5C
100
AcDbEntity
  8
LAYER_2
  6
ByLayer
 62
    1
370
   -1
100
AcDbPolyline
 90
   32
 70
    0
 43
0
 10
416.5637610985319
 20
447.1110175782594
 10
416.5595827477708
 20
447.5238015589618
 10
416.5406093526764
 20
447.934633148645
 10
416.5071574259409
 20
448.3433519023899
 10
416.4595434802565
 20
448.7497973752775
 10
416.3980840283155
 20
449.1538091223888
 10
416.32309558281
 20
449.555226698805
 10
416.2348946564324
 20
449.953889659607
 10
416.1337977618749
 20
450.349637559876
 10
416.0201214118296
 20
450.7423099546928
 10
415.8941821189887
 20
451.1317463991386
 10
415.7562963960447
 20
451.5177864482947
 10
415.6067807556896
 20
451.9002696572417
 10
415.4459517106158
 20
452.2790355810608
 10
415.2741257735152
 20
452.6539237748332
 10
415.0916194570803
 20
453.0247737936397
 10
414.8987492740033
 20
453.3914251925616
 10
414.6958317369765
 20
453.7537175266797
 10
414.4831833586917
 20
454.1114903510753
 10
414.2611206518417
 20
454.4645832208293
 10
414.0299601291185
 20
454.8128356910227
 10
413.7900183032143
 20
455.1560873167367
 10
413.5416116868212
 20
455.4941776530521
 10
413.2850567926317
 20
455.8269462550504
 10
413.0206701333378
 20
456.154232677812
 10
412.7487682216318
 20
456.4758764764185
 10
412.469667570206
 20
456.7917172059506
 10
412.1836846917525
 20
457.1015944214897
 10
411.8911360989636
 20
457.4053476781165
 10
411.5923383045316
 20
457.7028165309121
 10
411.2876078211486
 20
457.9938405349577
 10
410.9772611615069
 20
458.2782592453343
  0
LWPOLYLINE
  5
5D
100
AcDbEntity
  8
LAYER_2
  6
ByLayer
 62
    1
370
   -1
100
AcDbPolyline
 90
   32
 70
    0
 43
0
 10
410.9772611615069
 20
458.2782592453343
 10
410.6616161211122
 20
458.5559152725166
 10
410.3409875950172
 20
458.8266507102458
 10
410.0156906606474
 20
459.0903051427549
 10
409.6860403954281
 20
459.3467181542763
 10
409.3523518767845
 20
459.5957293290431
 10
409.0149401821421
 20
459.8371782512877
 10
408.6741203889259
 20
460.070904505243
 10
408.3302075745615
 20
460.2967476751418
 10
407.9835168164739
 20
460.5145473452167
 10
407.6343631920887
 20
460.7241430997003
 10
407.2830617788312
 20
460.9253745228256
 10
406.9299276541263
 20
461.1180811988252
 10
406.5752758953997
 20
461.3021027119318
 10
406.2194215800767
 20
461.4772786463781
 10
405.8626797855823
 20
461.643448586397
 10
405.505365589342
 20
461.8004521162209
 10
405.1477940687811
 20
461.9481288200828
 10
404.7902803013249
 20
462.0863182822155
 10
404.4331393643986
 20
462.2148600868514
 10
404.0766863354277
 20
462.3335938182234
 10
403.7212362918373
 20
462.4423590605645
 10
403.3671043110528
 20
462.5409953981069
 10
403.0146054704995
 20
462.6293424150837
 10
402.6640548476027
 20
462.7072396957275
 10
402.3157675197876
 20
462.774526824271
 10
401.9700585644797
 20
462.831043384947
 10
401.6272430591042
 20
462.8766289619882
 10
401.2876360810863
 20
462.9111231396273
 10
400.9515527078515
 20
462.934365502097
 10
400.6193080168249
 20
462.9461956336301
 10
400.2912170854319
 20
462.9464531184593
  0
LWPOLYLINE
  5
5E
100
AcDbEntity
  8
LAYER_2
  6
ByLayer
 62
    1
370
   -1
100
AcDbPolyline
 90
   32
 70
    0
 43
0
 10
400.2912170854319
 20
462.9464531184593
 10
399.4680923239829
 20
462.9098047209687
 10
398.6720965277966
 20
462.8304939371852
 10
397.9032125628685
 20
462.7114817133626
 10
397.161423295194
 20
462.555728995755
 10
396.4467115907687
 20
462.3661967306159
 10
395.7590603155879
 20
462.1458458641996
 10
395.0984523356472
 20
461.8976373427595
 10
394.4648705169419
 20
461.6245321125498
 10
393.8582977254674
 20
461.329491119824
 10
393.2787168272194
 20
461.0154753108362
 10
392.7261106881932
 20
460.6854456318403
 10
392.200462174384
 20
460.3423630290898
 10
391.7017541517877
 20
459.9891884488389
 10
391.2299694863996
 20
459.6288828373412
 10
390.785091044215
 20
459.2644071408507
 10
390.3671016912293
 20
458.8987223056212
 10
389.9759842934382
 20
458.5347892779064
 10
389.611721716837
 20
458.1755690039604
 10
389.2742968274212
 20
457.8240224300368
 10
388.9636924911861
 20
457.4831105023896
 10
388.6798915741273
 20
457.1557941672727
 10
388.4228769422402
 20
456.8450343709397
 10
388.1926314615204
 20
456.5537920596446
 10
387.989137997963
 20
456.2850281796413
 10
387.8123794175637
 20
456.0417036771835
 10
387.6623385863179
 20
455.8267794985252
 10
387.5389983702211
 20
455.6432165899202
 10
387.4423416352686
 20
455.4939758976222
 10
387.372351247456
 20
455.3820183678852
 10
387.3290100727785
 20
455.3103049469629
 10
387.3123009772319
 20
455.2817965811093
  0
LWPOLYLINE
  5
5F
100
AcDbEntity
  8
LAYER_2
  6
ByLayer
 62
    1
370
   -1
100
AcDbPolyline
 90
   32
 70
    0
 43
0
 10
387.3123009772319
 20
455.2817965811093
 10
386.8960711179015
 20
455.9094488280477
 10
386.4695839151666
 20
456.5048772173211
 10
386.0336545791612
 20
457.0688715227581
 10
385.5890983200193
 20
457.6022215181872
 10
385.1367303478747
 20
458.105716977437
 10
384.6773658728615
 20
458.580147674336
 10
384.2118201051134
 20
459.0263033827125
 10
383.7409082547644
 20
459.4449738763955
 10
383.2654455319486
 20
459.8369489292131
 10
382.7862471467997
 20
460.2030183149942
 10
382.3041283094518
 20
460.5439718075671
 10
381.8199042300386
 20
460.8605991807603
 10
381.3343901186943
 20
461.1536902084025
 10
380.8484011855526
 20
461.4240346643222
 10
380.3627526407475
 20
461.6724223223478
 10
379.8782596944131
 20
461.899642956308
 10
379.3957375566831
 20
462.1064863400313
 10
378.9160014376915
 20
462.2937422473462
 10
378.4398665475722
 20
462.4622004520812
 10
377.9681480964593
 20
462.6126507280648
 10
377.5016612944865
 20
462.7458828491258
 10
377.0412213517877
 20
462.8626865890924
 10
376.5876434784971
 20
462.9638517217934
 10
376.1417428847483
 20
463.0501680210571
 10
375.7043347806755
 20
463.1224252607122
 10
375.2762343764124
 20
463.1814132145872
 10
374.8582568820931
 20
463.2279216565106
 10
374.4512175078515
 20
463.2627403603111
 10
374.0559314638215
 20
463.2866590998169
 10
373.6732139601369
 20
463.3004676488569
 10
373.3038802069319
 20
463.3049557812593
  0
LWPOLYLINE
  5
60
100
AcDbEntity
  8
LAYER_2
  6
ByLayer
 62
    1
370
   -1
100
AcDbPolyline
 90
   32
 70
    0
 43
0
 10
373.3038802069319
 20
463.2703653326843
 10
373.6728325833992
 20
463.2658995447192
 10
374.0551706320552
 20
463.2521545956718
 10
374.4500785890239
 20
463.2283358633289
 10
374.8567406904286
 20
463.1936487254775
 10
375.2743411723931
 20
463.1472985599041
 10
375.7020642710411
 20
463.0884907443958
 10
376.1390942224961
 20
463.0164306567391
 10
376.5846152628817
 20
462.930323674721
 10
377.0378116283217
 20
462.829375176128
 10
377.4978675549396
 20
462.7127905387472
 10
377.9639672788593
 20
462.5797751403654
 10
378.4352950362041
 20
462.429534358769
 10
378.9110350630976
 20
462.2612735717452
 10
379.3903715956639
 20
462.0741981570804
 10
379.8724888700261
 20
461.8675134925617
 10
380.3565711223081
 20
461.6404249559759
 10
380.8418025886335
 20
461.3921379251095
 10
381.327367505126
 20
461.1218577777496
 10
381.8124501079092
 20
460.8287898916827
 10
382.2962346331066
 20
460.5121396446958
 10
382.777905316842
 20
460.1711124145756
 10
383.2566463952389
 20
459.8049135791088
 10
383.7316421044211
 20
459.4127485160823
 10
384.2020766805121
 20
458.9938226032829
 10
384.6671343596356
 20
458.5473412184973
 10
385.1259993779151
 20
458.0725097395123
 10
385.5778559714744
 20
457.5685335441148
 10
386.0218883764372
 20
457.0346180100914
 10
386.4572808289269
 20
456.469968515229
 10
386.8832175650672
 20
455.8737904373144
 10
387.2988828209819
 20
455.2452891541343
  0
LWPOLYLINE
  5
61
100
AcDbEntity
  8
LAYER_2
  6
ByLayer
 62
    1
370
   -1
100
AcDbPolyline
 90
    2
 70
    0
 43
0
 10
373.3038802069319
 20
463.3049557812593
 10
373.3038802069319
 20
463.3048771768343
  0
LWPOLYLINE
  5
62
100
AcDbEntity
  8
LAYER_2
  6
ByLayer
 62
    1
370
   -1
100
AcDbPolyline
 90
   32
 70
    0
 43
0
 10
387.3276426911069
 20
455.2452891541343
 10
387.3410735596166
 20
455.2682652502032
 10
387.3813740069007
 20
455.3351940189108
 10
387.4485557955928
 20
455.4430761810086
 10
387.5426306883256
 20
455.5889124572479
 10
387.6636104477327
 20
455.7697035683805
 10
387.8115068364469
 20
455.9824502351576
 10
387.9863316171015
 20
456.2241531783307
 10
388.1880965523297
 20
456.4918131186515
 10
388.4168134047646
 20
456.7824307768711
 10
388.6724939370392
 20
457.0930068737412
 10
388.9551499117871
 20
457.4205421300131
 10
389.264793091641
 20
457.7620372664385
 10
389.6014352392342
 20
458.1144930037687
 10
389.9650881171999
 20
458.4749100627552
 10
390.3557634881712
 20
458.8402891641495
 10
390.7734731147814
 20
459.207631028703
 10
391.2182287596635
 20
459.5739363771671
 10
391.6900421854506
 20
459.9362059302935
 10
392.188925154776
 20
460.2914404088334
 10
392.7148894302728
 20
460.6366405335385
 10
393.2679467745741
 20
460.9688070251601
 10
393.8481089503132
 20
461.2849406044498
 10
394.455387720123
 20
461.5820419921589
 10
395.0897948466369
 20
461.857111909039
 10
395.7513420924881
 20
462.1071510758414
 10
396.4400412203096
 20
462.3291602133178
 10
397.1559039927345
 20
462.5201400422197
 10
397.8989421723959
 20
462.6770912832982
 10
398.6691675219272
 20
462.797014657305
 10
399.4665918039615
 20
462.8769108849916
 10
400.291226781132
 20
462.9137806871094
  0
LWPOLYLINE
  5
63
100
AcDbEntity
  8
LAYER_2
  6
ByLayer
 62
    1
370
   -1
100
AcDbPolyline
 90
   32
 70
    0
 43
0
 10
400.291226781132
 20
462.9137806871094
 10
400.6181061753977
 20
462.9135119377827
 10
400.9491868050397
 20
462.9016909554602
 10
401.2841519182242
 20
462.8784778277086
 10
401.6226847631178
 20
462.8440326420947
 10
401.9644685878866
 20
462.7985154861852
 10
402.3091866406972
 20
462.7420864475471
 10
402.6565221697157
 20
462.674905613747
 10
403.0061584231087
 20
462.5971330723517
 10
403.3577786490425
 20
462.508928910928
 10
403.7110660956833
 20
462.4104532170427
 10
404.0657040111977
 20
462.3018660782625
 10
404.4213756437518
 20
462.1833275821543
 10
404.7777642415122
 20
462.0549978162848
 10
405.1345530526451
 20
461.9170368682209
 10
405.4914253253169
 20
461.7696048255291
 10
405.848064307694
 20
461.6128617757764
 10
406.2041532479427
 20
461.4469678065296
 10
406.5593753942294
 20
461.2720830053554
 10
406.9134139947205
 20
461.0883674598206
 10
407.2659522975823
 20
460.8959812574919
 10
407.616673550981
 20
460.6950844859363
 10
407.9652610030834
 20
460.4858372327204
 10
408.3113979020554
 20
460.2683995854111
 10
408.6547674960635
 20
460.0429316315749
 10
408.9950530332742
 20
459.809593458779
 10
409.3319377618537
 20
459.5685451545897
 10
409.6651049299686
 20
459.3199468065743
 10
409.9942377857848
 20
459.0639585022992
 10
410.3190195774691
 20
458.8007403293312
 10
410.6391335531877
 20
458.5304523752375
 10
410.9542629611069
 20
458.2532547275842
  0
LWPOLYLINE
  5
64
100
AcDbEntity
  8
LAYER_2
  6
ByLayer
 62
    1
370
   -1
100
AcDbPolyline
 90
   32
 70
    0
 43
0
 10
410.9542629611069
 20
458.2532547275842
 10
411.2640902516972
 20
457.9693075836876
 10
411.5682970692943
 20
457.6787713225845
 10
411.8665683682747
 20
457.3818070081438
 10
412.158589103015
 20
457.0785757042348
 10
412.4440442278917
 20
456.7692384747267
 10
412.7226186972813
 20
456.4539563834886
 10
412.9939974655604
 20
456.1328904943893
 10
413.2578654871055
 20
455.8062018712981
 10
413.5139077162931
 20
455.4740515780842
 10
413.7618091074999
 20
455.1366006786164
 10
414.0012546151022
 20
454.7940102367641
 10
414.2319291934766
 20
454.4464413163964
 10
414.4535177969996
 20
454.094054981382
 10
414.665705380048
 20
453.7370122955905
 10
414.868176896998
 20
453.3754743228907
 10
415.0606173022262
 20
453.0096021271517
 10
415.2427115501093
 20
452.6395567722428
 10
415.4141445950236
 20
452.265499322033
 10
415.5746013913458
 20
451.8875908403912
 10
415.7237668934524
 20
451.5059923911867
 10
415.8613260557199
 20
451.1208650382887
 10
415.9869638325249
 20
450.732369845566
 10
416.1003651782437
 20
450.3406678768881
 10
416.2012150472532
 20
449.9459201961236
 10
416.2891983939296
 20
449.5482878671419
 10
416.3640001726497
 20
449.1479319538121
 10
416.4253053377898
 20
448.7450135200033
 10
416.4727988437266
 20
448.3396936295844
 10
416.5061656448365
 20
447.9321333464248
 10
416.5250906954961
 20
447.5224937343934
 10
416.5292589500819
 20
447.1109358573593
  0
LWPOLYLINE
  5
65
100
AcDbEntity
  8
LAYER_2
  6
ByLayer
 62
    1
370
   -1
100
AcDbPolyline
 90
   32
 70
    0
 43
0
 10
416.5292589500819
 20
447.1109358573593
 10
416.5022179532218
 20
446.3210151012762
 10
416.4345309825711
 20
445.5156499254279
 10
416.3275154899363
 20
444.695779540176
 10
416.1824889271235
 20
443.8623431558822
 10
416.0007687459388
 20
443.0162799829084
 10
415.7836723981885
 20
442.1585292316163
 10
415.5325173356787
 20
441.2900301123677
 10
415.2486210102158
 20
440.4117218355242
 10
414.9333008736058
 20
439.5245436114477
 10
414.587874377655
 20
438.6294346504999
 10
414.2136589741695
 20
437.7273341630425
 10
413.8119721149557
 20
436.8191813594374
 10
413.3841312518195
 20
435.9059154500461
 10
412.9314538365673
 20
434.9884756452306
 10
412.4552573210054
 20
434.0678011553525
 10
411.9568591569396
 20
433.1448311907737
 10
411.4375767961765
 20
432.2205049618557
 10
410.8987276905222
 20
431.2957616789605
 10
410.3416292917827
 20
430.3715405524497
 10
409.7675990517644
 20
429.4487807926851
 10
409.1779544222735
 20
428.5284216100285
 10
408.5740128551162
 20
427.6114022148416
 10
407.9570918020985
 20
426.698661817486
 10
407.3285087150268
 20
425.7911396283238
 10
406.6895810457073
 20
424.8897748577164
 10
406.0416262459461
 20
423.9955067160258
 10
405.3859617675494
 20
423.1092744136135
 10
404.7239050623234
 20
422.2320171608416
 10
404.0567735820744
 20
421.3646741680716
 10
403.3858847786085
 20
420.5081846456652
 10
402.7125561037319
 20
419.6634878039843
  0
LWPOLYLINE
  5
66
100
AcDbEntity
  8
LAYER_2
  6
ByLayer
 62
    1
370
   -1
100
AcDbPolyline
 90
   32
 70
    0
 43
0
 10
402.7125561037319
 20
419.6634878039843
 10
402.3753900192817
 20
419.2458552080735
 10
402.0381119923802
 20
418.8315229123566
 10
401.7008867150251
 20
418.4206080583267
 10
401.3638788792146
 20
418.0132277874771
 10
401.0272531769465
 20
417.6094992413007
 10
400.6911743002188
 20
417.2095395612906
 10
400.3558069410294
 20
416.8134658889399
 10
400.0213157913761
 20
416.4213953657416
 10
399.6878655432571
 20
416.0334451331889
 10
399.3556208886702
 20
415.6497323327748
 10
399.0247465196131
 20
415.2703741059924
 10
398.6954071280842
 20
414.8954875943348
 10
398.367767406081
 20
414.525189939295
 10
398.0419920456017
 20
414.1595982823661
 10
397.7182457386439
 20
413.7988297650411
 10
397.3966931772059
 20
413.4430015288133
 10
397.0774990532854
 20
413.0922307151757
 10
396.7608280588803
 20
412.7466344656212
 10
396.4468448859888
 20
412.406329921643
 10
396.1357142266085
 20
412.0714342247341
 10
395.8276007727375
 20
411.7420645163877
 10
395.5226692163738
 20
411.4183379380968
 10
395.2210842495152
 20
411.1003716313544
 10
394.9230105641595
 20
410.7882827376539
 10
394.628612852305
 20
410.482188398488
 10
394.3380558059494
 20
410.1822057553499
 10
394.0515041170904
 20
409.8884519497328
 10
393.7691224777264
 20
409.6010441231295
 10
393.491075579855
 20
409.3200994170332
 10
393.2175281154741
 20
409.0457349729372
 10
392.9486447765819
 20
408.7780679323344
  0
LWPOLYLINE
  5
67
100
AcDbEntity
  8
LAYER_2
  6
ByLayer
 62
    1
370
   -1
100
AcDbPolyline
 90
   32
 70
    0
 43
0
 10
392.9486447765819
 20
408.7780679323344
 10
392.8160070157583
 20
408.646779836644
 10
392.6846026741638
 20
408.5172058483024
 10
392.554452052596
 20
408.3893609698939
 10
392.4255754518525
 20
408.2632602040027
 10
392.2979931727307
 20
408.1389185532133
 10
392.1717255160286
 20
408.0163510201101
 10
392.0467927825435
 20
407.8955726072771
 10
391.923215273073
 20
407.7765983172991
 10
391.8010132884146
 20
407.6594431527603
 10
391.6802071293661
 20
407.5441221162449
 10
391.5608170967249
 20
407.4306502103374
 10
391.4428634912887
 20
407.3190424376221
 10
391.3263666138551
 20
407.2093138006833
 10
391.2113467652216
 20
407.1014793021055
 10
391.0978242461858
 20
406.9955539444729
 10
390.9858193575453
 20
406.8915527303699
 10
390.8753524000977
 20
406.7894906623808
 10
390.7664436746406
 20
406.6893827430901
 10
390.6591134819715
 20
406.591243975082
 10
390.553382122888
 20
406.4950893609409
 10
390.4492698981879
 20
406.4009339032511
 10
390.3467971086685
 20
406.308792604597
 10
390.2459840551275
 20
406.218680467563
 10
390.1468510383625
 20
406.1306124947333
 10
390.0494183591711
 20
406.0446036886926
 10
389.9537063183507
 20
405.9606690520247
 10
389.8597352166991
 20
405.8788235873143
 10
389.7675253550139
 20
405.7990822971458
 10
389.6770970340925
 20
405.7214601841034
 10
389.5884705547326
 20
405.6459722507714
 10
389.5016662177319
 20
405.5726334997344
  0
LWPOLYLINE
  5
68
100
AcDbEntity
  8
LAYER_2
  6
ByLayer
 62
    1
370
   -1
100
AcDbPolyline
 90
   32
 70
    0
 43
0
 10
389.5016662177319
 20
405.5726334997344
 10
389.4589518945712
 20
405.536774471703
 10
389.4166992115572
 20
405.5014578005664
 10
389.374911035179
 20
405.4666853169522
 10
389.3335902319254
 20
405.4324588514887
 10
389.2927396682853
 20
405.3987802348032
 10
389.2523622107475
 20
405.365651297524
 10
389.2124607258011
 20
405.3330738702787
 10
389.1730380799347
 20
405.3010497836955
 10
389.1340971396374
 20
405.2695808684018
 10
389.095640771398
 20
405.2386689550258
 10
389.0576718417054
 20
405.2083158741955
 10
389.0201932170485
 20
405.1785234565384
 10
388.983207763916
 20
405.1492935326826
 10
388.946718348797
 20
405.1206279332558
 10
388.9107278381804
 20
405.092528488886
 10
388.8752390985549
 20
405.0649970302011
 10
388.8402549964096
 20
405.0380353878289
 10
388.8057783982331
 20
405.0116453923973
 10
388.7718121705145
 20
404.9858288745341
 10
388.7383591797427
 20
404.9605876648671
 10
388.7054222924065
 20
404.9359235940245
 10
388.6730043749947
 20
404.9118384926338
 10
388.6411082939964
 20
404.8883341913231
 10
388.6097369159002
 20
404.8654125207203
 10
388.5788931071953
 20
404.843075311453
 10
388.5485797343703
 20
404.8213243941493
 10
388.5187996639143
 20
404.8001615994372
 10
388.4895557623161
 20
404.7795887579441
 10
388.4608508960645
 20
404.7596077002981
 10
388.4326879316485
 20
404.7402202571274
 10
388.4050697355569
 20
404.7214282590593
  0
LWPOLYLINE
  5
69
100
AcDbEntity
  8
LAYER_2
  6
ByLayer
 62
    1
370
   -1
100
AcDbPolyline
 90
   32
 70
    0
 43
0
 10
388.4050697355569
 20
404.7214282590593
 10
388.3914642285032
 20
404.7122624561331
 10
388.3779938822375
 20
404.7032501621879
 10
388.3646592167479
 20
404.6943913692734
 10
388.351460752022
 20
404.6856860694389
 10
388.3383990080479
 20
404.6771342547341
 10
388.3254745048134
 20
404.6687359172087
 10
388.3126877623062
 20
404.6604910489121
 10
388.3000393005144
 20
404.6523996418937
 10
388.2875296394257
 20
404.6444616882031
 10
388.2751592990281
 20
404.6366771798901
 10
388.2629287993093
 20
404.6290461090039
 10
388.2508386602573
 20
404.6215684675943
 10
388.2388894018599
 20
404.6142442477106
 10
388.227081544105
 20
404.6070734414026
 10
388.2154156069804
 20
404.6000560407196
 10
388.2038921104739
 20
404.5931920377113
 10
388.1925115745736
 20
404.5864814244272
 10
388.1812745192672
 20
404.579924192917
 10
388.1701814645424
 20
404.5735203352298
 10
388.1592329303875
 20
404.5672698434155
 10
388.1484294367899
 20
404.5611727095238
 10
388.1377715037378
 20
404.5552289256038
 10
388.1272596512188
 20
404.5494384837052
 10
388.116894399221
 20
404.5438013758778
 10
388.1066762677321
 20
404.5383175941707
 10
388.09660577674
 20
404.5329871306338
 10
388.0866834462325
 20
404.5278099773165
 10
388.0769097961977
 20
404.5227861262684
 10
388.0672853466232
 20
404.5179155695389
 10
388.057810617497
 20
404.5131982991777
 10
388.0484861288069
 20
404.5086343072343
  0
LWPOLYLINE
  5
6A
100
AcDbEntity
  8
LAYER_2
  6
ByLayer
 62
    1
370
   -1
100
AcDbPolyline
 90
   32
 70
    0
 43
0
 10
388.0484861288069
 20
404.5086343072343
 10
388.039304240953
 20
404.504222123583
 10
388.0302639070321
 20
404.4999713727299
 10
388.0213668903718
 20
404.4958816988571
 10
388.0126149543004
 20
404.4919527461469
 10
388.0040098621456
 20
404.4881841587813
 10
387.9955533772356
 20
404.4845755809424
 10
387.987247262898
 20
404.4811266568125
 10
387.979093282461
 20
404.4778370305736
 10
387.9710931992524
 20
404.4747063464076
 10
387.9632487766002
 20
404.4717342484972
 10
387.9555617778323
 20
404.468920381024
 10
387.9480339662766
 20
404.4662643881703
 10
387.9406671052612
 20
404.4637659141183
 10
387.9334629581139
 20
404.4614246030501
 10
387.9264232881628
 20
404.4592400991477
 10
387.9195498587356
 20
404.4572120465933
 10
387.9128444331603
 20
404.4553400895691
 10
387.9063087747649
 20
404.4536238722571
 10
387.8999446468774
 20
404.4520630388395
 10
387.8937538128256
 20
404.4506572334984
 10
387.8877380359376
 20
404.4494061004159
 10
387.8818990795411
 20
404.4483092837743
 10
387.8762387069643
 20
404.4473664277555
 10
387.870758681535
 20
404.4465771765416
 10
387.8654607665811
 20
404.4459411743151
 10
387.8603467254306
 20
404.4454580652576
 10
387.8554183214115
 20
404.4451274935518
 10
387.8506773178516
 20
404.4449491033793
 10
387.8461254780789
 20
404.4449225389225
 10
387.8417645654214
 20
404.4450474443635
 10
387.8375963432069
 20
404.4453234638843
  0
LWPOLYLINE
  5
6B
100
AcDbEntity
  8
LAYER_2
  6
ByLayer
 62
    1
370
   -1
100
AcDbPolyline
 90
   32
 70
    0
 43
0
 10
387.8375963432069
 20
404.4453234638843
 10
387.8332945718691
 20
404.4457742785756
 10
387.8288059510249
 20
404.4463671947354
 10
387.8241312833915
 20
404.4471027460904
 10
387.8192713716863
 20
404.4479814663674
 10
387.8142270186266
 20
404.4490038892932
 10
387.8089990269297
 20
404.4501705485947
 10
387.8035881993128
 20
404.4514819779984
 10
387.7979953384934
 20
404.4529387112316
 10
387.7922212471888
 20
404.4545412820207
 10
387.7862667281161
 20
404.4562902240928
 10
387.7801325839928
 20
404.4581860711746
 10
387.7738196175362
 20
404.4602293569928
 10
387.7673286314636
 20
404.4624206152743
 10
387.7606604284923
 20
404.4647603797461
 10
387.7538158113396
 20
404.4672491841346
 10
387.7467955827229
 20
404.469887562167
 10
387.7396005453594
 20
404.47267604757
 10
387.7322315019664
 20
404.4756151740702
 10
387.7246892552613
 20
404.4787054753947
 10
387.7169746079615
 20
404.4819474852703
 10
387.7090883627841
 20
404.4853417374235
 10
387.7010313224465
 20
404.4888887655814
 10
387.6928042896661
 20
404.4925891034708
 10
387.6844080671601
 20
404.4964432848183
 10
387.6758434576458
 20
404.5004518433509
 10
387.6671112638407
 20
404.5046153127954
 10
387.6582122884619
 20
404.5089342268786
 10
387.6491473342268
 20
404.5134091193273
 10
387.6399172038528
 20
404.5180405238683
 10
387.630522700057
 20
404.5228289742283
 10
387.6209646255569
 20
404.5277750041343
  0
LWPOLYLINE
  5
6C
100
AcDbEntity
  8
LAYER_2
  6
ByLayer
 62
    1
370
   -1
100
AcDbPolyline
 90
   32
 70
    0
 43
0
 10
387.6209646255569
 20
404.5277750041343
 10
387.611243573545
 20
404.5328750765041
 10
387.6013601185
 20
404.5381250625741
 10
387.591314934537
 20
404.5435246085488
 10
387.5811086957711
 20
404.5490733606331
 10
387.5707420763177
 20
404.5547709650313
 10
387.5602157502919
 20
404.5606170679482
 10
387.5495303918087
 20
404.5666113155881
 10
387.5386866749835
 20
404.5727533541561
 10
387.5276852739312
 20
404.5790428298565
 10
387.5165268627671
 20
404.5854793888939
 10
387.5052121156065
 20
404.5920626774731
 10
387.4937417065643
 20
404.5987923417985
 10
387.4821163097559
 20
404.6056680280749
 10
387.4703365992964
 20
404.6126893825068
 10
387.4584032493009
 20
404.6198560512988
 10
387.4463169338846
 20
404.6271676806555
 10
387.4340783271627
 20
404.6346239167814
 10
387.4216881032502
 20
404.6422244058815
 10
387.4091469362625
 20
404.6499687941601
 10
387.3964555003147
 20
404.6578567278218
 10
387.3836144695219
 20
404.6658878530714
 10
387.3706245179993
 20
404.6740618161132
 10
387.357486319862
 20
404.6823782631523
 10
387.3442005492253
 20
404.6908368403928
 10
387.3307678802043
 20
404.6994371940396
 10
387.3171889869141
 20
404.7081789702972
 10
387.3034645434699
 20
404.7170618153703
 10
387.289595223987
 20
404.7260853754635
 10
387.2755817025804
 20
404.7352492967813
 10
387.2614246533653
 20
404.7445532255283
 10
387.2471247504569
 20
404.7539968079093
  0
LWPOLYLINE
  5
6D
100
AcDbEntity
  8
LAYER_2
  6
ByLayer
 62
    1
370
   -1
100
AcDbPolyline
 90
   32
 70
    0
 43
0
 10
387.2471247504569
 20
404.7539968079093
 10
387.2180909465045
 20
404.7733051677447
 10
387.1884739172338
 20
404.7931778607965
 10
387.1582766221678
 20
404.8136131395681
 10
387.1275020208298
 20
404.8346092565625
 10
387.096153072743
 20
404.8561644642831
 10
387.0642327374306
 20
404.8782770152332
 10
387.0317439744159
 20
404.9009451619157
 10
386.9986897432218
 20
404.9241671568343
 10
386.9650730033717
 20
404.947941252492
 10
386.9308967143888
 20
404.9722657013919
 10
386.8961638357962
 20
404.9971387560376
 10
386.8608773271171
 20
405.0225586689319
 10
386.8250401478747
 20
405.0485236925784
 10
386.7886552575924
 20
405.0750320794802
 10
386.7517256157931
 20
405.1020820821406
 10
386.7142541820001
 20
405.1296719530627
 10
386.6762439157366
 20
405.1577999447498
 10
386.6376977765258
 20
405.1864643097052
 10
386.5986187238909
 20
405.215663300432
 10
386.559009717355
 20
405.2453951694337
 10
386.5188737164415
 20
405.2756581692132
 10
386.4782136806733
 20
405.306450552274
 10
386.4370325695738
 20
405.3377705711191
 10
386.3953333426662
 20
405.3696164782522
 10
386.3531189594735
 20
405.4019865261759
 10
386.3103923795191
 20
405.4348789673938
 10
386.267156562326
 20
405.4682920544092
 10
386.2234144674177
 20
405.5022240397252
 10
386.179169054317
 20
405.5366731758451
 10
386.1344232825473
 20
405.5716377152721
 10
386.0891801116319
 20
405.6071159105093
  0
LWPOLYLINE
  5
6E
100
AcDbEntity
  8
LAYER_2
  6
ByLayer
 62
    1
370
   -1
100
AcDbPolyline
 90
   32
 70
    0
 43
0
 10
386.0891801116319
 20
405.6071159105093
 10
385.9972149136393
 20
405.6796058404902
 10
385.9032936847818
 20
405.7541313751703
 10
385.8074383991498
 20
405.8306797595737
 10
385.7096710308333
 20
405.9092382387248
 10
385.6100135539224
 20
405.9897940576474
 10
385.508487942507
 20
406.0723344613658
 10
385.4051161706773
 20
406.1568466949041
 10
385.2999202125234
 20
406.2433180032866
 10
385.1929220421354
 20
406.3317356315371
 10
385.0841436336032
 20
406.4220868246799
 10
384.973606961017
 20
406.5143588277392
 10
384.8613339984669
 20
406.6085388857391
 10
384.7473467200429
 20
406.7046142437035
 10
384.6316670998351
 20
406.8025721466569
 10
384.5143171119335
 20
406.9023998396232
 10
384.3953187304282
 20
407.0040845676265
 10
384.2746939294094
 20
407.1076135756911
 10
384.152464682967
 20
407.2129741088409
 10
384.0286529651911
 20
407.3201534121004
 10
383.9032807501719
 20
407.4291387304933
 10
383.7763700119993
 20
407.539917309044
 10
383.6479427247635
 20
407.6524763927766
 10
383.5180208625545
 20
407.7668032267151
 10
383.3866263994625
 20
407.8828850558837
 10
383.2537813095774
 20
408.0007091253065
 10
383.1195075669892
 20
408.1202626800078
 10
382.9838271457883
 20
408.2415329650117
 10
382.8467620200645
 20
408.364507225342
 10
382.708334163908
 20
408.4891727060231
 10
382.5685655514087
 20
408.6155166520792
 10
382.4274781566569
 20
408.7435263085343
  0
LWPOLYLINE
  5
6F
100
AcDbEntity
  8
LAYER_2
  6
ByLayer
 62
    1
370
   -1
100
AcDbPolyline
 90
   32
 70
    0
 43
0
 10
382.4274781566569
 20
408.7435263085343
 10
382.1414458416616
 20
409.0044869064613
 10
381.8504254324203
 20
409.2719457410927
 10
381.5545960713072
 20
409.5457979336804
 10
381.2541369006963
 20
409.8259386054762
 10
380.9492270629618
 20
410.1122628777318
 10
380.640045700478
 20
410.4046658716993
 10
380.3267719556187
 20
410.7030427086301
 10
380.0095849707582
 20
411.0072885097763
 10
379.6886638882709
 20
411.3172983963895
 10
379.3641878505304
 20
411.6329674897216
 10
379.0363359999113
 20
411.9541909110243
 10
378.7052874787875
 20
412.2808637815496
 10
378.3712214295332
 20
412.612881222549
 10
378.0343169945226
 20
412.9501383552745
 10
377.6947533161298
 20
413.2925303009779
 10
377.3527095367288
 20
413.6399521809108
 10
377.0083647986938
 20
413.9922991163253
 10
376.6618982443993
 20
414.349466228473
 10
376.3134890162189
 20
414.7113486386057
 10
375.9633162565269
 20
415.0778414679753
 10
375.6115591076975
 20
415.4488398378335
 10
375.2583967121049
 20
415.8242388694321
 10
374.9040082121232
 20
416.2039336840227
 10
374.5485727501264
 20
416.5878194028576
 10
374.1922694684889
 20
416.9757911471883
 10
373.8352775095846
 20
417.3677440382663
 10
373.4777760157877
 20
417.763573197344
 10
373.1199441294723
 20
418.1631737456728
 10
372.7619609930126
 20
418.5664408045045
 10
372.4040057487828
 20
418.9732694950911
 10
372.046257539157
 20
419.3835549386844
  0
LWPOLYLINE
  5
70
100
AcDbEntity
  8
LAYER_2
  6
ByLayer
 62
    1
370
   -1
100
AcDbPolyline
 90
   32
 70
    0
 43
0
 10
372.046257539157
 20
419.3835549386844
 10
371.3320940239499
 20
420.2141024651443
 10
370.620895734296
 20
421.0572707324267
 10
369.9140913860135
 20
421.912224149816
 10
369.2131096949212
 20
422.7781271265978
 10
368.5193793768372
 20
423.6541440720567
 10
367.8343291475801
 20
424.5394393954776
 10
367.1593877229683
 20
425.4331775061455
 10
366.4959838188202
 20
426.3345228133455
 10
365.8455461509544
 20
427.2426397263623
 10
365.2095034351892
 20
428.1566926544809
 10
364.5892843873431
 20
429.0758460069864
 10
363.9863177232345
 20
429.9992641931636
 10
363.4020321586819
 20
430.9261116222974
 10
362.8378564095038
 20
431.8555527036729
 10
362.2952191915184
 20
432.7867518465749
 10
361.7755492205443
 20
433.7188734602884
 10
361.2802752124001
 20
434.6510819540985
 10
360.810825882904
 20
435.5825417372899
 10
360.3686299478745
 20
436.5124172191476
 10
359.9551161231302
 20
437.4398728089566
 10
359.5717131244893
 20
438.3640729160019
 10
359.2198496677703
 20
439.2841819495683
 10
358.9009544687919
 20
440.1993643189409
 10
358.6164562433722
 20
441.1087844334044
 10
358.36778370733
 20
442.011606702244
 10
358.1563655764833
 20
442.9069955347445
 10
357.983630566651
 20
443.7941153401909
 10
357.8510073936511
 20
444.6721305278682
 10
357.7599247733024
 20
445.5402055070612
 10
357.7118114214231
 20
446.3975046870549
 10
357.7080960538319
 20
447.2431924771343
  0
LWPOLYLINE
  5
71
100
AcDbEntity
  8
LAYER_2
  6
ByLayer
 62
    1
370
   -1
100
AcDbPolyline
 90
   32
 70
    0
 43
0
 10
357.7080960538319
 20
447.2431924771343
 10
357.7204082070112
 20
447.5445822276986
 10
357.7437537215965
 20
447.8513936476778
 10
357.7779734098177
 20
448.1632853123861
 10
357.8229080839045
 20
448.4799157971377
 10
357.8783985560866
 20
448.8009436772466
 10
357.944285638594
 20
449.1260275280272
 10
358.0204101436564
 20
449.4548259247936
 10
358.1066128835037
 20
449.7869974428599
 10
358.2027346703657
 20
450.1222006575404
 10
358.3086163164721
 20
450.4600941441491
 10
358.4240986340529
 20
450.8003364780004
 10
358.5490224353378
 20
451.1425862344086
 10
358.6832285325565
 20
451.4865019886874
 10
358.8265577379391
 20
451.8317423161512
 10
358.9788508637151
 20
452.1779657921143
 10
359.1399487221146
 20
452.5248309918907
 10
359.3096921253671
 20
452.8719964907948
 10
359.4879218857027
 20
453.2191208641405
 10
359.6744788153511
 20
453.5658626872423
 10
359.8692037265421
 20
453.911880535414
 10
360.0719374315055
 20
454.2568329839701
 10
360.2825207424711
 20
454.6003786082245
 10
360.5007944716689
 20
454.9421759834916
 10
360.7265994313285
 20
455.2818836850856
 10
360.9597764336797
 20
455.6191602883205
 10
361.2001662909524
 20
455.9536643685105
 10
361.4476098153766
 20
456.2850545009699
 10
361.7019478191817
 20
456.6129892610128
 10
361.9630211145977
 20
456.9371272239534
 10
362.2306705138545
 20
457.2571269651058
 10
362.5047368291819
 20
457.5726470597843
  0
LWPOLYLINE
  5
72
100
AcDbEntity
  8
LAYER_2
  6
ByLayer
 62
    1
370
   -1
100
AcDbPolyline
 90
   32
 70
    0
 43
0
 10
362.5047368291819
 20
457.5726470597843
 10
362.7850558282091
 20
457.8833418728961
 10
363.0714621514134
 20
458.1888673865926
 10
363.3637953224228
 20
458.4888831946137
 10
363.6618948648653
 20
458.7830488906994
 10
363.9656003023687
 20
459.0710240685898
 10
364.2747511585609
 20
459.3524683220247
 10
364.58918695707
 20
459.6270412447441
 10
364.9087472215237
 20
459.8944024304881
 10
365.23327147555
 20
460.1542114729965
 10
365.5625992427769
 20
460.4061279660094
 10
365.8965700468323
 20
460.6498115032668
 10
366.2350234113439
 20
460.8849216785085
 10
366.5777988599399
 20
461.1111180854748
 10
366.9247359162482
 20
461.3280603179054
 10
367.2756741038965
 20
461.5354079695402
 10
367.6304529465128
 20
461.7328206341195
 10
367.9889119677252
 20
461.9199579053829
 10
368.3508906911613
 20
462.0964793770708
 10
368.7162286404493
 20
462.2620446429228
 10
369.084765339217
 20
462.416313296679
 10
369.4563403110923
 20
462.5589449320795
 10
369.8307930797031
 20
462.6895991428642
 10
370.2079631686775
 20
462.8079355227728
 10
370.5876901016432
 20
462.9136136655458
 10
370.9698134022282
 20
463.0062931649227
 10
371.3541725940604
 20
463.0856336146438
 10
371.7406072007678
 20
463.1512946084489
 10
372.1289567459782
 20
463.202935740078
 10
372.5190607533196
 20
463.2402166032712
 10
372.9107587464198
 20
463.2627967917683
 10
373.3038902489069
 20
463.2703358993094
  0
LWPOLYLINE
  5
73
100
AcDbEntity
  8
LAYER_2
  6
ByLayer
 62
    1
370
   -1
100
AcDbPolyline
 90
    3
 70
    0
 43
0
 10
387.2988828209819
 20
455.2452891541343
 10
387.3141954477569
 20
455.2203573541344
 10
387.3276426911069
 20
455.2452891541343
  0
LWPOLYLINE
  5
74
100
AcDbEntity
  8
LAYER_2
  6
ByLayer
 62
    1
370
   -1
100
AcDbPolyline
 90
    1
 70
    1
 43
0
 10
373.3038902489069
 20
463.2703358993094
  0
ENDSEC
  0
SECTION
  2
OBJECTS
  0
DICTIONARY
  5
C
330
0
100
AcDbDictionary
281
    1
  3
ACAD_GROUP
350
D
  0
DICTIONARY
  5
D
330
C
100
AcDbDictionary
281
    1
  0
ENDSEC
  0
EOF
