  0
SECTION
  2
HEADER
  9
$ACADVER
  1
AC1014
  9
$HANDSEED
  5
FFFF
  9
$MEASUREMENT
 70
     1
  0
ENDSEC
  0
SECTION
  2
TABLES
  0
TABLE
  2
VPORT
  5
8
330
0
100
AcDbSymbolTable
 70
     4
  0
VPORT
  5
2E
330
8
100
AcDbSymbolTableRecord
100
AcDbViewportTableRecord
  2
*ACTIVE
 70
     0
 10
0.0
 20
0.0
 11
1.0
 21
1.0
 12
210.0
 22
148.5
 13
0.0
 23
0.0
 14
10.0
 24
10.0
 15
10.0
 25
10.0
 16
0.0
 26
0.0
 36
1.0
 17
0.0
 27
0.0
 37
0.0
 40
341.0
 41
1.24
 42
50.0
 43
0.0
 44
0.0
 50
0.0
 51
0.0
 71
     0
 72
   100
 73
     1
 74
     3
 75
     0
 76
     0
 77
     0
 78
     0
  0
ENDTAB
  0
TABLE
  2
LTYPE
  5
5
330
0
100
AcDbSymbolTable
 70
     1
  0
LTYPE
  5
14
330
5
100
AcDbSymbolTableRecord
100
AcDbLinetypeTableRecord
  2
BYBLOCK
 70
     0
  3

 72
    65
 73
     0
 40
0.0
  0
LTYPE
  5
15
330
5
100
AcDbSymbolTableRecord
100
AcDbLinetypeTableRecord
  2
BYLAYER
 70
     0
  3

 72
    65
 73
     0
 40
0.0
  0
LTYPE
  5
16
330
5
100
AcDbSymbolTableRecord
100
AcDbLinetypeTableRecord
  2
CONTINUOUS
 70
     0
  3
Solid line
 72
    65
 73
     0
 40
0.0
  0
ENDTAB
  0
TABLE
  2
LAYER
  5
2
100
AcDbSymbolTable
 70
4
  0
LAYER
  5
50
100
AcDbSymbolTableRecord
100
AcDbLayerTableRecord
  2
0
 70
0
  6
CONTINUOUS
  0
LAYER
  5
51
100
AcDbSymbolTableRecord
100
AcDbLayerTableRecord
  2
Layer_1
 70
0
  6
CONTINUOUS
  0
LAYER
  5
52
100
AcDbSymbolTableRecord
100
AcDbLayerTableRecord
  2
jpg
 70
0
  6
CONTINUOUS
  0
LAYER
  5
53
100
AcDbSymbolTableRecord
100
AcDbLayerTableRecord
  2
path
 70
0
  6
CONTINUOUS
  0
ENDTAB
  0
TABLE
  2
STYLE
  5
3
330
0
100
AcDbSymbolTable
 70
     1
  0
STYLE
  5
11
330
3
100
AcDbSymbolTableRecord
100
AcDbTextStyleTableRecord
  2
STANDARD
 70
     0
 40
0.0
 41
1.0
 50
0.0
 71
     0
 42
2.5
  3
txt
  4

  0
ENDTAB
  0
TABLE
  2
VIEW
  5
6
330
0
100
AcDbSymbolTable
 70
     0
  0
ENDTAB
  0
TABLE
  2
UCS
  5
7
330
0
100
AcDbSymbolTable
 70
     0
  0
ENDTAB
  0
TABLE
  2
APPID
  5
9
330
0
100
AcDbSymbolTable
 70
     2
  0
APPID
  5
12
330
9
100
AcDbSymbolTableRecord
100
AcDbRegAppTableRecord
  2
ACAD
 70
     0
  0
ENDTAB
  0
TABLE
  2
DIMSTYLE
  5
A
330
0
100
AcDbSymbolTable
 70
     1
  0
DIMSTYLE
105
27
330
A
100
AcDbSymbolTableRecord
100
AcDbDimStyleTableRecord
  2
ISO-25
 70
     0
  3

  4

  5

  6

  7

 40
1.0
 41
2.5
 42
0.625
 43
3.75
 44
1.25
 45
0.0
 46
0.0
 47
0.0
 48
0.0
140
2.5
141
2.5
142
0.0
143
0.03937007874016
144
1.0
145
0.0
146
1.0
147
0.625
 71
     0
 72
     0
 73
     0
 74
     0
 75
     0
 76
     0
 77
     1
 78
     8
170
     0
171
     3
172
     1
173
     0
174
     0
175
     0
176
     0
177
     0
178
     0
270
     2
271
     2
272
     2
273
     2
274
     3
340
11
275
     0
280
     0
281
     0
282
     0
283
     0
284
     8
285
     0
286
     0
287
     3
288
     0
  0
ENDTAB
  0
TABLE
  2
BLOCK_RECORD
  5
1
330
0
100
AcDbSymbolTable
 70
     1
  0
BLOCK_RECORD
  5
1F
330
1
100
AcDbSymbolTableRecord
100
AcDbBlockTableRecord
  2
*MODEL_SPACE
  0
BLOCK_RECORD
  5
1B
330
1
100
AcDbSymbolTableRecord
100
AcDbBlockTableRecord
  2
*PAPER_SPACE
  0
ENDTAB
  0
ENDSEC
  0
SECTION
  2
BLOCKS
  0
BLOCK
  5
20
330
1F
100
AcDbEntity
  8
0
100
AcDbBlockBegin
  2
*MODEL_SPACE
 70
     0
 10
0.0
 20
0.0
 30
0.0
  3
*MODEL_SPACE
  1

  0
ENDBLK
  5
21
330
1F
100
AcDbEntity
  8
0
100
AcDbBlockEnd
  0
BLOCK
  5
1C
330
1B
100
AcDbEntity
 67
     1
  8
0
100
AcDbBlockBegin
  2
*PAPER_SPACE
  1

  0
ENDBLK
  5
1D
330
1B
100
AcDbEntity
 67
     1
  8
0
100
AcDbBlockEnd
  0
ENDSEC
  0
SECTION
  2
ENTITIES
  0
LWPOLYLINE
  5
100
100
AcDbEntity
  8
path
 62
7
100
AcDbPolyline
 90
75
 70
1
 10
113.003020
 20
158.605340
 30
0.0
 10
111.022267
 20
158.444938
 30
0.0
 10
109.095568
 20
157.986066
 30
0.0
 10
107.242837
 20
157.255479
 30
0.0
 10
105.483990
 20
156.279930
 30
0.0
 10
103.838936
 20
155.086174
 30
0.0
 10
102.327600
 20
153.700950
 30
0.0
 10
100.969880
 20
152.151020
 30
0.0
 10
100.354860
 20
151.322650
 30
0.0
 10
100.025815
 20
151.134336
 30
0.0
 10
99.798427
 20
151.100020
 30
0.0
 10
99.540279
 20
151.134499
 30
0.0
 10
99.215158
 20
151.314350
 30
0.0
 10
98.599462
 20
152.134700
 30
0.0
 10
97.242456
 20
153.669550
 30
0.0
 10
95.734312
 20
155.041186
 30
0.0
 10
94.094650
 20
156.223110
 30
0.0
 10
92.343086
 20
157.188820
 30
0.0
 10
90.499239
 20
157.911804
 30
0.0
 10
88.582729
 20
158.365559
 30
0.0
 10
86.613172
 20
158.523580
 30
0.0
 10
85.053020
 20
158.443109
 30
0.0
 10
83.519295
 20
158.204668
 30
0.0
 10
82.022346
 20
157.812723
 30
0.0
 10
80.572525
 20
157.271741
 30
0.0
 10
79.180180
 20
156.586190
 30
0.0
 10
77.855663
 20
155.760536
 30
0.0
 10
76.609324
 20
154.799247
 30
0.0
 10
75.451512
 20
153.706790
 30
0.0
 10
74.402935
 20
152.500526
 30
0.0
 10
73.480259
 20
151.202027
 30
0.0
 10
72.687770
 20
149.822078
 30
0.0
 10
72.029756
 20
148.371463
 30
0.0
 10
71.510504
 20
146.860964
 30
0.0
 10
71.134303
 20
145.301367
 30
0.0
 10
70.905440
 20
143.703454
 30
0.0
 10
70.828202
 20
142.078010
 30
0.0
 10
70.968423
 20
138.752063
 30
0.0
 10
71.499793
 20
135.336710
 30
0.0
 10
71.964045
 20
133.604902
 30
0.0
 10
72.588347
 20
131.862017
 30
0.0
 10
73.393455
 20
130.111814
 30
0.0
 10
74.400122
 20
128.358050
 30
0.0
 10
78.405482
 20
122.886918
 30
0.0
 10
84.965661
 20
114.968006
 30
0.0
 10
88.735779
 20
110.783119
 30
0.0
 10
92.582970
 20
106.817271
 30
0.0
 10
96.320021
 20
103.347457
 30
0.0
 10
99.759722
 20
100.650670
 30
0.0
 10
102.855661
 20
103.393128
 30
0.0
 10
106.400484
 20
106.849821
 30
0.0
 10
113.960902
 20
114.888153
 30
0.0
 10
120.689219
 20
122.730145
 30
0.0
 10
123.193916
 20
125.941415
 30
0.0
 10
124.833680
 20
128.340280
 30
0.0
 10
126.727625
 20
132.032564
 30
0.0
 10
127.945104
 20
135.522279
 30
0.0
 10
128.595431
 20
138.875867
 30
0.0
 10
128.787920
 20
142.159770
 30
0.0
 10
128.710680
 20
143.785210
 30
0.0
 10
128.481816
 20
145.383119
 30
0.0
 10
128.105617
 20
146.942713
 30
0.0
 10
127.586370
 20
148.453209
 30
0.0
 10
126.928361
 20
149.903822
 30
0.0
 10
126.135879
 20
151.283769
 30
0.0
 10
125.213209
 20
152.582266
 30
0.0
 10
124.164640
 20
153.788530
 30
0.0
 10
123.006832
 20
154.880984
 30
0.0
 10
121.760497
 20
155.842271
 30
0.0
 10
120.435984
 20
156.667924
 30
0.0
 10
119.043644
 20
157.353476
 30
0.0
 10
117.593827
 20
157.894461
 30
0.0
 10
116.096884
 20
158.286411
 30
0.0
 10
114.563165
 20
158.524859
 30
0.0
 10
113.003020
 20
158.605340
 30
0.0
  0
ENDSEC
  0
SECTION
  2
OBJECTS
  0
DICTIONARY
  5
C
330
0
100
AcDbDictionary
  3
ACAD_GROUP
350
D
  3
ACAD_MLINESTYLE
350
17
  0
DICTIONARY
  5
D
330
C
100
AcDbDictionary
  0
DICTIONARY
  5
1A
330
C
100
AcDbDictionary
  0
DICTIONARY
  5
17
330
C
100
AcDbDictionary
  3
STANDARD
350
18
  0
DICTIONARY
  5
19
330
C
100
AcDbDictionary
  0
ENDSEC
  0
EOF
