G04 #@! TF.FileFunction,Legend,Bot*
%FSLAX46Y46*%
G04 Gerber Fmt 4.6, Leading zero omitted, Abs format (unit mm)*
G04 Created by KiCad (PCBNEW 4.0.7-e2-6376~58~ubuntu16.04.1) date Tue Mar 20 21:15:11 2018*
%MOMM*%
%LPD*%
G01*
G04 APERTURE LIST*
%ADD10C,0.100000*%
%ADD11C,0.150000*%
%ADD12C,0.120000*%
G04 APERTURE END LIST*
D10*
D11*
X130738095Y-114000000D02*
X130833333Y-113952381D01*
X130976190Y-113952381D01*
X131119048Y-114000000D01*
X131214286Y-114095238D01*
X131261905Y-114190476D01*
X131309524Y-114380952D01*
X131309524Y-114523810D01*
X131261905Y-114714286D01*
X131214286Y-114809524D01*
X131119048Y-114904762D01*
X130976190Y-114952381D01*
X130880952Y-114952381D01*
X130738095Y-114904762D01*
X130690476Y-114857143D01*
X130690476Y-114523810D01*
X130880952Y-114523810D01*
X130261905Y-114952381D02*
X130261905Y-113952381D01*
X129690476Y-114952381D01*
X129690476Y-113952381D01*
X129214286Y-114952381D02*
X129214286Y-113952381D01*
X128976191Y-113952381D01*
X128833333Y-114000000D01*
X128738095Y-114095238D01*
X128690476Y-114190476D01*
X128642857Y-114380952D01*
X128642857Y-114523810D01*
X128690476Y-114714286D01*
X128738095Y-114809524D01*
X128833333Y-114904762D01*
X128976191Y-114952381D01*
X129214286Y-114952381D01*
X122140477Y-89407143D02*
X122140477Y-88507143D01*
X121835715Y-88507143D01*
X121759524Y-88550000D01*
X121721429Y-88592857D01*
X121683334Y-88678571D01*
X121683334Y-88807143D01*
X121721429Y-88892857D01*
X121759524Y-88935714D01*
X121835715Y-88978571D01*
X122140477Y-88978571D01*
X121035715Y-89364286D02*
X121111905Y-89407143D01*
X121264286Y-89407143D01*
X121340477Y-89364286D01*
X121378572Y-89278571D01*
X121378572Y-88935714D01*
X121340477Y-88850000D01*
X121264286Y-88807143D01*
X121111905Y-88807143D01*
X121035715Y-88850000D01*
X120997620Y-88935714D01*
X120997620Y-89021429D01*
X121378572Y-89107143D01*
X120769049Y-88807143D02*
X120464287Y-88807143D01*
X120654763Y-88507143D02*
X120654763Y-89278571D01*
X120616668Y-89364286D01*
X120540477Y-89407143D01*
X120464287Y-89407143D01*
X119892858Y-89364286D02*
X119969048Y-89407143D01*
X120121429Y-89407143D01*
X120197620Y-89364286D01*
X120235715Y-89278571D01*
X120235715Y-88935714D01*
X120197620Y-88850000D01*
X120121429Y-88807143D01*
X119969048Y-88807143D01*
X119892858Y-88850000D01*
X119854763Y-88935714D01*
X119854763Y-89021429D01*
X120235715Y-89107143D01*
X119511906Y-89407143D02*
X119511906Y-88807143D01*
X119511906Y-88978571D02*
X119473811Y-88892857D01*
X119435715Y-88850000D01*
X119359525Y-88807143D01*
X119283334Y-88807143D01*
X117950001Y-89321429D02*
X117988096Y-89364286D01*
X118102382Y-89407143D01*
X118178572Y-89407143D01*
X118292858Y-89364286D01*
X118369049Y-89278571D01*
X118407144Y-89192857D01*
X118445239Y-89021429D01*
X118445239Y-88892857D01*
X118407144Y-88721429D01*
X118369049Y-88635714D01*
X118292858Y-88550000D01*
X118178572Y-88507143D01*
X118102382Y-88507143D01*
X117988096Y-88550000D01*
X117950001Y-88592857D01*
X117492858Y-89407143D02*
X117569049Y-89364286D01*
X117607144Y-89278571D01*
X117607144Y-88507143D01*
X116845239Y-89407143D02*
X116845239Y-88935714D01*
X116883334Y-88850000D01*
X116959524Y-88807143D01*
X117111905Y-88807143D01*
X117188096Y-88850000D01*
X116845239Y-89364286D02*
X116921429Y-89407143D01*
X117111905Y-89407143D01*
X117188096Y-89364286D01*
X117226191Y-89278571D01*
X117226191Y-89192857D01*
X117188096Y-89107143D01*
X117111905Y-89064286D01*
X116921429Y-89064286D01*
X116845239Y-89021429D01*
X116464286Y-89407143D02*
X116464286Y-88807143D01*
X116464286Y-88978571D02*
X116426191Y-88892857D01*
X116388095Y-88850000D01*
X116311905Y-88807143D01*
X116235714Y-88807143D01*
X115969048Y-89407143D02*
X115969048Y-88507143D01*
X115892857Y-89064286D02*
X115664286Y-89407143D01*
X115664286Y-88807143D02*
X115969048Y-89150000D01*
X115016667Y-89364286D02*
X115092857Y-89407143D01*
X115245238Y-89407143D01*
X115321429Y-89364286D01*
X115359524Y-89278571D01*
X115359524Y-88935714D01*
X115321429Y-88850000D01*
X115245238Y-88807143D01*
X115092857Y-88807143D01*
X115016667Y-88850000D01*
X114978572Y-88935714D01*
X114978572Y-89021429D01*
X115359524Y-89107143D01*
X114064286Y-88592857D02*
X114026191Y-88550000D01*
X113950000Y-88507143D01*
X113759524Y-88507143D01*
X113683334Y-88550000D01*
X113645238Y-88592857D01*
X113607143Y-88678571D01*
X113607143Y-88764286D01*
X113645238Y-88892857D01*
X114102381Y-89407143D01*
X113607143Y-89407143D01*
X113111905Y-88507143D02*
X113035714Y-88507143D01*
X112959524Y-88550000D01*
X112921429Y-88592857D01*
X112883333Y-88678571D01*
X112845238Y-88850000D01*
X112845238Y-89064286D01*
X112883333Y-89235714D01*
X112921429Y-89321429D01*
X112959524Y-89364286D01*
X113035714Y-89407143D01*
X113111905Y-89407143D01*
X113188095Y-89364286D01*
X113226191Y-89321429D01*
X113264286Y-89235714D01*
X113302381Y-89064286D01*
X113302381Y-88850000D01*
X113264286Y-88678571D01*
X113226191Y-88592857D01*
X113188095Y-88550000D01*
X113111905Y-88507143D01*
X112083333Y-89407143D02*
X112540476Y-89407143D01*
X112311905Y-89407143D02*
X112311905Y-88507143D01*
X112388095Y-88635714D01*
X112464286Y-88721429D01*
X112540476Y-88764286D01*
X111626190Y-88892857D02*
X111702381Y-88850000D01*
X111740476Y-88807143D01*
X111778571Y-88721429D01*
X111778571Y-88678571D01*
X111740476Y-88592857D01*
X111702381Y-88550000D01*
X111626190Y-88507143D01*
X111473809Y-88507143D01*
X111397619Y-88550000D01*
X111359523Y-88592857D01*
X111321428Y-88678571D01*
X111321428Y-88721429D01*
X111359523Y-88807143D01*
X111397619Y-88850000D01*
X111473809Y-88892857D01*
X111626190Y-88892857D01*
X111702381Y-88935714D01*
X111740476Y-88978571D01*
X111778571Y-89064286D01*
X111778571Y-89235714D01*
X111740476Y-89321429D01*
X111702381Y-89364286D01*
X111626190Y-89407143D01*
X111473809Y-89407143D01*
X111397619Y-89364286D01*
X111359523Y-89321429D01*
X111321428Y-89235714D01*
X111321428Y-89064286D01*
X111359523Y-88978571D01*
X111397619Y-88935714D01*
X111473809Y-88892857D01*
X123740478Y-90307143D02*
X123740478Y-91035714D01*
X123778573Y-91121429D01*
X123816668Y-91164286D01*
X123892859Y-91207143D01*
X124007144Y-91207143D01*
X124083335Y-91164286D01*
X123740478Y-90864286D02*
X123816668Y-90907143D01*
X123969049Y-90907143D01*
X124045240Y-90864286D01*
X124083335Y-90821429D01*
X124121430Y-90735714D01*
X124121430Y-90478571D01*
X124083335Y-90392857D01*
X124045240Y-90350000D01*
X123969049Y-90307143D01*
X123816668Y-90307143D01*
X123740478Y-90350000D01*
X123359525Y-90907143D02*
X123359525Y-90307143D01*
X123359525Y-90007143D02*
X123397620Y-90050000D01*
X123359525Y-90092857D01*
X123321430Y-90050000D01*
X123359525Y-90007143D01*
X123359525Y-90092857D01*
X123092859Y-90307143D02*
X122788097Y-90307143D01*
X122978573Y-90007143D02*
X122978573Y-90778571D01*
X122940478Y-90864286D01*
X122864287Y-90907143D01*
X122788097Y-90907143D01*
X122521430Y-90907143D02*
X122521430Y-90007143D01*
X122178573Y-90907143D02*
X122178573Y-90435714D01*
X122216668Y-90350000D01*
X122292858Y-90307143D01*
X122407144Y-90307143D01*
X122483335Y-90350000D01*
X122521430Y-90392857D01*
X121454763Y-90307143D02*
X121454763Y-90907143D01*
X121797620Y-90307143D02*
X121797620Y-90778571D01*
X121759525Y-90864286D01*
X121683334Y-90907143D01*
X121569048Y-90907143D01*
X121492858Y-90864286D01*
X121454763Y-90821429D01*
X121073810Y-90907143D02*
X121073810Y-90007143D01*
X121073810Y-90350000D02*
X120997619Y-90307143D01*
X120845238Y-90307143D01*
X120769048Y-90350000D01*
X120730953Y-90392857D01*
X120692857Y-90478571D01*
X120692857Y-90735714D01*
X120730953Y-90821429D01*
X120769048Y-90864286D01*
X120845238Y-90907143D01*
X120997619Y-90907143D01*
X121073810Y-90864286D01*
X120350000Y-90821429D02*
X120311905Y-90864286D01*
X120350000Y-90907143D01*
X120388095Y-90864286D01*
X120350000Y-90821429D01*
X120350000Y-90907143D01*
X119626191Y-90864286D02*
X119702381Y-90907143D01*
X119854762Y-90907143D01*
X119930953Y-90864286D01*
X119969048Y-90821429D01*
X120007143Y-90735714D01*
X120007143Y-90478571D01*
X119969048Y-90392857D01*
X119930953Y-90350000D01*
X119854762Y-90307143D01*
X119702381Y-90307143D01*
X119626191Y-90350000D01*
X119169048Y-90907143D02*
X119245239Y-90864286D01*
X119283334Y-90821429D01*
X119321429Y-90735714D01*
X119321429Y-90478571D01*
X119283334Y-90392857D01*
X119245239Y-90350000D01*
X119169048Y-90307143D01*
X119054762Y-90307143D01*
X118978572Y-90350000D01*
X118940477Y-90392857D01*
X118902381Y-90478571D01*
X118902381Y-90735714D01*
X118940477Y-90821429D01*
X118978572Y-90864286D01*
X119054762Y-90907143D01*
X119169048Y-90907143D01*
X118559524Y-90907143D02*
X118559524Y-90307143D01*
X118559524Y-90392857D02*
X118521429Y-90350000D01*
X118445238Y-90307143D01*
X118330952Y-90307143D01*
X118254762Y-90350000D01*
X118216667Y-90435714D01*
X118216667Y-90907143D01*
X118216667Y-90435714D02*
X118178571Y-90350000D01*
X118102381Y-90307143D01*
X117988095Y-90307143D01*
X117911905Y-90350000D01*
X117873810Y-90435714D01*
X117873810Y-90907143D01*
X116921428Y-89964286D02*
X117607143Y-91121429D01*
X116769048Y-90307143D02*
X116464286Y-90307143D01*
X116654762Y-90007143D02*
X116654762Y-90778571D01*
X116616667Y-90864286D01*
X116540476Y-90907143D01*
X116464286Y-90907143D01*
X116197619Y-90907143D02*
X116197619Y-90007143D01*
X115854762Y-90907143D02*
X115854762Y-90435714D01*
X115892857Y-90350000D01*
X115969047Y-90307143D01*
X116083333Y-90307143D01*
X116159524Y-90350000D01*
X116197619Y-90392857D01*
X115169047Y-90864286D02*
X115245237Y-90907143D01*
X115397618Y-90907143D01*
X115473809Y-90864286D01*
X115511904Y-90778571D01*
X115511904Y-90435714D01*
X115473809Y-90350000D01*
X115397618Y-90307143D01*
X115245237Y-90307143D01*
X115169047Y-90350000D01*
X115130952Y-90435714D01*
X115130952Y-90521429D01*
X115511904Y-90607143D01*
X114445238Y-90907143D02*
X114445238Y-90435714D01*
X114483333Y-90350000D01*
X114559523Y-90307143D01*
X114711904Y-90307143D01*
X114788095Y-90350000D01*
X114445238Y-90864286D02*
X114521428Y-90907143D01*
X114711904Y-90907143D01*
X114788095Y-90864286D01*
X114826190Y-90778571D01*
X114826190Y-90692857D01*
X114788095Y-90607143D01*
X114711904Y-90564286D01*
X114521428Y-90564286D01*
X114445238Y-90521429D01*
X114064285Y-90307143D02*
X114064285Y-91207143D01*
X114064285Y-90350000D02*
X113988094Y-90307143D01*
X113835713Y-90307143D01*
X113759523Y-90350000D01*
X113721428Y-90392857D01*
X113683332Y-90478571D01*
X113683332Y-90735714D01*
X113721428Y-90821429D01*
X113759523Y-90864286D01*
X113835713Y-90907143D01*
X113988094Y-90907143D01*
X114064285Y-90864286D01*
X113340475Y-90907143D02*
X113340475Y-90307143D01*
X113340475Y-90007143D02*
X113378570Y-90050000D01*
X113340475Y-90092857D01*
X113302380Y-90050000D01*
X113340475Y-90007143D01*
X113340475Y-90092857D01*
X112388094Y-89964286D02*
X113073809Y-91121429D01*
X112121428Y-90907143D02*
X112121428Y-90007143D01*
X111778571Y-90907143D02*
X111778571Y-90435714D01*
X111816666Y-90350000D01*
X111892856Y-90307143D01*
X112007142Y-90307143D01*
X112083333Y-90350000D01*
X112121428Y-90392857D01*
X111092856Y-90864286D02*
X111169046Y-90907143D01*
X111321427Y-90907143D01*
X111397618Y-90864286D01*
X111435713Y-90778571D01*
X111435713Y-90435714D01*
X111397618Y-90350000D01*
X111321427Y-90307143D01*
X111169046Y-90307143D01*
X111092856Y-90350000D01*
X111054761Y-90435714D01*
X111054761Y-90521429D01*
X111435713Y-90607143D01*
X110369047Y-90907143D02*
X110369047Y-90435714D01*
X110407142Y-90350000D01*
X110483332Y-90307143D01*
X110635713Y-90307143D01*
X110711904Y-90350000D01*
X110369047Y-90864286D02*
X110445237Y-90907143D01*
X110635713Y-90907143D01*
X110711904Y-90864286D01*
X110749999Y-90778571D01*
X110749999Y-90692857D01*
X110711904Y-90607143D01*
X110635713Y-90564286D01*
X110445237Y-90564286D01*
X110369047Y-90521429D01*
X109988094Y-90907143D02*
X109988094Y-90307143D01*
X109988094Y-90478571D02*
X109949999Y-90392857D01*
X109911903Y-90350000D01*
X109835713Y-90307143D01*
X109759522Y-90307143D01*
X109607142Y-90307143D02*
X109302380Y-90307143D01*
X109492856Y-90007143D02*
X109492856Y-90778571D01*
X109454761Y-90864286D01*
X109378570Y-90907143D01*
X109302380Y-90907143D01*
X118464285Y-91807143D02*
X118273809Y-92407143D01*
X118083333Y-91807143D01*
X117359523Y-92407143D02*
X117816666Y-92407143D01*
X117588095Y-92407143D02*
X117588095Y-91507143D01*
X117664285Y-91635714D01*
X117740476Y-91721429D01*
X117816666Y-91764286D01*
X117016666Y-92321429D02*
X116978571Y-92364286D01*
X117016666Y-92407143D01*
X117054761Y-92364286D01*
X117016666Y-92321429D01*
X117016666Y-92407143D01*
X116483333Y-91507143D02*
X116407142Y-91507143D01*
X116330952Y-91550000D01*
X116292857Y-91592857D01*
X116254761Y-91678571D01*
X116216666Y-91850000D01*
X116216666Y-92064286D01*
X116254761Y-92235714D01*
X116292857Y-92321429D01*
X116330952Y-92364286D01*
X116407142Y-92407143D01*
X116483333Y-92407143D01*
X116559523Y-92364286D01*
X116597619Y-92321429D01*
X116635714Y-92235714D01*
X116673809Y-92064286D01*
X116673809Y-91850000D01*
X116635714Y-91678571D01*
X116597619Y-91592857D01*
X116559523Y-91550000D01*
X116483333Y-91507143D01*
X115873809Y-92321429D02*
X115835714Y-92364286D01*
X115873809Y-92407143D01*
X115911904Y-92364286D01*
X115873809Y-92321429D01*
X115873809Y-92407143D01*
X115340476Y-91507143D02*
X115264285Y-91507143D01*
X115188095Y-91550000D01*
X115150000Y-91592857D01*
X115111904Y-91678571D01*
X115073809Y-91850000D01*
X115073809Y-92064286D01*
X115111904Y-92235714D01*
X115150000Y-92321429D01*
X115188095Y-92364286D01*
X115264285Y-92407143D01*
X115340476Y-92407143D01*
X115416666Y-92364286D01*
X115454762Y-92321429D01*
X115492857Y-92235714D01*
X115530952Y-92064286D01*
X115530952Y-91850000D01*
X115492857Y-91678571D01*
X115454762Y-91592857D01*
X115416666Y-91550000D01*
X115340476Y-91507143D01*
X122671429Y-100452381D02*
X122766667Y-100404762D01*
X122814286Y-100357143D01*
X122861905Y-100261905D01*
X122861905Y-99976190D01*
X122814286Y-99880952D01*
X122766667Y-99833333D01*
X122671429Y-99785714D01*
X122528571Y-99785714D01*
X122433333Y-99833333D01*
X122385714Y-99880952D01*
X122338095Y-99976190D01*
X122338095Y-100261905D01*
X122385714Y-100357143D01*
X122433333Y-100404762D01*
X122528571Y-100452381D01*
X122671429Y-100452381D01*
X103940476Y-106952381D02*
X104273810Y-106476190D01*
X104511905Y-106952381D02*
X104511905Y-105952381D01*
X104130952Y-105952381D01*
X104035714Y-106000000D01*
X103988095Y-106047619D01*
X103940476Y-106142857D01*
X103940476Y-106285714D01*
X103988095Y-106380952D01*
X104035714Y-106428571D01*
X104130952Y-106476190D01*
X104511905Y-106476190D01*
X103559524Y-106904762D02*
X103416667Y-106952381D01*
X103178571Y-106952381D01*
X103083333Y-106904762D01*
X103035714Y-106857143D01*
X102988095Y-106761905D01*
X102988095Y-106666667D01*
X103035714Y-106571429D01*
X103083333Y-106523810D01*
X103178571Y-106476190D01*
X103369048Y-106428571D01*
X103464286Y-106380952D01*
X103511905Y-106333333D01*
X103559524Y-106238095D01*
X103559524Y-106142857D01*
X103511905Y-106047619D01*
X103464286Y-106000000D01*
X103369048Y-105952381D01*
X103130952Y-105952381D01*
X102988095Y-106000000D01*
X102702381Y-105952381D02*
X102130952Y-105952381D01*
X102416667Y-106952381D02*
X102416667Y-105952381D01*
X104511905Y-104452381D02*
X104511905Y-103452381D01*
X104273810Y-103452381D01*
X104130952Y-103500000D01*
X104035714Y-103595238D01*
X103988095Y-103690476D01*
X103940476Y-103880952D01*
X103940476Y-104023810D01*
X103988095Y-104214286D01*
X104035714Y-104309524D01*
X104130952Y-104404762D01*
X104273810Y-104452381D01*
X104511905Y-104452381D01*
X103511905Y-104452381D02*
X103511905Y-103452381D01*
X102845239Y-103452381D02*
X102654762Y-103452381D01*
X102559524Y-103500000D01*
X102464286Y-103595238D01*
X102416667Y-103785714D01*
X102416667Y-104119048D01*
X102464286Y-104309524D01*
X102559524Y-104404762D01*
X102654762Y-104452381D01*
X102845239Y-104452381D01*
X102940477Y-104404762D01*
X103035715Y-104309524D01*
X103083334Y-104119048D01*
X103083334Y-103785714D01*
X103035715Y-103595238D01*
X102940477Y-103500000D01*
X102845239Y-103452381D01*
X109738095Y-101000000D02*
X109833333Y-100952381D01*
X109976190Y-100952381D01*
X110119048Y-101000000D01*
X110214286Y-101095238D01*
X110261905Y-101190476D01*
X110309524Y-101380952D01*
X110309524Y-101523810D01*
X110261905Y-101714286D01*
X110214286Y-101809524D01*
X110119048Y-101904762D01*
X109976190Y-101952381D01*
X109880952Y-101952381D01*
X109738095Y-101904762D01*
X109690476Y-101857143D01*
X109690476Y-101523810D01*
X109880952Y-101523810D01*
X109261905Y-101952381D02*
X109261905Y-100952381D01*
X108690476Y-101952381D01*
X108690476Y-100952381D01*
X108214286Y-101952381D02*
X108214286Y-100952381D01*
X107976191Y-100952381D01*
X107833333Y-101000000D01*
X107738095Y-101095238D01*
X107690476Y-101190476D01*
X107642857Y-101380952D01*
X107642857Y-101523810D01*
X107690476Y-101714286D01*
X107738095Y-101809524D01*
X107833333Y-101904762D01*
X107976191Y-101952381D01*
X108214286Y-101952381D01*
X109595238Y-99357143D02*
X109642857Y-99404762D01*
X109785714Y-99452381D01*
X109880952Y-99452381D01*
X110023810Y-99404762D01*
X110119048Y-99309524D01*
X110166667Y-99214286D01*
X110214286Y-99023810D01*
X110214286Y-98880952D01*
X110166667Y-98690476D01*
X110119048Y-98595238D01*
X110023810Y-98500000D01*
X109880952Y-98452381D01*
X109785714Y-98452381D01*
X109642857Y-98500000D01*
X109595238Y-98547619D01*
X108690476Y-99452381D02*
X109166667Y-99452381D01*
X109166667Y-98452381D01*
X108357143Y-99452381D02*
X108357143Y-98452381D01*
X107785714Y-99452381D02*
X108214286Y-98880952D01*
X107785714Y-98452381D02*
X108357143Y-99023810D01*
X110333333Y-95952381D02*
X110000000Y-96952381D01*
X109666666Y-95952381D01*
X108761904Y-96857143D02*
X108809523Y-96904762D01*
X108952380Y-96952381D01*
X109047618Y-96952381D01*
X109190476Y-96904762D01*
X109285714Y-96809524D01*
X109333333Y-96714286D01*
X109380952Y-96523810D01*
X109380952Y-96380952D01*
X109333333Y-96190476D01*
X109285714Y-96095238D01*
X109190476Y-96000000D01*
X109047618Y-95952381D01*
X108952380Y-95952381D01*
X108809523Y-96000000D01*
X108761904Y-96047619D01*
X107761904Y-96857143D02*
X107809523Y-96904762D01*
X107952380Y-96952381D01*
X108047618Y-96952381D01*
X108190476Y-96904762D01*
X108285714Y-96809524D01*
X108333333Y-96714286D01*
X108380952Y-96523810D01*
X108380952Y-96380952D01*
X108333333Y-96190476D01*
X108285714Y-96095238D01*
X108190476Y-96000000D01*
X108047618Y-95952381D01*
X107952380Y-95952381D01*
X107809523Y-96000000D01*
X107761904Y-96047619D01*
D12*
X107330000Y-107910000D02*
X104670000Y-107910000D01*
X107330000Y-97690000D02*
X107330000Y-107910000D01*
X104670000Y-97690000D02*
X104670000Y-107910000D01*
X107330000Y-97690000D02*
X104670000Y-97690000D01*
X107330000Y-96420000D02*
X107330000Y-95090000D01*
X107330000Y-95090000D02*
X106000000Y-95090000D01*
D11*
X147500000Y-104100000D02*
X146500000Y-104100000D01*
X146500000Y-102400000D02*
X147500000Y-102400000D01*
X112500000Y-101400000D02*
X113500000Y-101400000D01*
X113500000Y-103100000D02*
X112500000Y-103100000D01*
X125400000Y-101750000D02*
X125400000Y-100750000D01*
X127100000Y-100750000D02*
X127100000Y-101750000D01*
X123125000Y-95900000D02*
X123125000Y-97100000D01*
X124875000Y-97100000D02*
X124875000Y-95900000D01*
X139325000Y-110400000D02*
X139325000Y-111400000D01*
X140675000Y-111400000D02*
X140675000Y-110400000D01*
X129500000Y-105675000D02*
X130500000Y-105675000D01*
X130500000Y-104325000D02*
X129500000Y-104325000D01*
X117625000Y-110400000D02*
X117625000Y-111400000D01*
X118975000Y-111400000D02*
X118975000Y-110400000D01*
X145500000Y-111675000D02*
X146500000Y-111675000D01*
X146500000Y-110325000D02*
X145500000Y-110325000D01*
X122175000Y-97000000D02*
X122175000Y-96000000D01*
X120825000Y-96000000D02*
X120825000Y-97000000D01*
X146500000Y-92675000D02*
X147500000Y-92675000D01*
X147500000Y-91325000D02*
X146500000Y-91325000D01*
X123225000Y-106450000D02*
X118775000Y-106450000D01*
X124750000Y-99550000D02*
X118775000Y-99550000D01*
X137620000Y-129620000D02*
G75*
G02X122380000Y-129620000I-7620000J7620000D01*
G01*
X122380000Y-114380000D02*
G75*
G02X137620000Y-114380000I7620000J-7620000D01*
G01*
X133810000Y-137240000D02*
X135080000Y-137240000D01*
X134445000Y-136605000D02*
X134445000Y-137875000D01*
X126825000Y-139145000D02*
X126825000Y-139780000D01*
X126825000Y-139780000D02*
X133175000Y-139780000D01*
X133175000Y-139780000D02*
X133175000Y-139145000D01*
X126825000Y-137875000D02*
X126825000Y-139145000D01*
X133175000Y-139145000D02*
X133175000Y-132795000D01*
X126825000Y-132795000D02*
X126825000Y-137875000D01*
D12*
X107820000Y-114600000D02*
X107820000Y-115600000D01*
X109180000Y-115600000D02*
X109180000Y-114600000D01*
X136190000Y-103730000D02*
X136190000Y-106270000D01*
X136190000Y-106270000D02*
X143810000Y-106270000D01*
X143810000Y-106270000D02*
X143810000Y-103730000D01*
X143810000Y-103730000D02*
X136190000Y-103730000D01*
X139000000Y-106250000D02*
X139000000Y-103710000D01*
X136150000Y-100730000D02*
X136150000Y-103270000D01*
X136150000Y-103270000D02*
X143770000Y-103270000D01*
X143770000Y-103270000D02*
X143770000Y-100730000D01*
X143770000Y-100730000D02*
X136150000Y-100730000D01*
X138690000Y-103270000D02*
X138690000Y-100730000D01*
X109750000Y-104250000D02*
X114250000Y-104250000D01*
X108500000Y-108250000D02*
X108500000Y-106750000D01*
X114250000Y-110750000D02*
X109750000Y-110750000D01*
X115500000Y-106750000D02*
X115500000Y-108250000D01*
X143580000Y-121510000D02*
X142650000Y-121510000D01*
X140420000Y-121510000D02*
X141350000Y-121510000D01*
X140420000Y-121510000D02*
X140420000Y-118350000D01*
X143580000Y-121510000D02*
X143580000Y-120050000D01*
D11*
X151130000Y-108280000D02*
X150990000Y-108010000D01*
X150990000Y-108010000D02*
X150870000Y-107820000D01*
X150870000Y-107820000D02*
X150700000Y-107630000D01*
X150700000Y-107630000D02*
X150520000Y-107460000D01*
X150520000Y-107460000D02*
X150840000Y-107500000D01*
X150840000Y-107500000D02*
X150960000Y-107630000D01*
X150960000Y-107630000D02*
X151160000Y-107870000D01*
X152050000Y-103740000D02*
X151600000Y-104800000D01*
X151600000Y-104800000D02*
X151320000Y-105250000D01*
X151320000Y-105250000D02*
X151160000Y-105700000D01*
X151160000Y-105700000D02*
X151160000Y-106140000D01*
X151160000Y-106140000D02*
X151160000Y-106650000D01*
X151160000Y-106650000D02*
X151320000Y-107210000D01*
X151320000Y-107210000D02*
X151320000Y-107600000D01*
X151320000Y-107600000D02*
X151100000Y-108550000D01*
X151100000Y-108550000D02*
X150990000Y-108990000D01*
X150990000Y-108990000D02*
X151040000Y-108990000D01*
X152040000Y-101210000D02*
X152190000Y-101330000D01*
X152190000Y-101330000D02*
X152280000Y-101520000D01*
X152280000Y-101520000D02*
X152180000Y-101620000D01*
X152180000Y-101620000D02*
X152020000Y-101680000D01*
X152020000Y-101680000D02*
X151840000Y-101640000D01*
X151840000Y-101640000D02*
X151720000Y-101470000D01*
X151720000Y-101470000D02*
X151750000Y-101350000D01*
X151750000Y-101350000D02*
X151840000Y-101240000D01*
X151840000Y-101240000D02*
X152020000Y-101200000D01*
X153260000Y-101330000D02*
X153380000Y-101550000D01*
X153380000Y-101550000D02*
X153400000Y-101700000D01*
X153400000Y-101700000D02*
X153300000Y-101790000D01*
X153300000Y-101790000D02*
X153150000Y-101870000D01*
X153150000Y-101870000D02*
X153000000Y-101770000D01*
X153000000Y-101770000D02*
X152880000Y-101620000D01*
X152880000Y-101620000D02*
X152860000Y-101520000D01*
X152860000Y-101520000D02*
X152970000Y-101440000D01*
X152970000Y-101440000D02*
X153230000Y-101380000D01*
X153110000Y-102370000D02*
X152770000Y-102640000D01*
X152770000Y-102640000D02*
X152620000Y-102710000D01*
X152620000Y-102710000D02*
X152430000Y-102710000D01*
X152430000Y-102710000D02*
X152280000Y-102710000D01*
X152280000Y-102710000D02*
X152120000Y-102710000D01*
X152120000Y-102710000D02*
X151970000Y-102640000D01*
X151970000Y-102640000D02*
X151740000Y-102450000D01*
X151740000Y-102450000D02*
X151630000Y-102250000D01*
X151630000Y-102250000D02*
X151510000Y-102030000D01*
X151510000Y-102030000D02*
X151590000Y-102100000D01*
X150980000Y-102290000D02*
X150560000Y-102790000D01*
X150560000Y-102790000D02*
X150330000Y-103320000D01*
X150330000Y-103320000D02*
X150330000Y-103780000D01*
X150330000Y-103780000D02*
X150520000Y-104050000D01*
X150520000Y-104050000D02*
X150870000Y-104310000D01*
X150870000Y-104310000D02*
X151210000Y-104310000D01*
X151210000Y-104310000D02*
X151510000Y-104160000D01*
X151510000Y-104160000D02*
X151700000Y-103970000D01*
X151700000Y-103970000D02*
X151930000Y-103590000D01*
X151930000Y-103590000D02*
X152090000Y-103360000D01*
X151320000Y-101070000D02*
X150680000Y-100880000D01*
X150680000Y-100880000D02*
X150180000Y-100850000D01*
X150180000Y-100850000D02*
X149650000Y-101190000D01*
X149650000Y-101190000D02*
X149570000Y-101610000D01*
X149570000Y-101610000D02*
X149570000Y-101910000D01*
X149570000Y-101910000D02*
X149720000Y-102220000D01*
X149720000Y-102220000D02*
X150070000Y-102330000D01*
X150070000Y-102330000D02*
X150370000Y-102410000D01*
X150370000Y-102410000D02*
X150710000Y-102370000D01*
X150710000Y-102370000D02*
X150940000Y-102290000D01*
X150940000Y-102290000D02*
X151100000Y-102220000D01*
X153650000Y-102790000D02*
X153800000Y-103360000D01*
X153800000Y-103360000D02*
X153840000Y-103930000D01*
X153840000Y-103930000D02*
X153570000Y-104460000D01*
X153570000Y-104460000D02*
X153080000Y-104770000D01*
X153080000Y-104770000D02*
X152500000Y-104660000D01*
X152500000Y-104660000D02*
X152280000Y-104310000D01*
X152280000Y-104310000D02*
X152160000Y-103970000D01*
X152160000Y-103970000D02*
X152090000Y-103630000D01*
X152090000Y-103630000D02*
X152090000Y-103360000D01*
X153800000Y-101340000D02*
X154330000Y-101570000D01*
X154330000Y-101570000D02*
X154750000Y-101840000D01*
X154750000Y-101840000D02*
X154910000Y-102140000D01*
X154910000Y-102140000D02*
X154980000Y-102410000D01*
X154980000Y-102410000D02*
X154980000Y-102670000D01*
X154980000Y-102670000D02*
X154910000Y-102900000D01*
X154910000Y-102900000D02*
X154560000Y-103210000D01*
X154560000Y-103210000D02*
X154180000Y-103210000D01*
X154180000Y-103210000D02*
X153990000Y-103090000D01*
X153990000Y-103090000D02*
X153720000Y-102790000D01*
X153720000Y-102790000D02*
X153650000Y-102790000D01*
X152430000Y-100540000D02*
X152770000Y-99930000D01*
X152770000Y-99930000D02*
X153110000Y-99740000D01*
X153110000Y-99740000D02*
X153690000Y-99660000D01*
X153690000Y-99660000D02*
X154110000Y-99820000D01*
X154110000Y-99820000D02*
X154410000Y-100120000D01*
X154410000Y-100120000D02*
X154520000Y-100730000D01*
X154520000Y-100730000D02*
X154330000Y-101150000D01*
X154330000Y-101150000D02*
X154070000Y-101300000D01*
X154070000Y-101300000D02*
X153840000Y-101340000D01*
X153840000Y-101340000D02*
X153760000Y-101340000D01*
X153760000Y-101340000D02*
X153760000Y-101380000D01*
X152430000Y-100500000D02*
X152280000Y-100120000D01*
X152280000Y-100120000D02*
X152050000Y-99930000D01*
X152050000Y-99930000D02*
X151700000Y-99630000D01*
X151700000Y-99630000D02*
X151320000Y-99590000D01*
X151320000Y-99590000D02*
X150940000Y-99740000D01*
X150940000Y-99740000D02*
X150790000Y-100040000D01*
X150790000Y-100040000D02*
X150750000Y-100390000D01*
X150750000Y-100390000D02*
X150790000Y-100580000D01*
X150790000Y-100580000D02*
X150940000Y-100730000D01*
X150940000Y-100730000D02*
X151130000Y-100810000D01*
X151130000Y-100810000D02*
X151360000Y-100920000D01*
X153834214Y-101940000D02*
G75*
G03X153834214Y-101940000I-1414214J0D01*
G01*
X106333333Y-93542381D02*
X106333333Y-94256667D01*
X106380953Y-94399524D01*
X106476191Y-94494762D01*
X106619048Y-94542381D01*
X106714286Y-94542381D01*
X105333333Y-94542381D02*
X105904762Y-94542381D01*
X105619048Y-94542381D02*
X105619048Y-93542381D01*
X105714286Y-93685238D01*
X105809524Y-93780476D01*
X105904762Y-93828095D01*
X147166666Y-101857143D02*
X147214285Y-101904762D01*
X147357142Y-101952381D01*
X147452380Y-101952381D01*
X147595238Y-101904762D01*
X147690476Y-101809524D01*
X147738095Y-101714286D01*
X147785714Y-101523810D01*
X147785714Y-101380952D01*
X147738095Y-101190476D01*
X147690476Y-101095238D01*
X147595238Y-101000000D01*
X147452380Y-100952381D01*
X147357142Y-100952381D01*
X147214285Y-101000000D01*
X147166666Y-101047619D01*
X146214285Y-101952381D02*
X146785714Y-101952381D01*
X146500000Y-101952381D02*
X146500000Y-100952381D01*
X146595238Y-101095238D01*
X146690476Y-101190476D01*
X146785714Y-101238095D01*
X113166666Y-100507143D02*
X113214285Y-100554762D01*
X113357142Y-100602381D01*
X113452380Y-100602381D01*
X113595238Y-100554762D01*
X113690476Y-100459524D01*
X113738095Y-100364286D01*
X113785714Y-100173810D01*
X113785714Y-100030952D01*
X113738095Y-99840476D01*
X113690476Y-99745238D01*
X113595238Y-99650000D01*
X113452380Y-99602381D01*
X113357142Y-99602381D01*
X113214285Y-99650000D01*
X113166666Y-99697619D01*
X112785714Y-99697619D02*
X112738095Y-99650000D01*
X112642857Y-99602381D01*
X112404761Y-99602381D01*
X112309523Y-99650000D01*
X112261904Y-99697619D01*
X112214285Y-99792857D01*
X112214285Y-99888095D01*
X112261904Y-100030952D01*
X112833333Y-100602381D01*
X112214285Y-100602381D01*
X128366666Y-101657143D02*
X128414285Y-101704762D01*
X128557142Y-101752381D01*
X128652380Y-101752381D01*
X128795238Y-101704762D01*
X128890476Y-101609524D01*
X128938095Y-101514286D01*
X128985714Y-101323810D01*
X128985714Y-101180952D01*
X128938095Y-100990476D01*
X128890476Y-100895238D01*
X128795238Y-100800000D01*
X128652380Y-100752381D01*
X128557142Y-100752381D01*
X128414285Y-100800000D01*
X128366666Y-100847619D01*
X128033333Y-100752381D02*
X127414285Y-100752381D01*
X127747619Y-101133333D01*
X127604761Y-101133333D01*
X127509523Y-101180952D01*
X127461904Y-101228571D01*
X127414285Y-101323810D01*
X127414285Y-101561905D01*
X127461904Y-101657143D01*
X127509523Y-101704762D01*
X127604761Y-101752381D01*
X127890476Y-101752381D01*
X127985714Y-101704762D01*
X128033333Y-101657143D01*
X126552381Y-96333334D02*
X126076190Y-96000000D01*
X126552381Y-95761905D02*
X125552381Y-95761905D01*
X125552381Y-96142858D01*
X125600000Y-96238096D01*
X125647619Y-96285715D01*
X125742857Y-96333334D01*
X125885714Y-96333334D01*
X125980952Y-96285715D01*
X126028571Y-96238096D01*
X126076190Y-96142858D01*
X126076190Y-95761905D01*
X126552381Y-97285715D02*
X126552381Y-96714286D01*
X126552381Y-97000000D02*
X125552381Y-97000000D01*
X125695238Y-96904762D01*
X125790476Y-96809524D01*
X125838095Y-96714286D01*
X142352381Y-110733334D02*
X141876190Y-110400000D01*
X142352381Y-110161905D02*
X141352381Y-110161905D01*
X141352381Y-110542858D01*
X141400000Y-110638096D01*
X141447619Y-110685715D01*
X141542857Y-110733334D01*
X141685714Y-110733334D01*
X141780952Y-110685715D01*
X141828571Y-110638096D01*
X141876190Y-110542858D01*
X141876190Y-110161905D01*
X141447619Y-111114286D02*
X141400000Y-111161905D01*
X141352381Y-111257143D01*
X141352381Y-111495239D01*
X141400000Y-111590477D01*
X141447619Y-111638096D01*
X141542857Y-111685715D01*
X141638095Y-111685715D01*
X141780952Y-111638096D01*
X142352381Y-111066667D01*
X142352381Y-111685715D01*
X130166666Y-103552381D02*
X130500000Y-103076190D01*
X130738095Y-103552381D02*
X130738095Y-102552381D01*
X130357142Y-102552381D01*
X130261904Y-102600000D01*
X130214285Y-102647619D01*
X130166666Y-102742857D01*
X130166666Y-102885714D01*
X130214285Y-102980952D01*
X130261904Y-103028571D01*
X130357142Y-103076190D01*
X130738095Y-103076190D01*
X129833333Y-102552381D02*
X129214285Y-102552381D01*
X129547619Y-102933333D01*
X129404761Y-102933333D01*
X129309523Y-102980952D01*
X129261904Y-103028571D01*
X129214285Y-103123810D01*
X129214285Y-103361905D01*
X129261904Y-103457143D01*
X129309523Y-103504762D01*
X129404761Y-103552381D01*
X129690476Y-103552381D01*
X129785714Y-103504762D01*
X129833333Y-103457143D01*
X120652381Y-110733334D02*
X120176190Y-110400000D01*
X120652381Y-110161905D02*
X119652381Y-110161905D01*
X119652381Y-110542858D01*
X119700000Y-110638096D01*
X119747619Y-110685715D01*
X119842857Y-110733334D01*
X119985714Y-110733334D01*
X120080952Y-110685715D01*
X120128571Y-110638096D01*
X120176190Y-110542858D01*
X120176190Y-110161905D01*
X119985714Y-111590477D02*
X120652381Y-111590477D01*
X119604762Y-111352381D02*
X120319048Y-111114286D01*
X120319048Y-111733334D01*
X146166666Y-109552381D02*
X146500000Y-109076190D01*
X146738095Y-109552381D02*
X146738095Y-108552381D01*
X146357142Y-108552381D01*
X146261904Y-108600000D01*
X146214285Y-108647619D01*
X146166666Y-108742857D01*
X146166666Y-108885714D01*
X146214285Y-108980952D01*
X146261904Y-109028571D01*
X146357142Y-109076190D01*
X146738095Y-109076190D01*
X145261904Y-108552381D02*
X145738095Y-108552381D01*
X145785714Y-109028571D01*
X145738095Y-108980952D01*
X145642857Y-108933333D01*
X145404761Y-108933333D01*
X145309523Y-108980952D01*
X145261904Y-109028571D01*
X145214285Y-109123810D01*
X145214285Y-109361905D01*
X145261904Y-109457143D01*
X145309523Y-109504762D01*
X145404761Y-109552381D01*
X145642857Y-109552381D01*
X145738095Y-109504762D01*
X145785714Y-109457143D01*
X120052381Y-96333334D02*
X119576190Y-96000000D01*
X120052381Y-95761905D02*
X119052381Y-95761905D01*
X119052381Y-96142858D01*
X119100000Y-96238096D01*
X119147619Y-96285715D01*
X119242857Y-96333334D01*
X119385714Y-96333334D01*
X119480952Y-96285715D01*
X119528571Y-96238096D01*
X119576190Y-96142858D01*
X119576190Y-95761905D01*
X119052381Y-97190477D02*
X119052381Y-97000000D01*
X119100000Y-96904762D01*
X119147619Y-96857143D01*
X119290476Y-96761905D01*
X119480952Y-96714286D01*
X119861905Y-96714286D01*
X119957143Y-96761905D01*
X120004762Y-96809524D01*
X120052381Y-96904762D01*
X120052381Y-97095239D01*
X120004762Y-97190477D01*
X119957143Y-97238096D01*
X119861905Y-97285715D01*
X119623810Y-97285715D01*
X119528571Y-97238096D01*
X119480952Y-97190477D01*
X119433333Y-97095239D01*
X119433333Y-96904762D01*
X119480952Y-96809524D01*
X119528571Y-96761905D01*
X119623810Y-96714286D01*
X147166666Y-90552381D02*
X147500000Y-90076190D01*
X147738095Y-90552381D02*
X147738095Y-89552381D01*
X147357142Y-89552381D01*
X147261904Y-89600000D01*
X147214285Y-89647619D01*
X147166666Y-89742857D01*
X147166666Y-89885714D01*
X147214285Y-89980952D01*
X147261904Y-90028571D01*
X147357142Y-90076190D01*
X147738095Y-90076190D01*
X146833333Y-89552381D02*
X146166666Y-89552381D01*
X146595238Y-90552381D01*
X121461905Y-100852381D02*
X121461905Y-101661905D01*
X121414286Y-101757143D01*
X121366667Y-101804762D01*
X121271429Y-101852381D01*
X121080952Y-101852381D01*
X120985714Y-101804762D01*
X120938095Y-101757143D01*
X120890476Y-101661905D01*
X120890476Y-100852381D01*
X119890476Y-101852381D02*
X120461905Y-101852381D01*
X120176191Y-101852381D02*
X120176191Y-100852381D01*
X120271429Y-100995238D01*
X120366667Y-101090476D01*
X120461905Y-101138095D01*
X130785714Y-122428571D02*
X130642857Y-122476190D01*
X130595238Y-122523810D01*
X130547619Y-122619048D01*
X130547619Y-122761905D01*
X130595238Y-122857143D01*
X130642857Y-122904762D01*
X130738095Y-122952381D01*
X131119048Y-122952381D01*
X131119048Y-121952381D01*
X130785714Y-121952381D01*
X130690476Y-122000000D01*
X130642857Y-122047619D01*
X130595238Y-122142857D01*
X130595238Y-122238095D01*
X130642857Y-122333333D01*
X130690476Y-122380952D01*
X130785714Y-122428571D01*
X131119048Y-122428571D01*
X130261905Y-121952381D02*
X129690476Y-121952381D01*
X129976191Y-122952381D02*
X129976191Y-121952381D01*
X128833333Y-122952381D02*
X129404762Y-122952381D01*
X129119048Y-122952381D02*
X129119048Y-121952381D01*
X129214286Y-122095238D01*
X129309524Y-122190476D01*
X129404762Y-122238095D01*
X110402381Y-114933334D02*
X109926190Y-114600000D01*
X110402381Y-114361905D02*
X109402381Y-114361905D01*
X109402381Y-114742858D01*
X109450000Y-114838096D01*
X109497619Y-114885715D01*
X109592857Y-114933334D01*
X109735714Y-114933334D01*
X109830952Y-114885715D01*
X109878571Y-114838096D01*
X109926190Y-114742858D01*
X109926190Y-114361905D01*
X109830952Y-115504762D02*
X109783333Y-115409524D01*
X109735714Y-115361905D01*
X109640476Y-115314286D01*
X109592857Y-115314286D01*
X109497619Y-115361905D01*
X109450000Y-115409524D01*
X109402381Y-115504762D01*
X109402381Y-115695239D01*
X109450000Y-115790477D01*
X109497619Y-115838096D01*
X109592857Y-115885715D01*
X109640476Y-115885715D01*
X109735714Y-115838096D01*
X109783333Y-115790477D01*
X109830952Y-115695239D01*
X109830952Y-115504762D01*
X109878571Y-115409524D01*
X109926190Y-115361905D01*
X110021429Y-115314286D01*
X110211905Y-115314286D01*
X110307143Y-115361905D01*
X110354762Y-115409524D01*
X110402381Y-115504762D01*
X110402381Y-115695239D01*
X110354762Y-115790477D01*
X110307143Y-115838096D01*
X110211905Y-115885715D01*
X110021429Y-115885715D01*
X109926190Y-115838096D01*
X109878571Y-115790477D01*
X109830952Y-115695239D01*
X141333333Y-107654762D02*
X141190476Y-107702381D01*
X140952380Y-107702381D01*
X140857142Y-107654762D01*
X140809523Y-107607143D01*
X140761904Y-107511905D01*
X140761904Y-107416667D01*
X140809523Y-107321429D01*
X140857142Y-107273810D01*
X140952380Y-107226190D01*
X141142857Y-107178571D01*
X141238095Y-107130952D01*
X141285714Y-107083333D01*
X141333333Y-106988095D01*
X141333333Y-106892857D01*
X141285714Y-106797619D01*
X141238095Y-106750000D01*
X141142857Y-106702381D01*
X140904761Y-106702381D01*
X140761904Y-106750000D01*
X140428571Y-106702381D02*
X140190476Y-107702381D01*
X139999999Y-106988095D01*
X139809523Y-107702381D01*
X139571428Y-106702381D01*
X138666666Y-107702381D02*
X139238095Y-107702381D01*
X138952381Y-107702381D02*
X138952381Y-106702381D01*
X139047619Y-106845238D01*
X139142857Y-106940476D01*
X139238095Y-106988095D01*
X141333333Y-100154762D02*
X141190476Y-100202381D01*
X140952380Y-100202381D01*
X140857142Y-100154762D01*
X140809523Y-100107143D01*
X140761904Y-100011905D01*
X140761904Y-99916667D01*
X140809523Y-99821429D01*
X140857142Y-99773810D01*
X140952380Y-99726190D01*
X141142857Y-99678571D01*
X141238095Y-99630952D01*
X141285714Y-99583333D01*
X141333333Y-99488095D01*
X141333333Y-99392857D01*
X141285714Y-99297619D01*
X141238095Y-99250000D01*
X141142857Y-99202381D01*
X140904761Y-99202381D01*
X140761904Y-99250000D01*
X140428571Y-99202381D02*
X140190476Y-100202381D01*
X139999999Y-99488095D01*
X139809523Y-100202381D01*
X139571428Y-99202381D01*
X139238095Y-99297619D02*
X139190476Y-99250000D01*
X139095238Y-99202381D01*
X138857142Y-99202381D01*
X138761904Y-99250000D01*
X138714285Y-99297619D01*
X138666666Y-99392857D01*
X138666666Y-99488095D01*
X138714285Y-99630952D01*
X139285714Y-100202381D01*
X138666666Y-100202381D01*
X113333333Y-112154762D02*
X113190476Y-112202381D01*
X112952380Y-112202381D01*
X112857142Y-112154762D01*
X112809523Y-112107143D01*
X112761904Y-112011905D01*
X112761904Y-111916667D01*
X112809523Y-111821429D01*
X112857142Y-111773810D01*
X112952380Y-111726190D01*
X113142857Y-111678571D01*
X113238095Y-111630952D01*
X113285714Y-111583333D01*
X113333333Y-111488095D01*
X113333333Y-111392857D01*
X113285714Y-111297619D01*
X113238095Y-111250000D01*
X113142857Y-111202381D01*
X112904761Y-111202381D01*
X112761904Y-111250000D01*
X112428571Y-111202381D02*
X112190476Y-112202381D01*
X111999999Y-111488095D01*
X111809523Y-112202381D01*
X111571428Y-111202381D01*
X111285714Y-111202381D02*
X110666666Y-111202381D01*
X111000000Y-111583333D01*
X110857142Y-111583333D01*
X110761904Y-111630952D01*
X110714285Y-111678571D01*
X110666666Y-111773810D01*
X110666666Y-112011905D01*
X110714285Y-112107143D01*
X110761904Y-112154762D01*
X110857142Y-112202381D01*
X111142857Y-112202381D01*
X111238095Y-112154762D01*
X111285714Y-112107143D01*
X140047619Y-120654762D02*
X140000000Y-120559524D01*
X139904762Y-120464286D01*
X139761905Y-120321429D01*
X139714286Y-120226190D01*
X139714286Y-120130952D01*
X139952381Y-120178571D02*
X139904762Y-120083333D01*
X139809524Y-119988095D01*
X139619048Y-119940476D01*
X139285714Y-119940476D01*
X139095238Y-119988095D01*
X139000000Y-120083333D01*
X138952381Y-120178571D01*
X138952381Y-120369048D01*
X139000000Y-120464286D01*
X139095238Y-120559524D01*
X139285714Y-120607143D01*
X139619048Y-120607143D01*
X139809524Y-120559524D01*
X139904762Y-120464286D01*
X139952381Y-120369048D01*
X139952381Y-120178571D01*
X139952381Y-121559524D02*
X139952381Y-120988095D01*
X139952381Y-121273809D02*
X138952381Y-121273809D01*
X139095238Y-121178571D01*
X139190476Y-121083333D01*
X139238095Y-120988095D01*
M02*
