G04 #@! TF.FileFunction,Profile,NP*
%FSLAX46Y46*%
G04 Gerber Fmt 4.6, Leading zero omitted, Abs format (unit mm)*
G04 Created by KiCad (PCBNEW 4.0.7-e2-6376~58~ubuntu16.04.1) date Tue Mar 20 21:15:11 2018*
%MOMM*%
%LPD*%
G01*
G04 APERTURE LIST*
%ADD10C,0.100000*%
G04 APERTURE END LIST*
D10*
X143254120Y-85398260D02*
X143254120Y-85398260D01*
X144814265Y-85478741D02*
X143254120Y-85398260D01*
X146347984Y-85717189D02*
X144814265Y-85478741D01*
X147844927Y-86109139D02*
X146347984Y-85717189D01*
X149294744Y-86650124D02*
X147844927Y-86109139D01*
X150687084Y-87335676D02*
X149294744Y-86650124D01*
X152011597Y-88161329D02*
X150687084Y-87335676D01*
X153257932Y-89122616D02*
X152011597Y-88161329D01*
X154415740Y-90215070D02*
X153257932Y-89122616D01*
X155464309Y-91421334D02*
X154415740Y-90215070D01*
X156386979Y-92719831D02*
X155464309Y-91421334D01*
X157179461Y-94099778D02*
X156386979Y-92719831D01*
X157837470Y-95550391D02*
X157179461Y-94099778D01*
X158356717Y-97060887D02*
X157837470Y-95550391D01*
X158732916Y-98620481D02*
X158356717Y-97060887D01*
X158961780Y-100218390D02*
X158732916Y-98620481D01*
X159039020Y-101843830D02*
X158961780Y-100218390D01*
X158846531Y-105127733D02*
X159039020Y-101843830D01*
X158196204Y-108481321D02*
X158846531Y-105127733D01*
X156978725Y-111971036D02*
X158196204Y-108481321D01*
X155084780Y-115663320D02*
X156978725Y-111971036D01*
X153445016Y-118062185D02*
X155084780Y-115663320D01*
X150940319Y-121273455D02*
X153445016Y-118062185D01*
X144212002Y-129115447D02*
X150940319Y-121273455D01*
X136651584Y-137153779D02*
X144212002Y-129115447D01*
X133106761Y-140610472D02*
X136651584Y-137153779D01*
X130010822Y-143352930D02*
X133106761Y-140610472D01*
X126571121Y-140656143D02*
X130010822Y-143352930D01*
X122834070Y-137186329D02*
X126571121Y-140656143D01*
X118986879Y-133220481D02*
X122834070Y-137186329D01*
X115216761Y-129035594D02*
X118986879Y-133220481D01*
X108656582Y-121116682D02*
X115216761Y-129035594D01*
X104651222Y-115645550D02*
X108656582Y-121116682D01*
X103644555Y-113891786D02*
X104651222Y-115645550D01*
X102839447Y-112141583D02*
X103644555Y-113891786D01*
X102215145Y-110398698D02*
X102839447Y-112141583D01*
X101750893Y-108666890D02*
X102215145Y-110398698D01*
X101219523Y-105251537D02*
X101750893Y-108666890D01*
X101079302Y-101925590D02*
X101219523Y-105251537D01*
X101156540Y-100300146D02*
X101079302Y-101925590D01*
X101385403Y-98702233D02*
X101156540Y-100300146D01*
X101761604Y-97142636D02*
X101385403Y-98702233D01*
X102280856Y-95632137D02*
X101761604Y-97142636D01*
X102938870Y-94181522D02*
X102280856Y-95632137D01*
X103731359Y-92801573D02*
X102938870Y-94181522D01*
X104654035Y-91503074D02*
X103731359Y-92801573D01*
X105702612Y-90296810D02*
X104654035Y-91503074D01*
X106860424Y-89204353D02*
X105702612Y-90296810D01*
X108106763Y-88243064D02*
X106860424Y-89204353D01*
X109431280Y-87417410D02*
X108106763Y-88243064D01*
X110823625Y-86731859D02*
X109431280Y-87417410D01*
X112273446Y-86190877D02*
X110823625Y-86731859D01*
X113770395Y-85798932D02*
X112273446Y-86190877D01*
X115304120Y-85560491D02*
X113770395Y-85798932D01*
X116864272Y-85480020D02*
X115304120Y-85560491D01*
X118833829Y-85638041D02*
X116864272Y-85480020D01*
X120750339Y-86091796D02*
X118833829Y-85638041D01*
X122594186Y-86814780D02*
X120750339Y-86091796D01*
X124345750Y-87780490D02*
X122594186Y-86814780D01*
X125985412Y-88962414D02*
X124345750Y-87780490D01*
X127493556Y-90334050D02*
X125985412Y-88962414D01*
X128850562Y-91868900D02*
X127493556Y-90334050D01*
X129466258Y-92689250D02*
X128850562Y-91868900D01*
X129791379Y-92869101D02*
X129466258Y-92689250D01*
X130049527Y-92903580D02*
X129791379Y-92869101D01*
X130276915Y-92869264D02*
X130049527Y-92903580D01*
X130605960Y-92680950D02*
X130276915Y-92869264D01*
X131220980Y-91852580D02*
X130605960Y-92680950D01*
X132578700Y-90302650D02*
X131220980Y-91852580D01*
X134090036Y-88917426D02*
X132578700Y-90302650D01*
X135735090Y-87723670D02*
X134090036Y-88917426D01*
X137493937Y-86748121D02*
X135735090Y-87723670D01*
X139346668Y-86017534D02*
X137493937Y-86748121D01*
X141273367Y-85558662D02*
X139346668Y-86017534D01*
X143254120Y-85398260D02*
X141273367Y-85558662D01*
M02*
