M48
;DRILL file {KiCad 4.0.7-e2-6376~58~ubuntu16.04.1} date Wed Mar 21 20:24:43 2018
;FORMAT={-:-/ absolute / inch / decimal}
FMAT,2
INCH,TZ
T1C0.016
T2C0.032
T3C0.035
T4C0.040
T5C0.043
T6C0.087
%
G90
G05
M72
T1
X4.2939Y-3.9995
X4.439Y-4.0945
X4.5768Y-4.0157
X4.7146Y-4.065
X4.7441Y-4.3209
X4.813Y-3.9764
X4.9213Y-4.252
X5.2362Y-4.1339
X5.315Y-3.9764
X5.3937Y-4.6063
T2
X5.4102Y-4.0157
X5.4331Y-4.1339
X5.5102Y-4.0157
X5.5118Y-4.1339
X5.5906Y-4.1339
X5.6102Y-4.0157
T3
X4.4094Y-3.7795
X4.4488Y-4.5276
X4.5094Y-3.7795
X4.5488Y-4.5276
X5.0787Y-4.2913
X5.0787Y-5.0787
X5.1787Y-4.2913
X5.1787Y-5.0787
X5.7087Y-4.5276
X5.748Y-3.7795
X5.8087Y-4.5276
X5.848Y-3.7795
T4
X5.1181Y-4.6063
X5.1181Y-5.3543
T5
X4.2815Y-4.1437
X4.2815Y-4.3209
X4.5374Y-4.1437
X4.5374Y-4.3209
T6
X5.1181Y-3.7795
T0
M30
