G04 #@! TF.FileFunction,Copper,L1,Top,Signal*
%FSLAX46Y46*%
G04 Gerber Fmt 4.6, Leading zero omitted, Abs format (unit mm)*
G04 Created by KiCad (PCBNEW 4.0.7-e2-6376~58~ubuntu16.04.1) date Wed Mar 21 20:24:41 2018*
%MOMM*%
%LPD*%
G01*
G04 APERTURE LIST*
%ADD10C,0.100000*%
%ADD11R,1.198880X1.198880*%
%ADD12C,2.286000*%
%ADD13R,1.800000X1.800000*%
%ADD14C,1.800000*%
%ADD15R,1.500000X1.500000*%
%ADD16R,1.397000X1.397000*%
%ADD17C,1.397000*%
%ADD18C,2.000000*%
%ADD19C,3.500000*%
%ADD20C,0.762000*%
%ADD21C,0.254000*%
%ADD22C,0.350000*%
G04 APERTURE END LIST*
D10*
D11*
X131049020Y-131000000D03*
X128950980Y-131000000D03*
X131049020Y-111000000D03*
X128950980Y-111000000D03*
X115049020Y-117000000D03*
X112950980Y-117000000D03*
X147049020Y-117000000D03*
X144950980Y-117000000D03*
X114049020Y-98000000D03*
X111950980Y-98000000D03*
X148049020Y-98000000D03*
X145950980Y-98000000D03*
D12*
X130000000Y-117000000D03*
X130000000Y-136000000D03*
D13*
X129000000Y-129000000D03*
D14*
X131540000Y-129000000D03*
D13*
X129000000Y-109000000D03*
D14*
X131540000Y-109000000D03*
D13*
X113000000Y-115000000D03*
D14*
X115540000Y-115000000D03*
D13*
X145000000Y-115000000D03*
D14*
X147540000Y-115000000D03*
D13*
X112000000Y-96000000D03*
D14*
X114540000Y-96000000D03*
D13*
X146000000Y-96000000D03*
D14*
X148540000Y-96000000D03*
D15*
X131650000Y-127000000D03*
X128350000Y-127000000D03*
X131650000Y-107000000D03*
X128350000Y-107000000D03*
X115650000Y-113000000D03*
X112350000Y-113000000D03*
X147650000Y-113000000D03*
X144350000Y-113000000D03*
X114650000Y-94000000D03*
X111350000Y-94000000D03*
X148650000Y-94000000D03*
X145350000Y-94000000D03*
D16*
X138000000Y-105000000D03*
D17*
X140000000Y-105000000D03*
X142000000Y-105000000D03*
D16*
X137420000Y-102000000D03*
D17*
X139960000Y-102000000D03*
X142500000Y-102000000D03*
D18*
X108750000Y-105250000D03*
X108750000Y-109750000D03*
X115250000Y-105250000D03*
X115250000Y-109750000D03*
D19*
X130000000Y-96000000D03*
D20*
X109066210Y-101588527D03*
X125000000Y-108000000D03*
X119750000Y-103250000D03*
X135000000Y-101000000D03*
X137000000Y-117000000D03*
X112750000Y-104000000D03*
X122250000Y-101000000D03*
X133000000Y-105000000D03*
X116250000Y-102000000D03*
X120500000Y-109750000D03*
D21*
X142950000Y-121000000D02*
X142950000Y-121550000D01*
X108760000Y-101540000D02*
X108808527Y-101588527D01*
X109215893Y-101588527D02*
X109066210Y-101588527D01*
X111950980Y-98000000D02*
X111950980Y-98853440D01*
X108808527Y-101588527D02*
X109066210Y-101588527D01*
X111950980Y-98853440D02*
X109215893Y-101588527D01*
X130000000Y-117000000D02*
X123000000Y-110000000D01*
X123000000Y-110000000D02*
X119750000Y-106750000D01*
X129000000Y-109000000D02*
X124000000Y-109000000D01*
X124000000Y-109000000D02*
X123000000Y-110000000D01*
X119750000Y-103788815D02*
X119750000Y-103250000D01*
X119750000Y-106750000D02*
X119750000Y-103788815D01*
X146000000Y-96000000D02*
X146000000Y-97950980D01*
X146000000Y-97950980D02*
X145950980Y-98000000D01*
X144350000Y-98747540D02*
X145097540Y-98000000D01*
X145097540Y-98000000D02*
X145950980Y-98000000D01*
X135000000Y-101000000D02*
X134619001Y-100619001D01*
X134619001Y-100619001D02*
X130000000Y-96000000D01*
X144350000Y-113000000D02*
X144350000Y-98747540D01*
X130000000Y-117000000D02*
X137000000Y-117000000D01*
X130000000Y-117000000D02*
X128857001Y-118142999D01*
X129000000Y-109000000D02*
X129000000Y-107650000D01*
X129000000Y-107650000D02*
X128350000Y-107000000D01*
X128950980Y-111000000D02*
X128950980Y-109049020D01*
X128950980Y-109049020D02*
X129000000Y-109000000D01*
X129000000Y-111049020D02*
X128950980Y-111000000D01*
X112000000Y-96000000D02*
X112000000Y-97950980D01*
X112000000Y-97950980D02*
X111950980Y-98000000D01*
X111350000Y-94000000D02*
X111350000Y-95350000D01*
X111350000Y-95350000D02*
X112000000Y-96000000D01*
X113000000Y-115000000D02*
X113000000Y-116950980D01*
X113000000Y-116950980D02*
X112950980Y-117000000D01*
X112350000Y-113000000D02*
X112350000Y-114350000D01*
X112350000Y-114350000D02*
X113000000Y-115000000D01*
X129000000Y-129000000D02*
X129000000Y-130950980D01*
X129000000Y-130950980D02*
X128950980Y-131000000D01*
X128350000Y-127000000D02*
X128350000Y-128350000D01*
X128350000Y-128350000D02*
X129000000Y-129000000D01*
X145000000Y-115000000D02*
X145000000Y-116950980D01*
X145000000Y-116950980D02*
X144950980Y-117000000D01*
X144350000Y-113000000D02*
X144350000Y-114350000D01*
X144350000Y-114350000D02*
X145000000Y-115000000D01*
X145350000Y-94000000D02*
X145350000Y-95350000D01*
X145350000Y-95350000D02*
X146000000Y-96000000D01*
X131750000Y-126900000D02*
X131650000Y-127000000D01*
X131540000Y-129000000D02*
X131540000Y-127110000D01*
X131540000Y-127110000D02*
X131650000Y-127000000D01*
X131049020Y-131000000D02*
X131049020Y-129490980D01*
X131049020Y-129490980D02*
X131540000Y-129000000D01*
X113130999Y-103619001D02*
X112750000Y-104000000D01*
X115750000Y-101000000D02*
X113130999Y-103619001D01*
X122250000Y-101000000D02*
X115750000Y-101000000D01*
X132646000Y-105000000D02*
X133000000Y-105000000D01*
X131650000Y-107000000D02*
X131650000Y-105996000D01*
X131650000Y-105996000D02*
X132646000Y-105000000D01*
X131540000Y-109000000D02*
X131540000Y-107110000D01*
X131540000Y-107110000D02*
X131650000Y-107000000D01*
X131049020Y-111000000D02*
X131049020Y-109490980D01*
X131049020Y-109490980D02*
X131540000Y-109000000D01*
X115540000Y-115000000D02*
X115540000Y-113110000D01*
X115540000Y-113110000D02*
X115650000Y-113000000D01*
X115049020Y-117000000D02*
X115049020Y-115490980D01*
X115049020Y-115490980D02*
X115540000Y-115000000D01*
X147540000Y-115000000D02*
X147540000Y-113110000D01*
X147540000Y-113110000D02*
X147650000Y-113000000D01*
X147049020Y-117000000D02*
X147049020Y-115490980D01*
X147049020Y-115490980D02*
X147540000Y-115000000D01*
X114540000Y-96000000D02*
X114540000Y-94110000D01*
X114540000Y-94110000D02*
X114650000Y-94000000D01*
X114049020Y-98000000D02*
X114049020Y-96490980D01*
X114049020Y-96490980D02*
X114540000Y-96000000D01*
X148540000Y-96000000D02*
X148540000Y-94110000D01*
X148540000Y-94110000D02*
X148650000Y-94000000D01*
X148049020Y-98000000D02*
X148049020Y-96490980D01*
X148049020Y-96490980D02*
X148540000Y-96000000D01*
D22*
X116788815Y-102000000D02*
X116250000Y-102000000D01*
X134460000Y-102000000D02*
X116788815Y-102000000D01*
X137460000Y-105000000D02*
X134460000Y-102000000D01*
D21*
X108250000Y-105250000D02*
X114750000Y-105250000D01*
X114750000Y-109750000D02*
X113335787Y-109750000D01*
X113335787Y-109750000D02*
X108250000Y-109750000D01*
X120500000Y-109750000D02*
X114750000Y-109750000D01*
X140000000Y-102040000D02*
X139960000Y-102000000D01*
G36*
X144814349Y-86311239D02*
X146278791Y-86538916D01*
X147708443Y-86913246D01*
X149093566Y-87430091D01*
X150424317Y-88085318D01*
X151690805Y-88874801D01*
X152883152Y-89794447D01*
X153991534Y-90840266D01*
X154995872Y-91995647D01*
X155879977Y-93239871D01*
X156639696Y-94562769D01*
X157270774Y-95954011D01*
X157768942Y-97403189D01*
X158129964Y-98899864D01*
X158349633Y-100433572D01*
X158423606Y-101990260D01*
X158235914Y-105192327D01*
X157603683Y-108452597D01*
X156418121Y-111850825D01*
X154565493Y-115462560D01*
X152962196Y-117808079D01*
X150480564Y-120989777D01*
X143772851Y-128807755D01*
X136233284Y-136823917D01*
X132710820Y-140258807D01*
X130054607Y-142611745D01*
X127086799Y-140284931D01*
X123383817Y-136846750D01*
X122903981Y-136352114D01*
X128221692Y-136352114D01*
X128491806Y-137005840D01*
X128991529Y-137506436D01*
X129644782Y-137777691D01*
X130352114Y-137778308D01*
X131005840Y-137508194D01*
X131506436Y-137008471D01*
X131777691Y-136355218D01*
X131778308Y-135647886D01*
X131508194Y-134994160D01*
X131008471Y-134493564D01*
X130355218Y-134222309D01*
X129647886Y-134221692D01*
X128994160Y-134491806D01*
X128493564Y-134991529D01*
X128222309Y-135644782D01*
X128221692Y-136352114D01*
X122903981Y-136352114D01*
X119557881Y-132902812D01*
X115805745Y-128737885D01*
X113123419Y-125500000D01*
X126873000Y-125500000D01*
X126873000Y-132500000D01*
X126881685Y-132546159D01*
X126908965Y-132588553D01*
X126950590Y-132616994D01*
X127000000Y-132627000D01*
X133500000Y-132627000D01*
X133546159Y-132618315D01*
X133588553Y-132591035D01*
X133616994Y-132549410D01*
X133627000Y-132500000D01*
X133627000Y-125500000D01*
X133618315Y-125453841D01*
X133591035Y-125411447D01*
X133549410Y-125383006D01*
X133500000Y-125373000D01*
X127000000Y-125373000D01*
X126953841Y-125381685D01*
X126911447Y-125408965D01*
X126883006Y-125450590D01*
X126873000Y-125500000D01*
X113123419Y-125500000D01*
X109395532Y-121000000D01*
X142188000Y-121000000D01*
X142188000Y-121550000D01*
X142246004Y-121841605D01*
X142411185Y-122088815D01*
X142658395Y-122253996D01*
X142950000Y-122312000D01*
X143241605Y-122253996D01*
X143488815Y-122088815D01*
X143653996Y-121841605D01*
X143712000Y-121550000D01*
X143712000Y-121000000D01*
X143653996Y-120708395D01*
X143488815Y-120461185D01*
X143241605Y-120296004D01*
X142950000Y-120238000D01*
X142658395Y-120296004D01*
X142411185Y-120461185D01*
X142246004Y-120708395D01*
X142188000Y-121000000D01*
X109395532Y-121000000D01*
X109267714Y-120845709D01*
X105296926Y-115421800D01*
X104324528Y-113727738D01*
X103544786Y-112032679D01*
X102940044Y-110344399D01*
X102867503Y-110073795D01*
X107114716Y-110073795D01*
X107363106Y-110674943D01*
X107822637Y-111135278D01*
X108423352Y-111384716D01*
X109073795Y-111385284D01*
X109674943Y-111136894D01*
X110135278Y-110677363D01*
X110203943Y-110512000D01*
X113795779Y-110512000D01*
X113863106Y-110674943D01*
X114322637Y-111135278D01*
X114895137Y-111373000D01*
X111000000Y-111373000D01*
X110953841Y-111381685D01*
X110911447Y-111408965D01*
X110883006Y-111450590D01*
X110873000Y-111500000D01*
X110873000Y-118500000D01*
X110881685Y-118546159D01*
X110908965Y-118588553D01*
X110950590Y-118616994D01*
X111000000Y-118627000D01*
X117500000Y-118627000D01*
X117546159Y-118618315D01*
X117588553Y-118591035D01*
X117616994Y-118549410D01*
X117627000Y-118500000D01*
X117627000Y-118255963D01*
X128923642Y-118255963D01*
X129039806Y-118537658D01*
X129701333Y-118788062D01*
X130408329Y-118766249D01*
X130960194Y-118537658D01*
X131076358Y-118255963D01*
X130000000Y-117179605D01*
X128923642Y-118255963D01*
X117627000Y-118255963D01*
X117627000Y-116701333D01*
X128211938Y-116701333D01*
X128233751Y-117408329D01*
X128462342Y-117960194D01*
X128744037Y-118076358D01*
X129820395Y-117000000D01*
X130179605Y-117000000D01*
X131255963Y-118076358D01*
X131537658Y-117960194D01*
X131788062Y-117298667D01*
X131766249Y-116591671D01*
X131537658Y-116039806D01*
X131255963Y-115923642D01*
X130179605Y-117000000D01*
X129820395Y-117000000D01*
X128744037Y-115923642D01*
X128462342Y-116039806D01*
X128211938Y-116701333D01*
X117627000Y-116701333D01*
X117627000Y-115744037D01*
X128923642Y-115744037D01*
X130000000Y-116820395D01*
X131076358Y-115744037D01*
X130960194Y-115462342D01*
X130298667Y-115211938D01*
X129591671Y-115233751D01*
X129039806Y-115462342D01*
X128923642Y-115744037D01*
X117627000Y-115744037D01*
X117627000Y-111500000D01*
X117618315Y-111453841D01*
X117591035Y-111411447D01*
X117549410Y-111383006D01*
X117500000Y-111373000D01*
X115603524Y-111373000D01*
X116174943Y-111136894D01*
X116635278Y-110677363D01*
X116703943Y-110512000D01*
X119825082Y-110512000D01*
X119923731Y-110610821D01*
X120297018Y-110765824D01*
X120701208Y-110766176D01*
X121074766Y-110611825D01*
X121360821Y-110326269D01*
X121515824Y-109952982D01*
X121516176Y-109548792D01*
X121361825Y-109175234D01*
X121076269Y-108889179D01*
X120702982Y-108734176D01*
X120298792Y-108733824D01*
X119925234Y-108888175D01*
X119825235Y-108988000D01*
X116704221Y-108988000D01*
X116636894Y-108825057D01*
X116177363Y-108364722D01*
X115576648Y-108115284D01*
X114926205Y-108114716D01*
X114325057Y-108363106D01*
X113864722Y-108822637D01*
X113796057Y-108988000D01*
X110204221Y-108988000D01*
X110136894Y-108825057D01*
X109677363Y-108364722D01*
X109076648Y-108115284D01*
X108426205Y-108114716D01*
X107825057Y-108363106D01*
X107364722Y-108822637D01*
X107115284Y-109423352D01*
X107114716Y-110073795D01*
X102867503Y-110073795D01*
X102492619Y-108675361D01*
X102010069Y-105573795D01*
X107114716Y-105573795D01*
X107363106Y-106174943D01*
X107822637Y-106635278D01*
X108423352Y-106884716D01*
X109073795Y-106885284D01*
X109674943Y-106636894D01*
X110135278Y-106177363D01*
X110203943Y-106012000D01*
X113795779Y-106012000D01*
X113863106Y-106174943D01*
X114322637Y-106635278D01*
X114923352Y-106884716D01*
X115573795Y-106885284D01*
X116174943Y-106636894D01*
X116635278Y-106177363D01*
X116884716Y-105576648D01*
X116884782Y-105500000D01*
X126873000Y-105500000D01*
X126873000Y-112500000D01*
X126881685Y-112546159D01*
X126908965Y-112588553D01*
X126950590Y-112616994D01*
X127000000Y-112627000D01*
X133500000Y-112627000D01*
X133546159Y-112618315D01*
X133588553Y-112591035D01*
X133616994Y-112549410D01*
X133627000Y-112500000D01*
X133627000Y-111500000D01*
X142873000Y-111500000D01*
X142873000Y-118500000D01*
X142881685Y-118546159D01*
X142908965Y-118588553D01*
X142950590Y-118616994D01*
X143000000Y-118627000D01*
X149500000Y-118627000D01*
X149546159Y-118618315D01*
X149588553Y-118591035D01*
X149616994Y-118549410D01*
X149627000Y-118500000D01*
X149627000Y-111500000D01*
X149618315Y-111453841D01*
X149591035Y-111411447D01*
X149549410Y-111383006D01*
X149500000Y-111373000D01*
X143000000Y-111373000D01*
X142953841Y-111381685D01*
X142911447Y-111408965D01*
X142883006Y-111450590D01*
X142873000Y-111500000D01*
X133627000Y-111500000D01*
X133627000Y-105809682D01*
X133860821Y-105576269D01*
X134015824Y-105202982D01*
X134016176Y-104798792D01*
X133861825Y-104425234D01*
X133576269Y-104139179D01*
X133202982Y-103984176D01*
X132798792Y-103983824D01*
X132425234Y-104138175D01*
X132139179Y-104423731D01*
X132129941Y-104445979D01*
X132107185Y-104461184D01*
X131195370Y-105373000D01*
X127000000Y-105373000D01*
X126953841Y-105381685D01*
X126911447Y-105408965D01*
X126883006Y-105450590D01*
X126873000Y-105500000D01*
X116884782Y-105500000D01*
X116885284Y-104926205D01*
X116636894Y-104325057D01*
X116177363Y-103864722D01*
X115576648Y-103615284D01*
X114926205Y-103614716D01*
X114325057Y-103863106D01*
X113864722Y-104322637D01*
X113796057Y-104488000D01*
X113647474Y-104488000D01*
X113765824Y-104202982D01*
X113765947Y-104061683D01*
X115348613Y-102479018D01*
X115388175Y-102574766D01*
X115673731Y-102860821D01*
X116047018Y-103015824D01*
X116451208Y-103016176D01*
X116824766Y-102861825D01*
X116876682Y-102810000D01*
X134124488Y-102810000D01*
X136654060Y-105339573D01*
X136654060Y-105698500D01*
X136698338Y-105933817D01*
X136837410Y-106149941D01*
X137049610Y-106294931D01*
X137301500Y-106345940D01*
X138698500Y-106345940D01*
X138933817Y-106301662D01*
X139149941Y-106162590D01*
X139201307Y-106087413D01*
X139243647Y-106129827D01*
X139733587Y-106333268D01*
X140264086Y-106333731D01*
X140754380Y-106131146D01*
X141000100Y-105885855D01*
X141243647Y-106129827D01*
X141733587Y-106333268D01*
X142264086Y-106333731D01*
X142754380Y-106131146D01*
X143129827Y-105756353D01*
X143333268Y-105266413D01*
X143333731Y-104735914D01*
X143131146Y-104245620D01*
X142756353Y-103870173D01*
X142266413Y-103666732D01*
X141735914Y-103666269D01*
X141245620Y-103868854D01*
X140999900Y-104114145D01*
X140756353Y-103870173D01*
X140266413Y-103666732D01*
X139735914Y-103666269D01*
X139245620Y-103868854D01*
X139202429Y-103911970D01*
X139162590Y-103850059D01*
X138950390Y-103705069D01*
X138698500Y-103654060D01*
X137301500Y-103654060D01*
X137266213Y-103660700D01*
X136951453Y-103345940D01*
X138118500Y-103345940D01*
X138353817Y-103301662D01*
X138569941Y-103162590D01*
X138714931Y-102950390D01*
X138765940Y-102698500D01*
X138765940Y-102602116D01*
X138828854Y-102754380D01*
X139203647Y-103129827D01*
X139693587Y-103333268D01*
X140224086Y-103333731D01*
X140714380Y-103131146D01*
X141089827Y-102756353D01*
X141230094Y-102418554D01*
X141368854Y-102754380D01*
X141743647Y-103129827D01*
X142233587Y-103333268D01*
X142764086Y-103333731D01*
X143254380Y-103131146D01*
X143629827Y-102756353D01*
X143833268Y-102266413D01*
X143833731Y-101735914D01*
X143631146Y-101245620D01*
X143256353Y-100870173D01*
X142766413Y-100666732D01*
X142235914Y-100666269D01*
X141745620Y-100868854D01*
X141370173Y-101243647D01*
X141229906Y-101581446D01*
X141091146Y-101245620D01*
X140716353Y-100870173D01*
X140226413Y-100666732D01*
X139695914Y-100666269D01*
X139205620Y-100868854D01*
X138830173Y-101243647D01*
X138765940Y-101398337D01*
X138765940Y-101301500D01*
X138721662Y-101066183D01*
X138582590Y-100850059D01*
X138370390Y-100705069D01*
X138118500Y-100654060D01*
X136721500Y-100654060D01*
X136486183Y-100698338D01*
X136270059Y-100837410D01*
X136125069Y-101049610D01*
X136074060Y-101301500D01*
X136074060Y-102468548D01*
X135032756Y-101427244D01*
X134979142Y-101391420D01*
X134769974Y-101251658D01*
X134460000Y-101190000D01*
X123265835Y-101190000D01*
X123266176Y-100798792D01*
X123111825Y-100425234D01*
X122826269Y-100139179D01*
X122452982Y-99984176D01*
X122048792Y-99983824D01*
X121675234Y-100138175D01*
X121575235Y-100238000D01*
X115750000Y-100238000D01*
X115458395Y-100296004D01*
X115372722Y-100353249D01*
X115211185Y-100461184D01*
X112688424Y-102983946D01*
X112548792Y-102983824D01*
X112175234Y-103138175D01*
X111889179Y-103423731D01*
X111734176Y-103797018D01*
X111733824Y-104201208D01*
X111852324Y-104488000D01*
X110204221Y-104488000D01*
X110136894Y-104325057D01*
X109677363Y-103864722D01*
X109076648Y-103615284D01*
X108426205Y-103614716D01*
X107825057Y-103863106D01*
X107364722Y-104322637D01*
X107115284Y-104923352D01*
X107114716Y-105573795D01*
X102010069Y-105573795D01*
X101972833Y-105334467D01*
X101835527Y-102077646D01*
X101909765Y-100515326D01*
X102129432Y-98981620D01*
X102490455Y-97484945D01*
X102988631Y-96035756D01*
X103619717Y-94644504D01*
X104379442Y-93321609D01*
X105073662Y-92344619D01*
X109873000Y-92344619D01*
X109873000Y-99344619D01*
X109881685Y-99390778D01*
X109908965Y-99433172D01*
X109950590Y-99461613D01*
X110000000Y-99471619D01*
X116500000Y-99471619D01*
X116546159Y-99462934D01*
X116588553Y-99435654D01*
X116616994Y-99394029D01*
X116627000Y-99344619D01*
X116627000Y-97694528D01*
X128485077Y-97694528D01*
X128675364Y-98039271D01*
X129556591Y-98390956D01*
X130505323Y-98378641D01*
X131324636Y-98039271D01*
X131514923Y-97694528D01*
X130000000Y-96179605D01*
X128485077Y-97694528D01*
X116627000Y-97694528D01*
X116627000Y-95556591D01*
X127609044Y-95556591D01*
X127621359Y-96505323D01*
X127960729Y-97324636D01*
X128305472Y-97514923D01*
X129820395Y-96000000D01*
X130179605Y-96000000D01*
X131694528Y-97514923D01*
X132039271Y-97324636D01*
X132390956Y-96443409D01*
X132378641Y-95494677D01*
X132039271Y-94675364D01*
X131694528Y-94485077D01*
X130179605Y-96000000D01*
X129820395Y-96000000D01*
X128305472Y-94485077D01*
X127960729Y-94675364D01*
X127609044Y-95556591D01*
X116627000Y-95556591D01*
X116627000Y-92344619D01*
X116618315Y-92298460D01*
X116591035Y-92256066D01*
X116549410Y-92227625D01*
X116500000Y-92217619D01*
X110000000Y-92217619D01*
X109953841Y-92226304D01*
X109911447Y-92253584D01*
X109883006Y-92295209D01*
X109873000Y-92344619D01*
X105073662Y-92344619D01*
X105263542Y-92077397D01*
X106267898Y-90922004D01*
X107376292Y-89876176D01*
X108568631Y-88956536D01*
X109835124Y-88167053D01*
X111165870Y-87511831D01*
X112551006Y-86994985D01*
X113980662Y-86620660D01*
X115445098Y-86392991D01*
X116923354Y-86316744D01*
X118757090Y-86472848D01*
X120472977Y-86916553D01*
X122073854Y-87621862D01*
X123517583Y-88542807D01*
X124456488Y-89543827D01*
X125639017Y-90969632D01*
X126381561Y-91935980D01*
X126404773Y-91956308D01*
X126420846Y-91982648D01*
X127247675Y-92880469D01*
X127339648Y-92947554D01*
X127427504Y-93019935D01*
X128785098Y-93748895D01*
X128909291Y-93786826D01*
X129014487Y-93820260D01*
X128675364Y-93960729D01*
X128485077Y-94305472D01*
X130000000Y-95820395D01*
X131514923Y-94305472D01*
X131324636Y-93960729D01*
X131108023Y-93874282D01*
X131288935Y-93861293D01*
X131392471Y-93832859D01*
X131497911Y-93812595D01*
X132200115Y-93527048D01*
X132259862Y-93487684D01*
X132325815Y-93459934D01*
X132995512Y-93007040D01*
X133075113Y-92926547D01*
X133159453Y-92851046D01*
X133259928Y-92717300D01*
X143873000Y-92717300D01*
X143873000Y-99717300D01*
X143881685Y-99763459D01*
X143908965Y-99805853D01*
X143950590Y-99834294D01*
X144000000Y-99844300D01*
X150500000Y-99844300D01*
X150546159Y-99835615D01*
X150588553Y-99808335D01*
X150616994Y-99766710D01*
X150627000Y-99717300D01*
X150627000Y-92717300D01*
X150618315Y-92671141D01*
X150591035Y-92628747D01*
X150549410Y-92600306D01*
X150500000Y-92590300D01*
X144000000Y-92590300D01*
X143953841Y-92598985D01*
X143911447Y-92626265D01*
X143883006Y-92667890D01*
X143873000Y-92717300D01*
X133259928Y-92717300D01*
X133851734Y-91929526D01*
X133865794Y-91900265D01*
X133887849Y-91876443D01*
X134487357Y-90899788D01*
X135479890Y-89498042D01*
X135985717Y-88891899D01*
X136553923Y-88407674D01*
X138084994Y-87512278D01*
X139736126Y-86826004D01*
X141483922Y-86390002D01*
X143335788Y-86234967D01*
X144814349Y-86311239D01*
X144814349Y-86311239D01*
G37*
X144814349Y-86311239D02*
X146278791Y-86538916D01*
X147708443Y-86913246D01*
X149093566Y-87430091D01*
X150424317Y-88085318D01*
X151690805Y-88874801D01*
X152883152Y-89794447D01*
X153991534Y-90840266D01*
X154995872Y-91995647D01*
X155879977Y-93239871D01*
X156639696Y-94562769D01*
X157270774Y-95954011D01*
X157768942Y-97403189D01*
X158129964Y-98899864D01*
X158349633Y-100433572D01*
X158423606Y-101990260D01*
X158235914Y-105192327D01*
X157603683Y-108452597D01*
X156418121Y-111850825D01*
X154565493Y-115462560D01*
X152962196Y-117808079D01*
X150480564Y-120989777D01*
X143772851Y-128807755D01*
X136233284Y-136823917D01*
X132710820Y-140258807D01*
X130054607Y-142611745D01*
X127086799Y-140284931D01*
X123383817Y-136846750D01*
X122903981Y-136352114D01*
X128221692Y-136352114D01*
X128491806Y-137005840D01*
X128991529Y-137506436D01*
X129644782Y-137777691D01*
X130352114Y-137778308D01*
X131005840Y-137508194D01*
X131506436Y-137008471D01*
X131777691Y-136355218D01*
X131778308Y-135647886D01*
X131508194Y-134994160D01*
X131008471Y-134493564D01*
X130355218Y-134222309D01*
X129647886Y-134221692D01*
X128994160Y-134491806D01*
X128493564Y-134991529D01*
X128222309Y-135644782D01*
X128221692Y-136352114D01*
X122903981Y-136352114D01*
X119557881Y-132902812D01*
X115805745Y-128737885D01*
X113123419Y-125500000D01*
X126873000Y-125500000D01*
X126873000Y-132500000D01*
X126881685Y-132546159D01*
X126908965Y-132588553D01*
X126950590Y-132616994D01*
X127000000Y-132627000D01*
X133500000Y-132627000D01*
X133546159Y-132618315D01*
X133588553Y-132591035D01*
X133616994Y-132549410D01*
X133627000Y-132500000D01*
X133627000Y-125500000D01*
X133618315Y-125453841D01*
X133591035Y-125411447D01*
X133549410Y-125383006D01*
X133500000Y-125373000D01*
X127000000Y-125373000D01*
X126953841Y-125381685D01*
X126911447Y-125408965D01*
X126883006Y-125450590D01*
X126873000Y-125500000D01*
X113123419Y-125500000D01*
X109395532Y-121000000D01*
X142188000Y-121000000D01*
X142188000Y-121550000D01*
X142246004Y-121841605D01*
X142411185Y-122088815D01*
X142658395Y-122253996D01*
X142950000Y-122312000D01*
X143241605Y-122253996D01*
X143488815Y-122088815D01*
X143653996Y-121841605D01*
X143712000Y-121550000D01*
X143712000Y-121000000D01*
X143653996Y-120708395D01*
X143488815Y-120461185D01*
X143241605Y-120296004D01*
X142950000Y-120238000D01*
X142658395Y-120296004D01*
X142411185Y-120461185D01*
X142246004Y-120708395D01*
X142188000Y-121000000D01*
X109395532Y-121000000D01*
X109267714Y-120845709D01*
X105296926Y-115421800D01*
X104324528Y-113727738D01*
X103544786Y-112032679D01*
X102940044Y-110344399D01*
X102867503Y-110073795D01*
X107114716Y-110073795D01*
X107363106Y-110674943D01*
X107822637Y-111135278D01*
X108423352Y-111384716D01*
X109073795Y-111385284D01*
X109674943Y-111136894D01*
X110135278Y-110677363D01*
X110203943Y-110512000D01*
X113795779Y-110512000D01*
X113863106Y-110674943D01*
X114322637Y-111135278D01*
X114895137Y-111373000D01*
X111000000Y-111373000D01*
X110953841Y-111381685D01*
X110911447Y-111408965D01*
X110883006Y-111450590D01*
X110873000Y-111500000D01*
X110873000Y-118500000D01*
X110881685Y-118546159D01*
X110908965Y-118588553D01*
X110950590Y-118616994D01*
X111000000Y-118627000D01*
X117500000Y-118627000D01*
X117546159Y-118618315D01*
X117588553Y-118591035D01*
X117616994Y-118549410D01*
X117627000Y-118500000D01*
X117627000Y-118255963D01*
X128923642Y-118255963D01*
X129039806Y-118537658D01*
X129701333Y-118788062D01*
X130408329Y-118766249D01*
X130960194Y-118537658D01*
X131076358Y-118255963D01*
X130000000Y-117179605D01*
X128923642Y-118255963D01*
X117627000Y-118255963D01*
X117627000Y-116701333D01*
X128211938Y-116701333D01*
X128233751Y-117408329D01*
X128462342Y-117960194D01*
X128744037Y-118076358D01*
X129820395Y-117000000D01*
X130179605Y-117000000D01*
X131255963Y-118076358D01*
X131537658Y-117960194D01*
X131788062Y-117298667D01*
X131766249Y-116591671D01*
X131537658Y-116039806D01*
X131255963Y-115923642D01*
X130179605Y-117000000D01*
X129820395Y-117000000D01*
X128744037Y-115923642D01*
X128462342Y-116039806D01*
X128211938Y-116701333D01*
X117627000Y-116701333D01*
X117627000Y-115744037D01*
X128923642Y-115744037D01*
X130000000Y-116820395D01*
X131076358Y-115744037D01*
X130960194Y-115462342D01*
X130298667Y-115211938D01*
X129591671Y-115233751D01*
X129039806Y-115462342D01*
X128923642Y-115744037D01*
X117627000Y-115744037D01*
X117627000Y-111500000D01*
X117618315Y-111453841D01*
X117591035Y-111411447D01*
X117549410Y-111383006D01*
X117500000Y-111373000D01*
X115603524Y-111373000D01*
X116174943Y-111136894D01*
X116635278Y-110677363D01*
X116703943Y-110512000D01*
X119825082Y-110512000D01*
X119923731Y-110610821D01*
X120297018Y-110765824D01*
X120701208Y-110766176D01*
X121074766Y-110611825D01*
X121360821Y-110326269D01*
X121515824Y-109952982D01*
X121516176Y-109548792D01*
X121361825Y-109175234D01*
X121076269Y-108889179D01*
X120702982Y-108734176D01*
X120298792Y-108733824D01*
X119925234Y-108888175D01*
X119825235Y-108988000D01*
X116704221Y-108988000D01*
X116636894Y-108825057D01*
X116177363Y-108364722D01*
X115576648Y-108115284D01*
X114926205Y-108114716D01*
X114325057Y-108363106D01*
X113864722Y-108822637D01*
X113796057Y-108988000D01*
X110204221Y-108988000D01*
X110136894Y-108825057D01*
X109677363Y-108364722D01*
X109076648Y-108115284D01*
X108426205Y-108114716D01*
X107825057Y-108363106D01*
X107364722Y-108822637D01*
X107115284Y-109423352D01*
X107114716Y-110073795D01*
X102867503Y-110073795D01*
X102492619Y-108675361D01*
X102010069Y-105573795D01*
X107114716Y-105573795D01*
X107363106Y-106174943D01*
X107822637Y-106635278D01*
X108423352Y-106884716D01*
X109073795Y-106885284D01*
X109674943Y-106636894D01*
X110135278Y-106177363D01*
X110203943Y-106012000D01*
X113795779Y-106012000D01*
X113863106Y-106174943D01*
X114322637Y-106635278D01*
X114923352Y-106884716D01*
X115573795Y-106885284D01*
X116174943Y-106636894D01*
X116635278Y-106177363D01*
X116884716Y-105576648D01*
X116884782Y-105500000D01*
X126873000Y-105500000D01*
X126873000Y-112500000D01*
X126881685Y-112546159D01*
X126908965Y-112588553D01*
X126950590Y-112616994D01*
X127000000Y-112627000D01*
X133500000Y-112627000D01*
X133546159Y-112618315D01*
X133588553Y-112591035D01*
X133616994Y-112549410D01*
X133627000Y-112500000D01*
X133627000Y-111500000D01*
X142873000Y-111500000D01*
X142873000Y-118500000D01*
X142881685Y-118546159D01*
X142908965Y-118588553D01*
X142950590Y-118616994D01*
X143000000Y-118627000D01*
X149500000Y-118627000D01*
X149546159Y-118618315D01*
X149588553Y-118591035D01*
X149616994Y-118549410D01*
X149627000Y-118500000D01*
X149627000Y-111500000D01*
X149618315Y-111453841D01*
X149591035Y-111411447D01*
X149549410Y-111383006D01*
X149500000Y-111373000D01*
X143000000Y-111373000D01*
X142953841Y-111381685D01*
X142911447Y-111408965D01*
X142883006Y-111450590D01*
X142873000Y-111500000D01*
X133627000Y-111500000D01*
X133627000Y-105809682D01*
X133860821Y-105576269D01*
X134015824Y-105202982D01*
X134016176Y-104798792D01*
X133861825Y-104425234D01*
X133576269Y-104139179D01*
X133202982Y-103984176D01*
X132798792Y-103983824D01*
X132425234Y-104138175D01*
X132139179Y-104423731D01*
X132129941Y-104445979D01*
X132107185Y-104461184D01*
X131195370Y-105373000D01*
X127000000Y-105373000D01*
X126953841Y-105381685D01*
X126911447Y-105408965D01*
X126883006Y-105450590D01*
X126873000Y-105500000D01*
X116884782Y-105500000D01*
X116885284Y-104926205D01*
X116636894Y-104325057D01*
X116177363Y-103864722D01*
X115576648Y-103615284D01*
X114926205Y-103614716D01*
X114325057Y-103863106D01*
X113864722Y-104322637D01*
X113796057Y-104488000D01*
X113647474Y-104488000D01*
X113765824Y-104202982D01*
X113765947Y-104061683D01*
X115348613Y-102479018D01*
X115388175Y-102574766D01*
X115673731Y-102860821D01*
X116047018Y-103015824D01*
X116451208Y-103016176D01*
X116824766Y-102861825D01*
X116876682Y-102810000D01*
X134124488Y-102810000D01*
X136654060Y-105339573D01*
X136654060Y-105698500D01*
X136698338Y-105933817D01*
X136837410Y-106149941D01*
X137049610Y-106294931D01*
X137301500Y-106345940D01*
X138698500Y-106345940D01*
X138933817Y-106301662D01*
X139149941Y-106162590D01*
X139201307Y-106087413D01*
X139243647Y-106129827D01*
X139733587Y-106333268D01*
X140264086Y-106333731D01*
X140754380Y-106131146D01*
X141000100Y-105885855D01*
X141243647Y-106129827D01*
X141733587Y-106333268D01*
X142264086Y-106333731D01*
X142754380Y-106131146D01*
X143129827Y-105756353D01*
X143333268Y-105266413D01*
X143333731Y-104735914D01*
X143131146Y-104245620D01*
X142756353Y-103870173D01*
X142266413Y-103666732D01*
X141735914Y-103666269D01*
X141245620Y-103868854D01*
X140999900Y-104114145D01*
X140756353Y-103870173D01*
X140266413Y-103666732D01*
X139735914Y-103666269D01*
X139245620Y-103868854D01*
X139202429Y-103911970D01*
X139162590Y-103850059D01*
X138950390Y-103705069D01*
X138698500Y-103654060D01*
X137301500Y-103654060D01*
X137266213Y-103660700D01*
X136951453Y-103345940D01*
X138118500Y-103345940D01*
X138353817Y-103301662D01*
X138569941Y-103162590D01*
X138714931Y-102950390D01*
X138765940Y-102698500D01*
X138765940Y-102602116D01*
X138828854Y-102754380D01*
X139203647Y-103129827D01*
X139693587Y-103333268D01*
X140224086Y-103333731D01*
X140714380Y-103131146D01*
X141089827Y-102756353D01*
X141230094Y-102418554D01*
X141368854Y-102754380D01*
X141743647Y-103129827D01*
X142233587Y-103333268D01*
X142764086Y-103333731D01*
X143254380Y-103131146D01*
X143629827Y-102756353D01*
X143833268Y-102266413D01*
X143833731Y-101735914D01*
X143631146Y-101245620D01*
X143256353Y-100870173D01*
X142766413Y-100666732D01*
X142235914Y-100666269D01*
X141745620Y-100868854D01*
X141370173Y-101243647D01*
X141229906Y-101581446D01*
X141091146Y-101245620D01*
X140716353Y-100870173D01*
X140226413Y-100666732D01*
X139695914Y-100666269D01*
X139205620Y-100868854D01*
X138830173Y-101243647D01*
X138765940Y-101398337D01*
X138765940Y-101301500D01*
X138721662Y-101066183D01*
X138582590Y-100850059D01*
X138370390Y-100705069D01*
X138118500Y-100654060D01*
X136721500Y-100654060D01*
X136486183Y-100698338D01*
X136270059Y-100837410D01*
X136125069Y-101049610D01*
X136074060Y-101301500D01*
X136074060Y-102468548D01*
X135032756Y-101427244D01*
X134979142Y-101391420D01*
X134769974Y-101251658D01*
X134460000Y-101190000D01*
X123265835Y-101190000D01*
X123266176Y-100798792D01*
X123111825Y-100425234D01*
X122826269Y-100139179D01*
X122452982Y-99984176D01*
X122048792Y-99983824D01*
X121675234Y-100138175D01*
X121575235Y-100238000D01*
X115750000Y-100238000D01*
X115458395Y-100296004D01*
X115372722Y-100353249D01*
X115211185Y-100461184D01*
X112688424Y-102983946D01*
X112548792Y-102983824D01*
X112175234Y-103138175D01*
X111889179Y-103423731D01*
X111734176Y-103797018D01*
X111733824Y-104201208D01*
X111852324Y-104488000D01*
X110204221Y-104488000D01*
X110136894Y-104325057D01*
X109677363Y-103864722D01*
X109076648Y-103615284D01*
X108426205Y-103614716D01*
X107825057Y-103863106D01*
X107364722Y-104322637D01*
X107115284Y-104923352D01*
X107114716Y-105573795D01*
X102010069Y-105573795D01*
X101972833Y-105334467D01*
X101835527Y-102077646D01*
X101909765Y-100515326D01*
X102129432Y-98981620D01*
X102490455Y-97484945D01*
X102988631Y-96035756D01*
X103619717Y-94644504D01*
X104379442Y-93321609D01*
X105073662Y-92344619D01*
X109873000Y-92344619D01*
X109873000Y-99344619D01*
X109881685Y-99390778D01*
X109908965Y-99433172D01*
X109950590Y-99461613D01*
X110000000Y-99471619D01*
X116500000Y-99471619D01*
X116546159Y-99462934D01*
X116588553Y-99435654D01*
X116616994Y-99394029D01*
X116627000Y-99344619D01*
X116627000Y-97694528D01*
X128485077Y-97694528D01*
X128675364Y-98039271D01*
X129556591Y-98390956D01*
X130505323Y-98378641D01*
X131324636Y-98039271D01*
X131514923Y-97694528D01*
X130000000Y-96179605D01*
X128485077Y-97694528D01*
X116627000Y-97694528D01*
X116627000Y-95556591D01*
X127609044Y-95556591D01*
X127621359Y-96505323D01*
X127960729Y-97324636D01*
X128305472Y-97514923D01*
X129820395Y-96000000D01*
X130179605Y-96000000D01*
X131694528Y-97514923D01*
X132039271Y-97324636D01*
X132390956Y-96443409D01*
X132378641Y-95494677D01*
X132039271Y-94675364D01*
X131694528Y-94485077D01*
X130179605Y-96000000D01*
X129820395Y-96000000D01*
X128305472Y-94485077D01*
X127960729Y-94675364D01*
X127609044Y-95556591D01*
X116627000Y-95556591D01*
X116627000Y-92344619D01*
X116618315Y-92298460D01*
X116591035Y-92256066D01*
X116549410Y-92227625D01*
X116500000Y-92217619D01*
X110000000Y-92217619D01*
X109953841Y-92226304D01*
X109911447Y-92253584D01*
X109883006Y-92295209D01*
X109873000Y-92344619D01*
X105073662Y-92344619D01*
X105263542Y-92077397D01*
X106267898Y-90922004D01*
X107376292Y-89876176D01*
X108568631Y-88956536D01*
X109835124Y-88167053D01*
X111165870Y-87511831D01*
X112551006Y-86994985D01*
X113980662Y-86620660D01*
X115445098Y-86392991D01*
X116923354Y-86316744D01*
X118757090Y-86472848D01*
X120472977Y-86916553D01*
X122073854Y-87621862D01*
X123517583Y-88542807D01*
X124456488Y-89543827D01*
X125639017Y-90969632D01*
X126381561Y-91935980D01*
X126404773Y-91956308D01*
X126420846Y-91982648D01*
X127247675Y-92880469D01*
X127339648Y-92947554D01*
X127427504Y-93019935D01*
X128785098Y-93748895D01*
X128909291Y-93786826D01*
X129014487Y-93820260D01*
X128675364Y-93960729D01*
X128485077Y-94305472D01*
X130000000Y-95820395D01*
X131514923Y-94305472D01*
X131324636Y-93960729D01*
X131108023Y-93874282D01*
X131288935Y-93861293D01*
X131392471Y-93832859D01*
X131497911Y-93812595D01*
X132200115Y-93527048D01*
X132259862Y-93487684D01*
X132325815Y-93459934D01*
X132995512Y-93007040D01*
X133075113Y-92926547D01*
X133159453Y-92851046D01*
X133259928Y-92717300D01*
X143873000Y-92717300D01*
X143873000Y-99717300D01*
X143881685Y-99763459D01*
X143908965Y-99805853D01*
X143950590Y-99834294D01*
X144000000Y-99844300D01*
X150500000Y-99844300D01*
X150546159Y-99835615D01*
X150588553Y-99808335D01*
X150616994Y-99766710D01*
X150627000Y-99717300D01*
X150627000Y-92717300D01*
X150618315Y-92671141D01*
X150591035Y-92628747D01*
X150549410Y-92600306D01*
X150500000Y-92590300D01*
X144000000Y-92590300D01*
X143953841Y-92598985D01*
X143911447Y-92626265D01*
X143883006Y-92667890D01*
X143873000Y-92717300D01*
X133259928Y-92717300D01*
X133851734Y-91929526D01*
X133865794Y-91900265D01*
X133887849Y-91876443D01*
X134487357Y-90899788D01*
X135479890Y-89498042D01*
X135985717Y-88891899D01*
X136553923Y-88407674D01*
X138084994Y-87512278D01*
X139736126Y-86826004D01*
X141483922Y-86390002D01*
X143335788Y-86234967D01*
X144814349Y-86311239D01*
M02*
